<?xml version="1.0" standalone="no"?>
<!DOCTYPE svg PUBLIC "-//W3C//DTD SVG 20010904//EN"
 "http://www.w3.org/TR/2001/REC-SVG-20010904/DTD/svg10.dtd">
<svg version="1.0" xmlns="http://www.w3.org/2000/svg"
 width="1576.000000pt" height="780.000000pt" viewBox="0 0 1576.000000 780.000000"
 preserveAspectRatio="xMidYMid meet">

<g transform="translate(0.000000,780.000000) scale(0.100000,-0.100000)"
fill="#000000" stroke="none">
<path d="M860 7020 c0 -40 4 -70 10 -70 6 0 10 30 10 70 0 40 -4 70 -10 70 -6
0 -10 -30 -10 -70z"/>
<path d="M505 7070 c3 -5 13 -10 21 -10 10 0 14 -14 14 -55 0 -30 5 -55 10
-55 6 0 10 25 10 55 0 48 2 55 20 55 11 0 20 5 20 10 0 6 -23 10 -51 10 -31 0
-48 -4 -44 -10z"/>
<path d="M972 7018 c-21 -58 -22 -93 -1 -55 6 9 21 17 34 17 13 0 28 -8 34
-17 5 -10 12 -15 15 -12 10 9 -35 129 -48 129 -7 0 -22 -28 -34 -62z m48 -5
c0 -7 -7 -13 -15 -13 -16 0 -19 9 -9 35 5 13 8 14 15 3 5 -7 9 -19 9 -25z"/>
<path d="M1230 7070 c0 -5 5 -10 10 -10 6 0 10 5 10 10 0 6 -4 10 -10 10 -5 0
-10 -4 -10 -10z"/>
<path d="M708 7051 c-10 -12 -13 -23 -8 -26 6 -4 10 -20 10 -36 0 -29 23 -50
38 -34 4 4 1 10 -5 12 -7 3 -13 15 -13 28 0 13 6 26 13 28 8 4 9 8 1 14 -6 4
-13 14 -15 21 -3 9 -9 7 -21 -7z"/>
<path d="M1168 7051 c-10 -12 -13 -23 -8 -26 6 -4 10 -20 10 -36 0 -29 23 -50
38 -34 4 4 1 10 -5 12 -7 3 -13 15 -13 28 0 13 6 26 13 28 8 4 9 8 1 14 -6 4
-13 14 -15 21 -3 9 -9 7 -21 -7z"/>
<path d="M606 7024 c-9 -8 -16 -22 -16 -29 0 -7 7 -21 16 -29 30 -30 74 -13
74 29 0 42 -44 59 -74 29z m54 -29 c0 -18 -5 -25 -19 -25 -11 0 -23 5 -26 10
-11 18 3 40 25 40 15 0 20 -7 20 -25z"/>
<path d="M775 7030 c-4 -6 6 -10 22 -10 l28 -1 -32 -14 c-18 -8 -33 -18 -33
-22 1 -20 18 -32 48 -31 29 1 32 4 32 33 0 17 -5 36 -12 43 -15 15 -45 16 -53
2z m45 -40 c0 -13 -28 -25 -38 -16 -3 4 0 11 8 16 20 13 30 12 30 0z"/>
<path d="M1094 7032 c-36 -23 -17 -82 27 -82 27 0 24 18 -3 22 -15 2 -23 10
-23 23 0 13 8 21 23 23 12 2 22 8 22 13 0 11 -30 12 -46 1z"/>
<path d="M1230 6995 c0 -25 5 -45 10 -45 6 0 10 20 10 45 0 25 -4 45 -10 45
-5 0 -10 -20 -10 -45z"/>
<path d="M1286 7024 c-9 -8 -16 -22 -16 -29 0 -7 7 -21 16 -29 30 -30 74 -13
74 29 0 42 -44 59 -74 29z m54 -29 c0 -18 -5 -25 -19 -25 -11 0 -23 5 -26 10
-11 18 3 40 25 40 15 0 20 -7 20 -25z"/>
<path d="M1380 6994 c0 -51 17 -60 22 -12 2 22 9 34 21 36 14 3 17 -4 17 -32
0 -20 5 -36 11 -36 6 0 9 17 7 43 -3 41 -4 42 -40 43 l-38 1 0 -43z"/>
<path d="M1492 7027 c-13 -15 -5 -30 23 -42 18 -8 17 -9 -8 -13 -29 -4 -28
-22 2 -22 23 0 42 22 33 36 -4 6 -16 14 -27 19 -19 8 -19 9 3 12 12 3 22 9 22
14 0 14 -36 11 -48 -4z"/>
<path d="M607 6572 c6 -4 13 -28 16 -52 l4 -45 1 47 c2 35 6 48 20 51 9 3 1 5
-18 6 -19 0 -30 -3 -23 -7z"/>
<path d="M863 6530 c0 -30 2 -43 4 -27 2 15 2 39 0 55 -2 15 -4 2 -4 -28z"/>
<path d="M941 6566 c-9 -11 -8 -18 4 -30 9 -9 21 -16 26 -16 19 0 8 -29 -13
-33 l-23 -4 23 -2 c36 -2 39 27 6 54 l-29 24 25 10 c15 6 19 10 9 10 -9 1 -22
-5 -28 -13z"/>
<path d="M1013 6530 c0 -30 2 -45 4 -32 2 12 8 22 12 22 5 0 15 -10 24 -22 8
-13 17 -21 20 -18 4 3 -7 19 -22 36 -16 17 -31 39 -34 50 -2 10 -5 -6 -4 -36z"/>
<path d="M1049 6563 c-13 -16 -12 -17 4 -4 16 13 21 21 13 21 -2 0 -10 -8 -17
-17z"/>
<path d="M1094 6541 c1 -47 20 -69 50 -58 12 5 16 18 14 54 l-2 48 -3 -48 c-4
-43 -7 -48 -26 -45 -18 2 -23 12 -28 48 l-7 45 2 -44z"/>
<path d="M4372 6573 c12 -3 18 -18 21 -51 l3 -47 2 47 c2 35 6 48 20 51 9 3
-1 5 -23 5 -22 0 -32 -2 -23 -5z"/>
<path d="M4633 6530 c0 -30 2 -43 4 -27 2 15 2 39 0 55 -2 15 -4 2 -4 -28z"/>
<path d="M4736 6567 c3 -10 9 -15 12 -12 3 3 0 11 -7 18 -10 9 -11 8 -5 -6z"/>
<path d="M5203 6573 c13 -3 17 -16 19 -51 l1 -47 4 45 c3 24 10 48 16 52 7 4
-4 7 -23 7 -19 -1 -27 -3 -17 -6z"/>
<path d="M5272 6530 c0 -41 2 -47 7 -25 9 43 38 45 44 3 l5 -33 -2 35 c-1 28
-5 35 -21 35 -11 0 -23 9 -27 20 -3 11 -6 -4 -6 -35z"/>
<path d="M5490 6574 c0 -7 11 -31 24 -54 18 -33 25 -38 30 -24 4 9 4 19 1 22
-3 3 -5 -1 -5 -9 -1 -8 -12 6 -25 31 -13 25 -24 40 -25 34z"/>
<path d="M5567 6573 c-3 -5 -1 -28 3 -53 l7 -45 2 53 c1 49 -2 62 -12 45z"/>
<path d="M5823 6530 c0 -30 2 -43 4 -27 2 15 2 39 0 55 -2 15 -4 2 -4 -28z"/>
<path d="M8166 6571 c-4 -6 -3 -11 2 -11 5 0 12 -9 15 -20 4 -16 0 -20 -19
-20 -13 0 -24 -4 -24 -8 0 -5 14 -7 30 -4 26 4 30 8 24 26 -11 38 -21 50 -28
37z"/>
<path d="M8911 6566 c-9 -11 -8 -18 4 -30 9 -9 21 -16 26 -16 19 0 8 -29 -13
-33 l-23 -4 23 -2 c36 -2 39 27 6 54 l-29 24 25 10 c15 6 19 10 9 10 -9 1 -22
-5 -28 -13z"/>
<path d="M11916 6564 c-30 -30 -9 -84 33 -84 25 0 41 20 41 50 0 47 -42 66
-74 34z m59 -34 c0 -38 -24 -52 -50 -30 -31 25 -9 73 30 68 16 -2 20 -11 20
-38z"/>
<path d="M12751 6566 c-9 -11 -8 -18 4 -30 9 -9 21 -16 26 -16 19 0 8 -29 -13
-33 l-23 -4 23 -2 c36 -2 39 27 6 54 l-29 24 25 10 c15 6 19 10 9 10 -9 1 -22
-5 -28 -13z"/>
<path d="M748 6557 c-7 -21 6 -70 20 -73 7 -1 8 0 2 3 -12 6 -13 50 -1 55 5 2
3 8 -4 15 -10 9 -14 9 -17 0z"/>
<path d="M4518 6560 c-5 -17 3 -80 11 -80 7 0 6 79 -2 86 -3 3 -7 0 -9 -6z"/>
<path d="M4858 6557 c-7 -21 6 -70 20 -73 7 -1 8 0 2 3 -12 6 -13 50 -1 55 5
2 3 8 -4 15 -10 9 -14 9 -17 0z"/>
<path d="M12098 6560 c-5 -17 3 -80 11 -80 7 0 6 79 -2 86 -3 3 -7 0 -9 -6z"/>
<path d="M12468 6560 c-5 -17 3 -80 11 -80 7 0 6 79 -2 86 -3 3 -7 0 -9 -6z"/>
<path d="M664 6536 c-14 -37 22 -74 47 -49 6 6 1 9 -13 9 -14 -1 -24 6 -26 17
-4 22 27 35 40 16 8 -12 9 -11 5 1 -5 20 -46 25 -53 6z"/>
<path d="M813 6544 c23 -7 22 -20 -3 -27 -30 -8 -25 -37 6 -37 23 0 25 3 22
32 -2 24 -8 33 -23 35 -16 1 -16 1 -2 -3z m17 -44 c0 -5 -7 -10 -15 -10 -8 0
-15 5 -15 10 0 6 7 10 15 10 8 0 15 -4 15 -10z"/>
<path d="M1198 6543 c7 -3 16 -2 19 1 4 3 -2 6 -13 5 -11 0 -14 -3 -6 -6z"/>
<path d="M4434 6536 c-11 -29 0 -51 26 -51 21 0 25 5 25 30 0 24 -5 31 -23 33
-13 2 -24 -3 -28 -12z m46 -21 c0 -18 -5 -25 -20 -25 -15 0 -20 7 -20 25 0 18
5 25 20 25 15 0 20 -7 20 -25z"/>
<path d="M4583 6544 c23 -7 22 -20 -3 -27 -25 -6 -27 -37 -2 -36 10 0 12 3 5
6 -18 7 -16 23 1 23 8 0 17 -8 20 -17 2 -10 4 -2 3 17 -2 27 -7 35 -22 37 -16
1 -16 1 -2 -3z"/>
<path d="M4800 6535 c-18 -22 -8 -50 20 -52 25 -3 25 -3 3 7 -13 5 -23 16 -23
25 0 9 10 20 23 25 15 6 17 9 6 9 -9 1 -22 -6 -29 -14z"/>
<path d="M4913 6515 c0 -22 2 -30 4 -17 2 12 2 30 0 40 -3 9 -5 -1 -4 -23z"/>
<path d="M4944 6536 c-11 -29 0 -51 26 -51 21 0 25 5 25 30 0 24 -5 31 -23 33
-13 2 -24 -3 -28 -12z m46 -21 c0 -18 -5 -25 -20 -25 -15 0 -20 7 -20 25 0 18
5 25 20 25 15 0 20 -7 20 -25z"/>
<path d="M5021 6511 c1 -36 1 -36 8 -6 3 17 13 30 21 30 8 0 18 -13 22 -30 6
-29 6 -29 5 5 -2 31 -5 35 -29 36 -26 1 -28 -2 -27 -35z"/>
<path d="M5104 6538 c-4 -6 0 -16 9 -23 22 -16 21 -22 0 -28 -16 -4 -16 -5 -1
-6 24 -2 34 20 15 34 -22 16 -21 22 1 28 15 4 15 5 0 6 -9 0 -20 -4 -24 -11z"/>
<path d="M5353 6515 c0 -22 2 -30 4 -17 2 12 2 30 0 40 -3 9 -5 -1 -4 -23z"/>
<path d="M5385 6540 c-8 -14 3 -30 21 -30 20 0 18 -18 -3 -23 -15 -3 -14 -4 1
-3 27 1 32 26 7 33 -26 7 -27 20 -3 26 15 4 15 5 0 6 -9 0 -20 -3 -23 -9z"/>
<path d="M5616 6542 c-3 -5 5 -8 17 -8 16 1 22 -5 22 -19 0 -14 -6 -20 -22
-19 -12 0 -20 -3 -17 -8 17 -27 59 9 49 42 -6 20 -39 28 -49 12z"/>
<path d="M5691 6511 c1 -36 1 -36 8 -6 3 17 13 30 21 30 8 0 18 -13 22 -30 6
-29 6 -29 5 5 -2 31 -5 35 -29 36 -26 1 -28 -2 -27 -35z"/>
<path d="M5768 6543 c6 -2 18 -2 25 0 6 3 1 5 -13 5 -14 0 -19 -2 -12 -5z"/>
<path d="M5840 6546 c0 -2 7 -6 15 -10 8 -3 15 -1 15 4 0 6 -7 10 -15 10 -8 0
-15 -2 -15 -4z"/>
<path d="M8265 6539 c-4 -6 -5 -12 -2 -15 2 -3 7 2 10 11 7 17 1 20 -8 4z"/>
<path d="M8294 6536 c-9 -23 0 -51 16 -52 9 0 10 1 3 3 -20 7 -16 51 5 56 16
4 16 5 -1 6 -10 0 -20 -5 -23 -13z"/>
<path d="M8340 6510 c-4 -37 -9 -45 -30 -51 l-25 -7 28 -1 c32 -1 40 13 35 65
l-4 39 -4 -45z"/>
<path d="M8481 6510 c1 -34 1 -35 8 -6 6 29 31 49 31 26 0 -10 3 -10 15 0 19
16 35 4 36 -28 0 -15 3 -21 6 -14 3 7 2 23 -1 36 -5 21 -11 24 -51 23 -45 -2
-45 -2 -44 -37z"/>
<path d="M8601 6496 c1 -31 4 -43 7 -31 4 11 16 20 26 20 11 0 21 7 23 15 4
12 3 13 -5 1 -12 -17 -42 -7 -42 14 0 21 30 31 42 14 8 -12 9 -11 5 1 -2 8
-16 15 -30 16 -26 1 -27 -1 -26 -50z"/>
<path d="M8703 6544 c23 -7 22 -20 -3 -27 -30 -8 -25 -37 6 -37 23 0 25 3 22
32 -2 24 -8 33 -23 35 -16 1 -16 1 -2 -3z m17 -44 c0 -5 -7 -10 -15 -10 -8 0
-15 5 -15 10 0 6 7 10 15 10 8 0 15 -4 15 -10z"/>
<path d="M8759 6534 c-16 -19 -1 -48 27 -51 15 -2 14 -1 -3 7 -13 5 -23 16
-23 25 0 9 10 20 23 25 15 6 17 9 6 9 -9 1 -22 -6 -30 -15z"/>
<path d="M8818 6543 c6 -2 18 -2 25 0 6 3 1 5 -13 5 -14 0 -19 -2 -12 -5z"/>
<path d="M8984 6536 c-11 -28 1 -51 26 -53 22 -1 22 -1 3 4 -16 3 -23 12 -23
28 0 17 7 25 23 28 l22 4 -23 2 c-12 0 -25 -5 -28 -13z"/>
<path d="M9050 6536 c-27 -33 18 -72 48 -42 13 13 14 20 6 34 -15 23 -38 26
-54 8z m48 -19 c4 -20 -25 -34 -40 -19 -15 15 -1 44 19 40 10 -2 19 -11 21
-21z"/>
<path d="M9131 6513 c2 -35 2 -35 6 -8 3 16 10 33 16 37 8 5 6 8 -5 8 -14 0
-18 -8 -17 -37z"/>
<path d="M9180 6535 c-18 -22 -1 -49 31 -52 19 -1 20 -1 4 4 -34 9 -41 23 -11
23 21 0 27 4 24 17 -4 24 -32 28 -48 8z m40 -5 c0 -5 -9 -10 -21 -10 -11 0
-17 5 -14 10 3 6 13 10 21 10 8 0 14 -4 14 -10z"/>
<path d="M12011 6496 c1 -31 4 -43 7 -31 4 11 16 20 26 20 11 0 21 7 23 15 4
12 3 13 -5 1 -12 -17 -42 -7 -42 14 0 21 30 31 42 14 8 -12 9 -11 5 1 -2 8
-16 15 -30 16 -26 1 -27 -1 -26 -50z"/>
<path d="M12143 6515 c0 -22 2 -30 4 -17 2 12 2 30 0 40 -3 9 -5 -1 -4 -23z"/>
<path d="M12183 6515 c0 -22 2 -30 4 -17 2 12 2 30 0 40 -3 9 -5 -1 -4 -23z"/>
<path d="M12207 6543 c6 -4 13 -22 16 -38 4 -27 5 -27 3 4 0 21 -7 36 -16 38
-10 3 -11 2 -3 -4z"/>
<path d="M12247 6543 c6 -4 13 -22 16 -38 4 -27 5 -27 3 4 0 21 -7 36 -16 38
-10 3 -11 2 -3 -4z"/>
<path d="M12303 6515 c0 -22 2 -30 4 -17 2 12 2 30 0 40 -3 9 -5 -1 -4 -23z"/>
<path d="M12338 6543 c20 -4 21 -7 10 -21 -12 -15 -11 -16 5 -3 25 20 21 31
-10 30 -25 -2 -25 -2 -5 -6z"/>
<path d="M12413 6544 c23 -7 22 -20 -3 -27 -30 -8 -25 -37 6 -37 23 0 25 3 22
32 -2 24 -8 33 -23 35 -16 1 -16 1 -2 -3z m17 -44 c0 -5 -7 -10 -15 -10 -8 0
-15 5 -15 10 0 6 7 10 15 10 8 0 15 -4 15 -10z"/>
<path d="M12513 6515 c0 -22 2 -30 4 -17 2 12 2 30 0 40 -3 9 -5 -1 -4 -23z"/>
<path d="M12550 6536 c-27 -33 18 -72 48 -42 13 13 14 20 6 34 -15 23 -38 26
-54 8z m48 -19 c4 -20 -25 -34 -40 -19 -15 15 -1 44 19 40 10 -2 19 -11 21
-21z"/>
<path d="M12633 6515 c0 -22 2 -30 4 -17 2 12 2 30 0 40 -3 9 -5 -1 -4 -23z"/>
<path d="M12650 6546 c0 -2 7 -6 15 -10 8 -3 15 -1 15 4 0 6 -7 10 -15 10 -8
0 -15 -2 -15 -4z"/>
<path d="M12826 6541 c-4 -5 3 -7 14 -4 23 6 26 13 6 13 -8 0 -17 -4 -20 -9z"/>
<path d="M12884 6536 c-14 -37 22 -74 47 -49 6 6 1 9 -13 9 -14 -1 -24 6 -26
17 -4 22 27 35 40 16 8 -12 9 -11 5 1 -5 20 -46 25 -53 6z"/>
<path d="M12971 6513 c2 -35 2 -35 6 -8 3 16 10 33 16 37 8 5 6 8 -5 8 -14 0
-18 -8 -17 -37z"/>
<path d="M13020 6535 c-18 -22 -1 -49 31 -52 19 -1 20 -1 4 4 -34 9 -41 23
-11 23 21 0 27 4 24 17 -4 24 -32 28 -48 8z m40 -5 c0 -5 -9 -10 -21 -10 -11
0 -17 5 -14 10 3 6 13 10 21 10 8 0 14 -4 14 -10z"/>
<path d="M4750 6529 c0 -6 -9 -9 -20 -6 -13 3 -21 -1 -26 -15 -3 -11 -3 -22 0
-25 3 -4 6 1 6 10 0 23 39 22 56 0 12 -16 12 -13 3 15 -11 32 -19 41 -19 21z"/>
<path d="M1203 6517 c21 -17 21 -24 2 -30 -12 -4 -11 -5 1 -3 27 2 28 23 2 36
-21 10 -21 10 -5 -3z"/>
<path d="M8246 6493 c-6 -14 -5 -15 5 -6 7 7 10 15 7 18 -3 3 -9 -2 -12 -12z"/>
<path d="M12324 6489 c-3 -5 6 -9 20 -9 31 0 34 6 6 13 -11 3 -23 1 -26 -4z"/>
<path d="M12828 6488 c5 -5 16 -8 23 -6 8 3 3 7 -10 11 -17 4 -21 3 -13 -5z"/>
<path d="M653 6323 c-41 -21 -47 -57 -8 -47 l25 6 0 -76 c0 -69 2 -76 20 -76
19 0 20 7 20 105 0 115 -1 116 -57 88z"/>
<path d="M888 6329 c-34 -19 -21 -38 22 -32 36 5 40 4 40 -17 0 -14 -17 -39
-45 -64 -27 -25 -45 -51 -45 -64 0 -21 5 -22 71 -22 62 0 70 2 67 18 -2 12
-16 18 -48 22 l-45 5 37 28 c56 43 67 100 24 129 -16 11 -58 9 -78 -3z"/>
<path d="M1061 6321 c-44 -44 -37 -153 11 -180 41 -23 80 -6 97 45 26 74 -7
154 -64 154 -14 0 -34 -9 -44 -19z m74 -86 c0 -50 -21 -80 -45 -65 -20 13 -20
118 1 130 23 15 44 -16 44 -65z"/>
<path d="M1232 6320 c-45 -42 -37 -159 13 -182 62 -28 111 28 102 116 -7 78
-66 112 -115 66z m74 -56 c11 -61 -14 -116 -43 -92 -16 13 -17 110 -2 125 18
18 38 4 45 -33z"/>
<path d="M4403 6333 c-7 -2 -13 -11 -13 -19 0 -10 7 -13 23 -9 15 4 28 1 36
-9 19 -22 6 -46 -24 -46 -35 0 -32 -27 5 -35 20 -4 30 -13 30 -25 0 -22 -23
-32 -56 -24 -17 4 -24 2 -24 -9 0 -32 65 -36 104 -6 31 24 33 42 7 68 -17 17
-18 21 -5 32 47 39 -21 107 -83 82z"/>
<path d="M4560 6280 c0 -45 3 -58 13 -54 20 7 67 -14 67 -30 0 -22 -35 -38
-65 -30 -18 4 -25 2 -25 -9 0 -32 65 -36 104 -6 50 39 23 109 -42 109 -17 0
-23 5 -20 18 2 12 14 18 41 20 29 3 37 7 37 23 0 16 -7 19 -55 19 l-55 0 0
-60z"/>
<path d="M4758 6269 c-27 -39 -48 -77 -48 -85 0 -10 13 -14 45 -14 38 0 45 -3
45 -20 0 -13 7 -20 20 -20 13 0 20 7 20 20 0 11 7 20 15 20 8 0 15 7 15 15 0
8 -7 15 -15 15 -12 0 -15 14 -15 70 0 94 -19 94 -82 -1z m39 -66 c-3 -2 -15
-3 -26 -1 -20 3 -20 3 2 38 l22 35 3 -33 c2 -19 1 -36 -1 -39z"/>
<path d="M8172 6324 c-24 -16 -29 -53 -10 -72 9 -9 8 -16 -5 -30 -23 -26 -21
-58 5 -76 49 -34 118 -8 118 44 0 17 -7 33 -17 39 -17 9 -17 10 0 28 22 25 22
38 -3 63 -24 24 -57 26 -88 4z m64 -29 c8 -20 -13 -45 -32 -38 -14 5 -19 34
-7 46 11 12 33 7 39 -8z m2 -99 c5 -25 -12 -39 -37 -31 -20 6 -28 34 -14 49
13 13 48 1 51 -18z"/>
<path d="M8435 6317 c-23 -19 -29 -34 -33 -80 -4 -50 -2 -58 21 -81 15 -14 38
-26 52 -26 55 0 87 77 47 113 -22 20 -53 22 -70 5 -9 -9 -12 -8 -12 5 0 29 39
60 67 52 20 -5 24 -2 21 12 -5 29 -60 29 -93 0z m49 -93 c20 -8 21 -38 1 -54
-12 -10 -18 -10 -30 0 -18 15 -20 46 -2 53 6 3 13 6 14 6 1 1 8 -2 17 -5z"/>
<path d="M8321 6166 c-9 -10 -8 -16 4 -26 21 -17 51 6 34 26 -6 8 -15 14 -19
14 -4 0 -13 -6 -19 -14z"/>
<path d="M787 6153 c-2 -5 -7 -20 -11 -35 -5 -21 -3 -28 9 -28 14 0 35 37 35
61 0 11 -27 12 -33 2z"/>
<path d="M4544 5912 c11 -5 23 -17 28 -28 6 -16 7 -15 5 6 -1 19 -8 26 -27 27
-21 2 -22 1 -6 -5z"/>
<path d="M8314 5912 c11 -5 23 -17 28 -28 6 -16 7 -15 5 6 -1 19 -8 26 -27 27
-21 2 -22 1 -6 -5z"/>
<path d="M12074 5912 c11 -5 23 -17 28 -28 6 -16 7 -15 5 6 -1 19 -8 26 -27
27 -21 2 -22 1 -6 -5z"/>
<path d="M4529 5873 l-24 -28 28 24 c25 23 32 31 24 31 -2 0 -14 -12 -28 -27z"/>
<path d="M4828 5893 c7 -3 16 -2 19 1 4 3 -2 6 -13 5 -11 0 -14 -3 -6 -6z"/>
<path d="M8299 5873 l-24 -28 28 24 c15 14 27 26 27 28 0 8 -8 1 -31 -24z"/>
<path d="M12059 5873 l-24 -28 28 24 c15 14 27 26 27 28 0 8 -8 1 -31 -24z"/>
<path d="M4464 5868 l-19 -23 23 19 c12 11 22 21 22 23 0 8 -8 2 -26 -19z"/>
<path d="M8234 5868 l-19 -23 23 19 c21 18 27 26 19 26 -2 0 -12 -10 -23 -22z"/>
<path d="M11994 5868 l-19 -23 23 19 c21 18 27 26 19 26 -2 0 -12 -10 -23 -22z"/>
<path d="M814 5872 c11 -5 23 -17 28 -28 6 -16 7 -15 5 6 -1 19 -8 26 -27 27
-21 2 -22 1 -6 -5z"/>
<path d="M808 5843 c-14 -14 -20 -14 -33 -3 -14 11 -19 10 -38 -10 -19 -21
-19 -22 -1 -7 18 15 22 15 35 2 13 -14 18 -13 39 10 26 28 24 35 -2 8z"/>
<path d="M998 5853 c7 -3 16 -2 19 1 4 3 -2 6 -13 5 -11 0 -14 -3 -6 -6z"/>
<path d="M1078 5853 c7 -3 16 -2 19 1 4 3 -2 6 -13 5 -11 0 -14 -3 -6 -6z"/>
<path d="M4828 5853 c7 -3 16 -2 19 1 4 3 -2 6 -13 5 -11 0 -14 -3 -6 -6z"/>
<path d="M8513 5823 c9 -2 23 -2 30 0 6 3 -1 5 -18 5 -16 0 -22 -2 -12 -5z"/>
<path d="M4643 5803 c9 -2 23 -2 30 0 6 3 -1 5 -18 5 -16 0 -22 -2 -12 -5z"/>
<path d="M4718 5803 c7 -3 16 -2 19 1 4 3 -2 6 -13 5 -11 0 -14 -3 -6 -6z"/>
<path d="M12283 5803 c9 -2 23 -2 30 0 6 3 -1 5 -18 5 -16 0 -22 -2 -12 -5z"/>
<path d="M998 5763 c6 -2 18 -2 25 0 6 3 1 5 -13 5 -14 0 -19 -2 -12 -5z"/>
<path d="M1068 5763 c7 -3 16 -2 19 1 4 3 -2 6 -13 5 -11 0 -14 -3 -6 -6z"/>
<path d="M1178 5763 c6 -2 18 -2 25 0 6 3 1 5 -13 5 -14 0 -19 -2 -12 -5z"/>
<path d="M870 4461 c0 -25 -3 -28 -25 -24 -19 4 -27 0 -36 -20 -17 -38 2 -67
46 -65 l35 1 0 69 c0 39 -4 68 -10 68 -5 0 -10 -13 -10 -29z m0 -66 c0 -18 -5
-25 -19 -25 -11 0 -23 5 -26 10 -11 18 3 40 25 40 15 0 20 -7 20 -25z"/>
<path d="M1990 4461 c0 -25 -3 -28 -25 -24 -19 4 -27 0 -36 -20 -17 -38 2 -67
46 -65 l35 1 0 69 c0 39 -4 68 -10 68 -5 0 -10 -13 -10 -29z m0 -66 c0 -18 -5
-25 -19 -25 -11 0 -23 5 -26 10 -11 18 3 40 25 40 15 0 20 -7 20 -25z"/>
<path d="M440 4415 l0 -66 31 3 c37 3 56 27 44 54 -4 11 -8 30 -9 44 -1 21 -7
26 -33 28 l-33 3 0 -66z m50 30 c0 -8 -7 -15 -15 -15 -8 0 -15 7 -15 15 0 8 7
15 15 15 8 0 15 -7 15 -15z m5 -55 c0 -8 -8 -16 -17 -18 -13 -2 -18 3 -18 18
0 15 5 20 18 18 9 -2 17 -10 17 -18z"/>
<path d="M970 4415 c0 -37 4 -65 10 -65 6 0 10 28 10 65 0 37 -4 65 -10 65 -6
0 -10 -28 -10 -65z"/>
<path d="M1570 4470 c0 -5 7 -10 15 -10 12 0 15 -13 15 -55 0 -30 5 -55 10
-55 6 0 10 25 10 55 0 48 2 55 20 55 11 0 20 5 20 10 0 6 -20 10 -45 10 -25 0
-45 -4 -45 -10z"/>
<path d="M1468 4451 c-10 -12 -13 -23 -8 -26 6 -4 10 -20 10 -36 0 -29 23 -50
38 -34 4 4 1 10 -5 12 -7 3 -13 15 -13 28 0 13 6 26 13 28 8 4 9 8 1 14 -6 4
-13 14 -15 21 -3 9 -9 7 -21 -7z"/>
<path d="M540 4394 c0 -24 5 -44 10 -44 6 0 10 14 10 30 0 18 6 33 15 36 23 9
18 22 -10 22 -23 0 -25 -4 -25 -44z"/>
<path d="M615 4430 c-4 -6 6 -10 22 -10 l28 -1 -32 -14 c-18 -8 -33 -18 -33
-22 1 -20 18 -32 48 -31 29 1 32 4 32 33 0 17 -5 36 -12 43 -15 15 -45 16 -53
2z m45 -40 c0 -13 -28 -25 -38 -16 -3 4 0 11 8 16 20 13 30 12 30 0z"/>
<path d="M700 4394 c0 -51 17 -60 22 -12 2 22 9 34 21 36 14 3 17 -4 17 -32 0
-20 5 -36 11 -36 6 0 9 17 7 43 -3 41 -4 42 -40 43 l-38 1 0 -43z"/>
<path d="M1020 4394 c0 -24 5 -44 10 -44 6 0 10 16 10 36 0 28 3 35 18 32 11
-2 18 -14 20 -36 4 -43 22 -41 22 3 0 24 5 35 15 35 10 0 15 -11 15 -35 0 -19
5 -35 11 -35 6 0 9 17 7 43 l-3 42 -62 1 -63 1 0 -43z"/>
<path d="M1180 4374 c0 -36 4 -64 10 -64 6 0 10 12 10 26 0 14 4 23 10 19 6
-3 19 -3 31 0 16 5 20 14 17 43 -3 35 -5 37 -40 39 l-38 1 0 -64z m64 37 c10
-16 -5 -41 -25 -41 -14 0 -19 7 -19 25 0 18 5 25 19 25 11 0 22 -4 25 -9z"/>
<path d="M1290 4431 c0 -6 10 -11 23 -12 20 0 19 -2 -6 -11 -21 -7 -27 -16
-25 -32 2 -16 11 -21 36 -23 33 -1 33 -1 30 40 -3 37 -6 42 -30 45 -16 2 -28
-1 -28 -7z m40 -46 c0 -8 -7 -15 -15 -15 -26 0 -18 20 13 29 1 1 2 -6 2 -14z"/>
<path d="M1394 4432 c-36 -23 -17 -82 27 -82 27 0 24 18 -3 22 -15 2 -23 10
-23 23 0 13 8 21 23 23 12 2 22 8 22 13 0 11 -30 12 -46 1z"/>
<path d="M1660 4394 c0 -24 5 -44 10 -44 6 0 10 14 10 30 0 18 6 33 15 36 23
9 18 22 -10 22 -23 0 -25 -4 -25 -44z"/>
<path d="M1736 4425 c-19 -19 -20 -29 -6 -56 6 -11 21 -19 35 -19 34 0 41 18
8 22 -39 4 -42 28 -3 28 25 0 31 4 28 18 -4 23 -41 27 -62 7z m37 -12 c-7 -2
-19 -2 -25 0 -7 3 -2 5 12 5 14 0 19 -2 13 -5z"/>
<path d="M1820 4394 c0 -51 17 -60 22 -12 2 22 9 34 21 36 14 3 17 -4 17 -32
0 -20 5 -36 11 -36 6 0 9 17 7 43 -3 41 -4 42 -40 43 l-38 1 0 -43z"/>
<path d="M433 4214 c-4 -10 4 -24 23 -39 22 -18 25 -25 14 -28 -8 -3 -22 -8
-30 -10 -10 -4 -8 -6 6 -6 33 -1 49 23 29 43 -9 9 -21 16 -26 16 -19 0 -8 29
14 33 l22 4 -23 2 c-12 0 -25 -6 -29 -15z"/>
<path d="M692 4180 c0 -41 2 -47 7 -25 9 43 38 45 44 3 l5 -33 -2 35 c-1 28
-5 35 -21 35 -11 0 -23 9 -27 20 -3 11 -6 -4 -6 -35z"/>
<path d="M3433 4180 c0 -30 2 -43 4 -27 2 15 2 39 0 55 -2 15 -4 2 -4 -28z"/>
<path d="M3463 4180 c0 -30 2 -43 4 -27 2 15 2 39 0 55 -2 15 -4 2 -4 -28z"/>
<path d="M3531 4185 c-1 -47 1 -51 24 -53 13 -1 26 2 29 6 3 5 -5 8 -17 8 -16
-1 -22 5 -22 19 0 14 6 20 22 19 12 0 19 4 16 9 -3 5 -14 7 -24 4 -12 -3 -19
2 -22 17 -2 11 -5 -2 -6 -29z"/>
<path d="M3863 4180 c0 -30 2 -43 4 -27 2 15 2 39 0 55 -2 15 -4 2 -4 -28z"/>
<path d="M4142 4215 c-4 -9 -18 -17 -30 -18 -18 -1 -22 -7 -21 -37 l1 -35 7
30 c9 43 39 45 44 3 l4 -33 1 33 c1 18 7 32 15 32 8 0 7 4 -3 10 -13 9 -13 11
0 20 9 6 10 10 3 10 -7 0 -16 -7 -21 -15z"/>
<path d="M1478 4210 c-5 -17 3 -80 11 -80 7 0 6 79 -2 86 -3 3 -7 0 -9 -6z"/>
<path d="M1848 4210 c-5 -17 3 -80 11 -80 7 0 6 79 -2 86 -3 3 -7 0 -9 -6z"/>
<path d="M516 4191 c-3 -5 3 -7 14 -4 11 3 20 1 20 -5 0 -6 -12 -13 -27 -15
-26 -4 -25 -4 5 -6 27 -1 33 2 30 16 -4 20 -33 29 -42 14z"/>
<path d="M584 4186 c-11 -28 1 -51 26 -53 22 -1 22 -1 3 4 -32 6 -29 21 5 26
l27 4 -27 2 c-16 0 -28 6 -28 12 0 6 9 9 20 6 11 -3 18 -1 14 4 -8 14 -34 11
-40 -5z"/>
<path d="M774 4186 c-11 -29 0 -51 26 -51 21 0 25 5 25 30 0 24 -5 31 -23 33
-13 2 -24 -3 -28 -12z m46 -21 c0 -18 -5 -25 -20 -25 -15 0 -20 7 -20 25 0 18
5 25 20 25 15 0 20 -7 20 -25z"/>
<path d="M887 4193 c-4 -3 -7 -11 -7 -17 0 -6 5 -5 12 2 6 6 9 14 7 17 -3 3
-9 2 -12 -2z"/>
<path d="M1035 4189 c-4 -6 -5 -12 -2 -15 2 -3 7 2 10 11 7 17 1 20 -8 4z"/>
<path d="M1064 4186 c-11 -29 0 -51 26 -51 21 0 25 5 25 30 0 24 -5 31 -23 33
-13 2 -24 -3 -28 -12z m46 -21 c0 -18 -5 -25 -20 -25 -15 0 -20 7 -20 25 0 18
5 25 20 25 15 0 20 -7 20 -25z"/>
<path d="M1143 4168 c2 -28 6 -33 30 -34 25 -1 27 2 26 35 -1 36 -1 36 -8 6
-9 -42 -38 -45 -45 -6 l-6 31 3 -32z"/>
<path d="M1221 4160 c1 -27 3 -29 6 -10 2 14 11 30 20 37 13 10 13 12 -6 10
-17 -1 -21 -7 -20 -37z"/>
<path d="M1316 4192 c-3 -5 5 -8 17 -8 16 1 22 -5 22 -19 0 -14 -6 -20 -22
-19 -12 0 -20 -3 -17 -8 17 -27 59 9 49 42 -6 20 -39 28 -49 12z"/>
<path d="M1391 4146 c1 -31 4 -43 7 -31 4 11 16 20 26 20 11 0 21 7 23 15 4
12 3 13 -5 1 -12 -17 -42 -7 -42 14 0 21 30 31 42 14 8 -12 9 -11 5 1 -2 8
-16 15 -30 16 -26 1 -27 -1 -26 -50z"/>
<path d="M1523 4165 c0 -22 2 -30 4 -17 2 12 2 30 0 40 -3 9 -5 -1 -4 -23z"/>
<path d="M1563 4165 c0 -22 2 -30 4 -17 2 12 2 30 0 40 -3 9 -5 -1 -4 -23z"/>
<path d="M1587 4193 c6 -4 13 -22 16 -38 4 -27 5 -27 3 4 0 21 -7 36 -16 38
-10 3 -11 2 -3 -4z"/>
<path d="M1627 4193 c6 -4 13 -22 16 -38 4 -27 5 -27 3 4 0 21 -7 36 -16 38
-10 3 -11 2 -3 -4z"/>
<path d="M1683 4165 c0 -22 2 -30 4 -17 2 12 2 30 0 40 -3 9 -5 -1 -4 -23z"/>
<path d="M1718 4193 c20 -4 21 -7 10 -21 -12 -15 -11 -16 5 -3 25 20 21 31
-10 30 -25 -2 -25 -2 -5 -6z"/>
<path d="M1793 4194 c23 -7 22 -20 -3 -27 -30 -8 -25 -37 6 -37 23 0 25 3 22
32 -2 24 -8 33 -23 35 -16 1 -16 1 -2 -3z m17 -44 c0 -5 -7 -10 -15 -10 -8 0
-15 5 -15 10 0 6 7 10 15 10 8 0 15 -4 15 -10z"/>
<path d="M1893 4165 c0 -22 2 -30 4 -17 2 12 2 30 0 40 -3 9 -5 -1 -4 -23z"/>
<path d="M1930 4186 c-27 -33 18 -72 48 -42 13 13 14 20 6 34 -15 23 -38 26
-54 8z m48 -19 c4 -20 -25 -34 -40 -19 -15 15 -1 44 19 40 10 -2 19 -11 21
-21z"/>
<path d="M2013 4165 c0 -22 2 -30 4 -17 2 12 2 30 0 40 -3 9 -5 -1 -4 -23z"/>
<path d="M2030 4196 c0 -2 7 -6 15 -10 8 -3 15 -1 15 4 0 6 -7 10 -15 10 -8 0
-15 -2 -15 -4z"/>
<path d="M2085 4190 c-8 -14 3 -30 21 -30 20 0 18 -18 -3 -23 -15 -3 -14 -4 1
-3 27 1 32 26 7 33 -26 7 -27 20 -3 26 15 4 15 5 0 6 -9 0 -20 -3 -23 -9z"/>
<path d="M2203 4194 c23 -7 22 -20 -3 -27 -30 -8 -25 -37 6 -37 23 0 25 3 22
32 -2 24 -8 33 -23 35 -16 1 -16 1 -2 -3z m17 -44 c0 -5 -7 -10 -15 -10 -8 0
-15 5 -15 10 0 6 7 10 15 10 8 0 15 -4 15 -10z"/>
<path d="M2261 4163 c2 -35 2 -35 6 -8 3 16 10 33 16 37 8 5 6 8 -5 8 -14 0
-18 -8 -17 -37z"/>
<path d="M2304 4186 c-11 -28 1 -51 26 -53 22 -1 22 -1 3 4 -31 6 -29 23 3 23
20 0 25 4 20 16 -3 9 -6 18 -6 20 0 11 -41 2 -46 -10z m41 -6 c3 -5 -3 -10
-14 -10 -12 0 -21 5 -21 10 0 6 6 10 14 10 8 0 18 -4 21 -10z"/>
<path d="M2423 4165 c0 -22 2 -30 4 -17 2 12 2 30 0 40 -3 9 -5 -1 -4 -23z"/>
<path d="M2451 4160 c1 -34 1 -35 8 -6 6 29 31 49 31 26 0 -10 3 -10 15 0 19
16 35 4 36 -28 0 -15 3 -21 6 -14 3 7 2 23 -1 36 -5 21 -11 24 -51 23 -45 -2
-45 -2 -44 -37z"/>
<path d="M2571 4146 c1 -31 4 -43 7 -31 4 11 16 20 26 20 11 0 21 7 23 15 4
12 3 13 -5 1 -12 -17 -42 -7 -42 14 0 21 30 31 42 14 8 -12 9 -11 5 1 -2 8
-16 15 -30 16 -26 1 -27 -1 -26 -50z"/>
<path d="M2651 4160 c1 -27 3 -29 6 -10 2 14 11 30 20 37 13 10 13 12 -6 10
-17 -1 -21 -7 -20 -37z"/>
<path d="M2704 4186 c-11 -29 0 -51 26 -51 21 0 25 5 25 30 0 24 -5 31 -23 33
-13 2 -24 -3 -28 -12z m46 -21 c0 -18 -5 -25 -20 -25 -15 0 -20 7 -20 25 0 18
5 25 20 25 15 0 20 -7 20 -25z"/>
<path d="M2853 4165 c0 -22 2 -30 4 -17 2 12 2 30 0 40 -3 9 -5 -1 -4 -23z"/>
<path d="M2881 4161 c1 -36 1 -36 8 -6 8 40 38 46 44 8 4 -28 4 -28 3 2 -1 26
-5 30 -28 31 -26 1 -28 -2 -27 -35z"/>
<path d="M2964 4186 c-9 -23 0 -51 16 -52 9 0 10 1 3 3 -20 7 -16 51 5 56 16
4 16 5 -1 6 -10 0 -20 -5 -23 -13z"/>
<path d="M3010 4160 c-4 -37 -9 -45 -30 -51 l-25 -7 28 -1 c32 -1 40 13 35 65
l-4 39 -4 -45z"/>
<path d="M3084 4186 c-14 -37 22 -74 47 -49 6 6 1 9 -13 9 -14 -1 -24 6 -26
17 -4 22 27 35 40 16 8 -12 9 -11 5 1 -5 20 -46 25 -53 6z"/>
<path d="M3205 4189 c-4 -6 -5 -12 -2 -15 2 -3 7 2 10 11 7 17 1 20 -8 4z"/>
<path d="M3234 4186 c-11 -28 1 -51 26 -53 22 -1 22 -1 3 4 -31 6 -29 23 3 23
20 0 25 4 20 16 -3 9 -6 18 -6 20 0 11 -41 2 -46 -10z m41 -6 c3 -5 -3 -10
-14 -10 -12 0 -21 5 -21 10 0 6 6 10 14 10 8 0 18 -4 21 -10z"/>
<path d="M3311 4163 c2 -35 2 -35 6 -8 3 16 10 33 16 37 8 5 6 8 -5 8 -14 0
-18 -8 -17 -37z"/>
<path d="M3360 4196 c0 -2 9 -6 20 -9 11 -3 20 -1 20 4 0 5 -9 9 -20 9 -11 0
-20 -2 -20 -4z"/>
<path d="M3621 4163 c2 -35 2 -35 6 -8 3 16 10 33 16 37 8 5 6 8 -5 8 -14 0
-18 -8 -17 -37z"/>
<path d="M3683 4194 c23 -7 22 -20 -3 -27 -30 -8 -25 -37 6 -37 23 0 25 3 22
32 -2 24 -8 33 -23 35 -16 1 -16 1 -2 -3z m17 -44 c0 -5 -7 -10 -15 -10 -8 0
-15 5 -15 10 0 6 7 10 15 10 8 0 15 -4 15 -10z"/>
<path d="M3743 4165 c0 -22 2 -30 4 -17 2 12 2 30 0 40 -3 9 -5 -1 -4 -23z"/>
<path d="M3767 4193 c6 -4 13 -22 16 -38 4 -27 5 -27 3 4 0 21 -7 36 -16 38
-10 3 -11 2 -3 -4z"/>
<path d="M3814 4186 c-9 -23 0 -51 16 -52 9 0 10 1 3 3 -20 7 -16 51 5 56 16
4 16 5 -1 6 -10 0 -20 -5 -23 -13z"/>
<path d="M3943 4150 c0 -30 1 -47 4 -37 2 9 10 17 18 17 20 0 37 27 30 50 -3
11 -14 20 -23 20 -13 0 -13 -2 3 -14 21 -15 15 -46 -9 -46 -9 0 -16 12 -19 33
-2 18 -4 8 -4 -23z"/>
<path d="M4026 4191 c-3 -5 3 -7 14 -4 11 3 20 1 20 -5 0 -6 -12 -13 -27 -15
-26 -4 -25 -4 5 -6 27 -1 33 2 30 16 -4 20 -33 29 -42 14z"/>
<path d="M4184 4186 c-14 -37 22 -74 47 -49 6 6 1 9 -13 9 -14 -1 -24 6 -26
17 -4 22 27 35 40 16 8 -12 9 -11 5 1 -5 20 -46 25 -53 6z"/>
<path d="M4271 4163 c2 -35 2 -35 6 -8 3 16 10 33 16 37 8 5 6 8 -5 8 -14 0
-18 -8 -17 -37z"/>
<path d="M4311 4161 c1 -27 3 -30 6 -11 7 35 19 46 38 30 10 -8 15 -9 15 -1 0
6 6 11 14 11 9 0 17 -13 19 -32 l5 -33 -2 35 c-1 35 -1 35 -48 36 l-48 1 1
-36z"/>
<path d="M4453 4194 c23 -7 22 -20 -3 -27 -30 -8 -25 -37 6 -37 23 0 25 3 22
32 -2 24 -8 33 -23 35 -16 1 -16 1 -2 -3z m17 -44 c0 -5 -7 -10 -15 -10 -8 0
-15 5 -15 10 0 6 7 10 15 10 8 0 15 -4 15 -10z"/>
<path d="M4513 4165 c0 -22 2 -30 4 -17 2 12 2 30 0 40 -3 9 -5 -1 -4 -23z"/>
<path d="M4537 4193 c6 -4 13 -22 16 -38 4 -27 5 -27 3 4 0 21 -7 36 -16 38
-10 3 -11 2 -3 -4z"/>
<path d="M4589 4184 c-16 -19 -1 -48 27 -51 15 -2 14 -1 -3 7 -13 5 -23 16
-23 25 0 9 10 20 23 25 15 6 17 9 6 9 -9 1 -22 -6 -30 -15z"/>
<path d="M4656 4191 c-3 -5 3 -7 14 -4 11 3 20 1 20 -5 0 -6 -12 -13 -27 -15
-26 -4 -25 -4 5 -6 27 -1 33 2 30 16 -4 20 -33 29 -42 14z"/>
<path d="M851 4180 c1 -24 15 -55 21 -44 2 5 -1 20 -8 34 -8 14 -13 18 -13 10z"/>
<path d="M990 4188 c0 -4 5 -18 11 -32 10 -20 9 -29 -2 -43 -13 -16 -12 -17 2
-5 9 7 19 22 22 33 3 12 3 18 -1 15 -3 -4 -12 4 -19 16 -7 13 -12 20 -13 16z"/>
<path d="M2816 4175 c-9 -26 -7 -32 5 -12 6 10 9 21 6 23 -2 3 -7 -2 -11 -11z"/>
<path d="M920 4164 c0 -16 -2 -17 -10 -4 -5 8 -10 11 -10 5 0 -5 4 -16 9 -24
7 -11 10 -9 16 8 4 13 4 25 1 28 -3 4 -6 -2 -6 -13z"/>
<path d="M3355 4160 c-3 -5 -3 -14 0 -20 8 -12 32 -13 39 -1 4 5 -3 7 -14 4
-11 -3 -20 -1 -20 5 0 6 10 13 23 15 22 4 22 4 0 6 -12 0 -25 -3 -28 -9z"/>
<path d="M2790 4151 c0 -6 4 -13 10 -16 6 -3 7 1 4 9 -7 18 -14 21 -14 7z"/>
<path d="M3186 4143 c-6 -14 -5 -15 5 -6 7 7 10 15 7 18 -3 3 -9 -2 -12 -12z"/>
<path d="M518 4138 c6 -6 18 -8 28 -6 14 3 12 5 -9 10 -19 3 -25 2 -19 -4z"/>
<path d="M1704 4139 c-3 -5 6 -9 20 -9 31 0 34 6 6 13 -11 3 -23 1 -26 -4z"/>
<path d="M4028 4138 c6 -6 18 -8 28 -6 14 3 12 5 -9 10 -19 3 -25 2 -19 -4z"/>
<path d="M4658 4138 c6 -6 18 -8 28 -6 14 3 12 5 -9 10 -19 3 -25 2 -19 -4z"/>
<path d="M12456 3934 c-9 -8 -16 -24 -16 -34 0 -20 25 -50 41 -50 26 0 49 23
49 48 0 49 -42 69 -74 36z m58 -16 c13 -21 -2 -51 -27 -56 -23 -5 -40 33 -27
59 13 23 38 22 54 -3z"/>
<path d="M12823 3900 c0 -30 2 -43 4 -27 2 15 2 39 0 55 -2 15 -4 2 -4 -28z"/>
<path d="M12863 3900 c0 -30 2 -43 4 -27 2 15 2 39 0 55 -2 15 -4 2 -4 -28z"/>
<path d="M12942 3938 c-7 -7 -12 -24 -12 -38 0 -52 48 -68 76 -25 15 23 15 27
0 50 -18 27 -45 32 -64 13z m42 -4 c21 -8 21 -60 0 -68 -34 -13 -59 35 -32 62
14 14 12 14 32 6z"/>
<path d="M13807 3943 c-14 -13 -6 -42 13 -48 26 -8 25 -23 -2 -35 l-23 -9 23
0 c33 -1 40 28 13 50 -23 19 -20 44 5 35 8 -3 14 -1 14 4 0 11 -33 14 -43 3z"/>
<path d="M14314 3925 c-15 -23 -15 -27 0 -50 10 -15 25 -25 39 -24 20 0 19 2
-5 11 -22 7 -28 16 -28 38 0 22 6 31 28 38 24 9 25 11 5 11 -14 1 -29 -9 -39
-24z"/>
<path d="M15061 3898 c1 -29 4 -43 6 -30 5 27 19 28 35 2 7 -11 17 -20 22 -20
4 0 1 11 -7 24 -11 16 -13 26 -5 34 17 17 1 42 -27 42 -24 0 -25 -3 -24 -52z
m44 22 c0 -8 -8 -16 -17 -18 -13 -2 -18 3 -18 18 0 15 5 20 18 18 9 -2 17 -10
17 -18z"/>
<path d="M13122 3923 c-8 -8 -9 -13 -2 -13 5 0 10 -13 10 -30 0 -16 4 -30 9
-30 4 0 6 12 3 26 -2 14 0 29 6 33 6 4 6 10 -2 17 -9 8 -15 7 -24 -3z"/>
<path d="M13508 3928 c-6 -19 5 -71 17 -75 13 -4 11 65 -2 78 -7 7 -12 6 -15
-3z"/>
<path d="M15218 3928 c-6 -19 5 -71 17 -75 13 -4 11 65 -2 78 -7 7 -12 6 -15
-3z"/>
<path d="M12552 3889 c16 -38 28 -38 44 0 7 17 9 31 5 31 -5 0 -12 -12 -16
-27 l-8 -28 -10 28 c-6 15 -15 27 -19 27 -4 0 -2 -14 4 -31z"/>
<path d="M12624 3906 c-11 -28 1 -51 26 -53 l25 -3 -25 12 -25 12 28 4 c29 4
33 12 15 30 -16 16 -37 15 -44 -2z m36 -6 c0 -5 -7 -10 -16 -10 -8 0 -12 5 -9
10 3 6 10 10 16 10 5 0 9 -4 9 -10z"/>
<path d="M12703 3885 c0 -22 2 -30 4 -17 2 12 2 30 0 40 -3 9 -5 -1 -4 -23z"/>
<path d="M12763 3914 c23 -7 22 -21 -4 -29 -21 -7 -22 -26 -1 -33 7 -2 10 2 6
12 -3 9 -1 16 5 16 6 0 11 -7 11 -15 0 -8 5 -15 11 -15 6 0 9 14 7 33 -2 26
-8 32 -28 34 -14 1 -18 0 -7 -3z"/>
<path d="M13041 3866 c1 -31 4 -43 7 -31 4 11 16 20 27 20 16 0 20 7 20 30 0
26 -4 30 -27 31 -27 1 -28 -1 -27 -50z m46 28 c8 -21 -13 -42 -28 -27 -13 13
-5 43 11 43 6 0 13 -7 17 -16z"/>
<path d="M13170 3885 c0 -19 5 -35 10 -35 6 0 10 16 10 35 0 19 -4 35 -10 35
-5 0 -10 -16 -10 -35z"/>
<path d="M13211 3881 c1 -35 2 -35 8 -7 9 41 31 46 31 7 0 -17 5 -31 11 -31 6
0 9 14 7 33 -3 27 -7 32 -30 33 -26 1 -28 -2 -27 -35z"/>
<path d="M13287 3909 c6 -8 13 -25 16 -39 4 -17 5 -15 4 9 -1 21 -8 36 -17 39
-12 4 -13 2 -3 -9z"/>
<path d="M13330 3885 c0 -19 5 -35 10 -35 6 0 10 16 10 35 0 19 -4 35 -10 35
-5 0 -10 -16 -10 -35z"/>
<path d="M13380 3911 c17 -5 21 -9 12 -14 -6 -5 -17 -17 -22 -28 -10 -17 -7
-19 22 -18 28 1 29 2 10 7 -21 6 -22 9 -8 27 22 29 20 35 -11 34 l-28 -1 25
-7z"/>
<path d="M13453 3914 c23 -7 22 -20 -3 -27 -25 -6 -27 -37 -2 -36 10 0 12 3 5
6 -18 7 -16 23 1 23 8 0 17 -8 20 -17 2 -10 4 -2 3 17 -2 27 -7 35 -22 37 -16
1 -16 1 -2 -3z"/>
<path d="M13563 3885 c0 -22 2 -30 4 -17 2 12 2 30 0 40 -3 9 -5 -1 -4 -23z"/>
<path d="M13603 3913 c-7 -2 -13 -15 -13 -28 0 -31 36 -43 58 -21 27 27 -8 65
-45 49z m35 -31 c2 -14 -2 -22 -12 -22 -19 0 -29 17 -22 36 8 22 30 12 34 -14z"/>
<path d="M13681 3880 c1 -34 1 -34 8 -6 9 41 31 46 31 7 0 -17 5 -31 10 -31
12 0 13 40 2 57 -4 7 -18 11 -30 10 -18 -1 -22 -7 -21 -37z"/>
<path d="M13882 3911 c-23 -14 -10 -56 18 -58 25 -3 25 -3 3 7 -13 5 -23 16
-23 25 0 9 10 20 23 25 12 5 15 9 7 9 -8 0 -21 -3 -28 -8z"/>
<path d="M13944 3906 c-10 -25 0 -51 20 -54 27 -6 48 25 35 49 -12 22 -47 25
-55 5z m43 -12 c8 -21 -13 -42 -28 -27 -13 13 -5 43 11 43 6 0 13 -7 17 -16z"/>
<path d="M14020 3885 c0 -19 5 -35 10 -35 6 0 10 16 10 35 0 19 -4 35 -10 35
-5 0 -10 -16 -10 -35z"/>
<path d="M14082 3911 c-23 -14 -10 -56 18 -58 l25 -3 -25 12 -25 12 28 4 c21
2 27 8 23 19 -3 8 -6 17 -6 19 0 7 -24 4 -38 -5z m33 -11 c3 -5 -3 -10 -15
-10 -12 0 -18 5 -15 10 3 6 10 10 15 10 5 0 12 -4 15 -10z"/>
<path d="M14400 3906 c-27 -33 18 -72 48 -42 13 13 14 20 6 34 -15 23 -38 26
-54 8z m48 -19 c4 -21 -27 -35 -38 -17 -12 19 0 42 19 38 9 -2 17 -11 19 -21z"/>
<path d="M14481 3880 c1 -34 1 -34 8 -6 9 41 31 46 31 7 0 -17 5 -31 10 -31
12 0 13 40 2 57 -4 7 -18 11 -30 10 -18 -1 -22 -7 -21 -37z"/>
<path d="M14562 3889 c16 -38 28 -38 44 0 7 17 9 31 5 31 -5 0 -12 -12 -16
-27 l-8 -28 -10 28 c-6 15 -15 27 -19 27 -4 0 -2 -14 4 -31z"/>
<path d="M14634 3906 c-11 -28 1 -51 26 -53 l25 -3 -25 12 -25 12 28 4 c29 4
33 12 15 30 -16 16 -37 15 -44 -2z m36 -6 c0 -5 -7 -10 -16 -10 -8 0 -12 5 -9
10 3 6 10 10 16 10 5 0 9 -4 9 -10z"/>
<path d="M14713 3885 c0 -22 2 -30 4 -17 2 12 2 30 0 40 -3 9 -5 -1 -4 -23z"/>
<path d="M14754 3909 c-4 -7 3 -20 16 -29 22 -17 23 -18 4 -23 -15 -4 -16 -5
-2 -6 24 -2 34 20 15 34 -22 16 -21 22 1 28 13 4 12 5 -5 6 -12 0 -25 -4 -29
-10z"/>
<path d="M14823 3885 c0 -22 2 -30 4 -17 2 12 2 30 0 40 -3 9 -5 -1 -4 -23z"/>
<path d="M14860 3906 c-27 -33 18 -72 48 -42 13 13 14 20 6 34 -15 23 -38 26
-54 8z m48 -19 c4 -21 -27 -35 -38 -17 -12 19 0 42 19 38 9 -2 17 -11 19 -21z"/>
<path d="M14941 3880 c1 -34 1 -34 8 -6 9 41 31 46 31 7 0 -17 5 -31 10 -31
12 0 13 40 2 57 -4 7 -18 11 -30 10 -18 -1 -22 -7 -21 -37z"/>
<path d="M15163 3914 c23 -7 22 -21 -4 -29 -21 -7 -22 -26 -1 -33 7 -2 10 2 6
12 -3 9 -1 16 5 16 6 0 11 -7 11 -15 0 -8 5 -15 11 -15 6 0 9 14 7 33 -2 26
-8 32 -28 34 -14 1 -18 0 -7 -3z"/>
<path d="M15270 3905 c-16 -19 -3 -49 21 -51 9 -1 10 0 2 3 -21 7 -15 23 8 23
14 0 19 5 17 17 -4 24 -32 28 -48 8z m40 -5 c0 -5 -7 -10 -15 -10 -8 0 -15 5
-15 10 0 6 7 10 15 10 8 0 15 -4 15 -10z"/>
<path d="M12457 3522 c-36 -40 -9 -102 45 -102 51 0 78 69 40 103 -24 22 -65
21 -85 -1z"/>
<path d="M12612 3518 c-7 -7 -12 -21 -12 -33 0 -46 53 -62 71 -21 21 45 -26
87 -59 54z m53 -17 c9 -29 -5 -52 -29 -49 -37 5 -34 68 3 68 11 0 22 -8 26
-19z"/>
<path d="M12953 3485 c0 -27 2 -38 4 -22 2 15 2 37 0 50 -2 12 -4 0 -4 -28z"/>
<path d="M13019 3509 c-8 -16 -8 -28 0 -45 18 -41 71 -25 71 21 0 44 -50 61
-71 24z m56 -24 c0 -23 -5 -31 -21 -33 -24 -3 -38 20 -28 50 4 13 13 18 27 16
17 -2 22 -10 22 -33z"/>
<path d="M13488 3520 c-5 -17 3 -80 11 -80 7 0 6 79 -2 86 -3 3 -7 0 -9 -6z"/>
<path d="M13721 3516 c-12 -15 -2 -27 33 -40 15 -5 17 -9 7 -19 -9 -9 -17 -8
-34 2 -20 13 -21 13 -8 -2 16 -20 35 -22 49 -4 14 16 3 32 -27 42 -17 5 -20
10 -12 18 9 9 17 8 34 -2 20 -13 21 -13 8 2 -16 21 -35 22 -50 3z"/>
<path d="M14307 3523 c-4 -3 -7 -13 -7 -22 0 -12 3 -11 14 4 8 11 19 16 30 12
10 -4 15 -3 11 3 -7 11 -38 13 -48 3z"/>
<path d="M14941 3483 c1 -27 4 -38 6 -25 2 12 10 22 17 22 8 0 21 -10 30 -22
l17 -23 -11 23 c-6 12 -9 26 -6 31 3 4 -6 6 -19 3 -19 -3 -25 0 -25 13 0 13 6
16 25 13 14 -3 25 -1 25 3 0 5 -13 9 -30 9 -29 0 -30 -1 -29 -47z"/>
<path d="M15088 3520 c-5 -17 3 -80 11 -80 7 0 6 79 -2 86 -3 3 -7 0 -9 -6z"/>
<path d="M12690 3503 c0 -6 5 -24 11 -40 l11 -28 15 34 c8 18 12 36 9 38 -3 3
-8 -8 -12 -23 l-7 -29 -13 30 c-7 17 -13 25 -14 18z"/>
<path d="M12756 3492 c-12 -37 21 -72 39 -42 3 5 0 7 -8 4 -8 -3 -18 -1 -22 5
-3 7 3 11 15 11 15 0 20 5 18 17 -5 25 -35 28 -42 5z m34 -2 c0 -5 -7 -10 -16
-10 -8 0 -12 5 -9 10 3 6 10 10 16 10 5 0 9 -4 9 -10z"/>
<path d="M12821 3473 c2 -35 2 -35 6 -8 3 16 10 33 16 37 8 5 6 8 -5 8 -14 0
-18 -8 -17 -37z"/>
<path d="M12866 3501 c-3 -5 3 -7 14 -4 11 3 20 1 20 -5 0 -5 -9 -12 -20 -15
-30 -8 -26 -37 5 -35 22 2 26 7 23 33 -3 30 -30 47 -42 26z m29 -41 c-3 -5
-10 -10 -16 -10 -5 0 -9 5 -9 10 0 6 7 10 16 10 8 0 12 -4 9 -10z"/>
<path d="M13117 3503 c-4 -3 -7 -11 -7 -17 0 -6 4 -5 9 3 10 16 31 6 31 -14 0
-20 -21 -30 -31 -14 -7 11 -9 10 -9 -3 0 -22 23 -23 40 -3 22 26 -9 72 -33 48z"/>
<path d="M13231 3471 c1 -35 2 -35 8 -7 9 42 29 44 34 4 l5 -33 -2 35 c-1 29
-5 35 -23 36 -20 1 -23 -3 -22 -35z"/>
<path d="M13295 3500 c3 -5 8 -10 11 -10 2 0 4 5 4 10 0 6 -5 10 -11 10 -5 0
-7 -4 -4 -10z"/>
<path d="M13333 3475 c0 -22 2 -30 4 -17 2 12 2 30 0 40 -3 9 -5 -1 -4 -23z"/>
<path d="M13373 3503 c15 -4 16 -7 5 -21 -12 -15 -11 -16 5 -3 24 19 21 31 -5
30 -18 -1 -19 -2 -5 -6z"/>
<path d="M13426 3501 c-3 -5 3 -7 14 -4 11 3 20 1 20 -5 0 -5 -9 -12 -20 -15
-30 -8 -26 -37 5 -35 22 2 26 7 23 33 -3 30 -30 47 -42 26z m29 -41 c-3 -5
-10 -10 -16 -10 -5 0 -9 5 -9 10 0 6 7 10 16 10 8 0 12 -4 9 -10z"/>
<path d="M13523 3475 c0 -22 2 -30 4 -17 2 12 2 30 0 40 -3 9 -5 -1 -4 -23z"/>
<path d="M13556 3502 c-3 -6 2 -9 12 -8 11 1 17 -6 17 -19 0 -13 -6 -19 -19
-18 -13 1 -15 -2 -7 -10 18 -18 49 18 35 40 -13 21 -30 27 -38 15z"/>
<path d="M13611 3470 c1 -34 1 -34 8 -6 9 42 29 44 34 4 l4 -33 1 37 c2 35 0
38 -23 36 -22 -2 -25 -7 -24 -38z"/>
<path d="M13800 3495 c-6 -8 -9 -23 -5 -35 6 -20 29 -27 39 -11 3 5 -2 8 -12
7 -11 -1 -17 6 -17 19 0 13 6 20 17 19 10 -1 15 2 12 7 -8 13 -20 11 -34 -6z"/>
<path d="M13856 3492 c-4 -11 -4 -27 0 -36 8 -20 36 -17 41 4 4 12 3 13 -5 1
-11 -16 -32 -7 -32 14 0 21 21 30 32 14 8 -12 9 -11 5 1 -6 23 -34 24 -41 2z"/>
<path d="M13921 3473 c2 -35 2 -35 6 -8 3 16 10 33 16 37 8 5 6 8 -5 8 -14 0
-18 -8 -17 -37z"/>
<path d="M13967 3504 c-4 -4 -7 -18 -7 -31 0 -26 26 -41 42 -25 8 8 5 9 -11 5
-12 -3 -21 -1 -21 6 0 6 9 11 21 11 14 0 19 5 17 17 -3 19 -29 29 -41 17z m33
-14 c0 -5 -7 -10 -15 -10 -8 0 -15 5 -15 10 0 6 7 10 15 10 8 0 15 -4 15 -10z"/>
<path d="M14386 3492 c-4 -11 -4 -27 0 -36 8 -20 36 -17 41 4 4 12 3 13 -5 1
-11 -16 -32 -7 -32 14 0 21 21 30 32 14 8 -12 9 -11 5 1 -6 23 -34 24 -41 2z"/>
<path d="M14452 3473 c1 -37 1 -37 5 -5 3 18 10 32 18 32 8 0 16 -14 18 -32
l5 -33 -2 35 c-1 28 -5 36 -23 38 -21 3 -23 -1 -21 -35z"/>
<path d="M14511 3509 c-1 -3 4 -21 10 -39 10 -28 13 -30 21 -15 6 9 7 19 4 22
-3 4 -6 0 -6 -8 -1 -8 -7 0 -15 16 -7 17 -14 27 -14 24z"/>
<path d="M14579 3494 c-9 -11 -10 -20 -2 -32 12 -20 43 -28 43 -12 0 6 -4 8
-10 5 -5 -3 -16 -3 -22 2 -9 5 -3 10 17 14 l30 7 -28 1 c-17 1 -26 5 -22 12 4
6 14 8 22 5 8 -3 11 -1 8 4 -9 14 -21 12 -36 -6z"/>
<path d="M14641 3473 c1 -28 3 -31 6 -13 3 14 10 31 15 38 8 9 6 12 -6 12 -12
0 -16 -9 -15 -37z"/>
<path d="M14685 3500 c-9 -14 1 -27 25 -33 11 -3 18 -1 14 4 -3 5 -12 9 -20 9
-20 0 -18 18 4 23 15 4 15 5 0 6 -9 0 -20 -3 -23 -9z"/>
<path d="M14743 3475 c0 -22 2 -30 4 -17 2 12 2 30 0 40 -3 9 -5 -1 -4 -23z"/>
<path d="M14774 3496 c-10 -26 0 -51 21 -51 16 0 20 7 20 30 0 33 -30 49 -41
21z m36 -21 c0 -16 -6 -25 -15 -25 -9 0 -15 9 -15 25 0 16 6 25 15 25 9 0 15
-9 15 -25z"/>
<path d="M14842 3473 c1 -38 1 -38 5 -5 5 40 25 38 35 -4 6 -27 6 -27 5 6 -2
28 -6 36 -24 38 -21 3 -23 -1 -21 -35z"/>
<path d="M15026 3501 c-4 -5 3 -7 14 -4 11 3 20 1 20 -5 0 -5 -9 -12 -21 -15
-22 -6 -22 -29 -1 -33 7 -1 8 0 2 3 -15 7 -12 23 4 23 8 0 17 -8 19 -17 3 -10
5 -1 6 20 1 30 -2 37 -18 37 -11 0 -22 -4 -25 -9z"/>
<path d="M15126 3492 c-12 -37 21 -72 39 -42 3 5 0 7 -8 4 -8 -3 -18 -1 -22 5
-3 7 3 11 15 11 15 0 20 5 18 17 -5 25 -35 28 -42 5z m34 -2 c0 -5 -7 -10 -16
-10 -8 0 -12 5 -9 10 3 6 10 10 16 10 5 0 9 -4 9 -10z"/>
<path d="M14302 3465 c4 -23 35 -32 52 -15 8 8 6 9 -8 4 -13 -5 -23 -1 -33 12
-14 19 -15 19 -11 -1z"/>
<path d="M13354 3449 c-3 -5 9 -9 25 -9 17 0 31 2 31 4 0 8 -51 13 -56 5z"/>
<path d="M14688 3448 c5 -5 16 -8 23 -6 8 3 3 7 -10 11 -17 4 -21 3 -13 -5z"/>
<path d="M609 3123 c-8 -10 -9 -14 -2 -10 8 5 13 -3 16 -25 3 -29 4 -28 5 10
2 47 0 49 -19 25z"/>
<path d="M664 3127 c-9 -25 0 -62 16 -62 10 0 15 10 15 34 0 36 -21 54 -31 28z
m26 -27 c0 -16 -4 -30 -10 -30 -5 0 -10 14 -10 30 0 17 5 30 10 30 6 0 10 -13
10 -30z"/>
<path d="M773 3129 c9 -5 17 -19 17 -29 0 -10 -8 -24 -17 -29 -16 -9 -17 -10
-1 -11 20 0 32 32 23 60 -3 11 -14 20 -23 20 -16 -1 -15 -2 1 -11z"/>
<path d="M752 3100 c0 -14 2 -19 5 -12 2 6 2 18 0 25 -3 6 -5 1 -5 -13z"/>
<path d="M664 2715 c-7 -18 3 -35 22 -35 8 0 12 -5 9 -11 -4 -6 -14 -8 -22 -5
-8 3 -11 1 -8 -4 19 -31 56 17 41 55 -7 19 -35 19 -42 0z m36 -10 c0 -8 -7
-15 -15 -15 -8 0 -15 7 -15 15 0 8 7 15 15 15 8 0 15 -7 15 -15z"/>
<path d="M773 2719 c9 -5 17 -19 17 -29 0 -10 -8 -24 -17 -29 -16 -9 -17 -10
-1 -11 20 0 32 32 23 60 -3 11 -14 20 -23 20 -16 -1 -15 -2 1 -11z"/>
<path d="M752 2690 c0 -14 2 -19 5 -12 2 6 2 18 0 25 -3 6 -5 1 -5 -13z"/>
<path d="M15031 2493 c-13 -25 -2 -38 32 -40 25 -1 28 2 25 26 -4 32 -42 42
-57 14z"/>
<path d="M667 2303 c-3 -5 5 -8 18 -8 13 0 21 3 18 8 -2 4 -10 7 -18 7 -8 0
-16 -3 -18 -7z"/>
<path d="M773 2299 c9 -5 17 -19 17 -29 0 -10 -8 -24 -17 -29 -16 -9 -17 -10
-1 -11 20 0 32 32 23 60 -3 11 -14 20 -23 20 -16 -1 -15 -2 1 -11z"/>
<path d="M12677 2293 c-4 -3 -7 -16 -7 -28 0 -17 6 -22 30 -22 30 0 43 16 34
42 -6 15 -45 21 -57 8z"/>
<path d="M752 2270 c0 -14 2 -19 5 -12 2 6 2 18 0 25 -3 6 -5 1 -5 -13z"/>
<path d="M664 2250 c2 -21 40 -19 42 3 1 12 1 13 -3 2 -5 -18 -30 -20 -36 -2
-2 7 -3 6 -3 -3z"/>
<path d="M10314 2076 c-10 -26 1 -51 23 -54 28 -4 50 32 32 54 -15 18 -48 18
-55 0z"/>
<path d="M673 1883 c9 -2 23 -2 30 0 6 3 -1 5 -18 5 -16 0 -22 -2 -12 -5z"/>
<path d="M773 1879 c9 -5 17 -19 17 -29 0 -10 -8 -24 -17 -29 -16 -9 -17 -10
-1 -11 20 0 32 32 23 60 -3 11 -14 20 -23 20 -16 -1 -15 -2 1 -11z"/>
<path d="M7968 1882 c-11 -2 -18 -13 -18 -28 0 -20 5 -24 29 -24 33 0 44 11
35 33 -7 18 -22 25 -46 19z"/>
<path d="M685 1859 c-4 -6 -5 -12 -2 -15 2 -3 7 2 10 11 7 17 1 20 -8 4z"/>
<path d="M752 1850 c0 -14 2 -19 5 -12 2 6 2 18 0 25 -3 6 -5 1 -5 -13z"/>
<path d="M5602 1671 c-8 -4 -12 -19 -10 -32 4 -33 53 -40 63 -9 11 36 -22 61
-53 41z"/>
<path d="M3237 1544 c-15 -16 -7 -53 14 -59 30 -10 58 19 43 43 -12 18 -45 28
-57 16z"/>
<path d="M670 1476 c0 -2 9 -6 20 -9 11 -3 18 -1 14 4 -5 9 -34 13 -34 5z"/>
<path d="M773 1469 c9 -5 17 -19 17 -29 0 -10 -8 -24 -17 -29 -16 -9 -17 -10
-1 -11 20 0 32 32 23 60 -3 11 -14 20 -23 20 -16 -1 -15 -2 1 -11z"/>
<path d="M882 1461 c-8 -4 -12 -19 -10 -32 2 -19 9 -24 33 -24 33 0 45 25 25
50 -14 17 -29 19 -48 6z"/>
<path d="M661 1437 c0 -12 3 -16 6 -9 7 17 33 15 33 -2 0 -8 -7 -17 -15 -19
-11 -4 -10 -4 2 -3 26 2 22 37 -4 47 -20 7 -23 5 -22 -14z"/>
<path d="M752 1440 c0 -14 2 -19 5 -12 2 6 2 18 0 25 -3 6 -5 1 -5 -13z"/>
<path d="M670 1050 c0 -5 7 -7 15 -4 8 4 15 8 15 10 0 2 -7 4 -15 4 -8 0 -15
-4 -15 -10z"/>
<path d="M773 1049 c9 -5 17 -19 17 -29 0 -10 -8 -24 -17 -29 -16 -9 -17 -10
-1 -11 9 0 20 9 23 20 9 28 -3 60 -23 60 -16 -1 -15 -2 1 -11z"/>
<path d="M752 1020 c0 -14 2 -19 5 -12 2 6 2 18 0 25 -3 6 -5 1 -5 -13z"/>
<path d="M678 1023 c12 -2 22 -11 22 -20 0 -11 -6 -14 -21 -10 -16 4 -19 3
-11 -5 15 -15 44 -1 40 19 -2 11 -13 19 -28 20 -22 1 -22 1 -2 -4z"/>
<path d="M731 823 c1 -27 4 -38 6 -26 2 13 13 24 26 26 l22 4 -22 2 c-33 2
-29 29 5 34 25 4 25 4 -5 6 -33 1 -33 1 -32 -46z"/>
<path d="M873 825 c0 -27 2 -38 4 -22 2 15 2 37 0 50 -2 12 -4 0 -4 -28z"/>
<path d="M988 860 c27 -11 28 -22 2 -45 -27 -25 -25 -35 8 -34 24 2 25 2 4 6
l-24 5 21 22 c26 27 19 56 -13 55 -21 0 -21 0 2 -9z"/>
<path d="M1064 859 c-18 -23 -27 -46 -10 -25 16 19 16 19 16 -2 0 -16 -6 -22
-22 -23 -21 -1 -21 -2 -3 -6 11 -3 23 -10 26 -15 10 -16 15 14 9 51 -4 27 -7
31 -16 20z"/>
<path d="M3090 823 c0 -25 2 -44 4 -42 8 10 13 89 5 89 -5 0 -9 -21 -9 -47z"/>
<path d="M3157 828 c8 -59 13 -61 13 -5 0 26 -4 47 -9 47 -5 0 -7 -19 -4 -42z"/>
<path d="M3334 856 c-10 -26 1 -71 18 -74 20 -4 32 29 24 64 -7 26 -33 33 -42
10z m31 -31 c0 -16 -6 -30 -12 -32 -9 -3 -13 7 -13 32 0 25 4 35 13 33 6 -3
12 -17 12 -33z"/>
<path d="M3409 853 c-8 -10 -9 -14 -2 -10 8 5 13 -5 16 -30 3 -35 4 -34 5 10
2 52 1 55 -19 30z"/>
<path d="M5454 854 c5 -10 13 -32 18 -47 8 -22 13 -25 19 -15 5 7 9 18 9 23 0
6 -4 4 -9 -4 -7 -10 -11 -5 -16 18 -3 17 -11 34 -17 38 -8 4 -9 0 -4 -13z"/>
<path d="M5506 854 c-4 -9 -4 -19 -1 -22 3 -3 6 1 6 9 1 8 5 -4 9 -26 l7 -40
2 48 c1 46 -11 63 -23 31z"/>
<path d="M5697 863 c-4 -3 -7 -11 -7 -17 0 -6 5 -4 10 4 9 13 11 13 20 0 5 -8
10 -19 10 -25 0 -5 -5 -17 -10 -25 -9 -13 -11 -13 -21 0 -9 12 -10 12 -7 1 7
-24 26 -24 38 0 18 33 -10 86 -33 62z"/>
<path d="M5767 862 c17 -5 20 -11 13 -22 -5 -8 -10 -22 -9 -30 0 -8 6 0 14 19
19 43 20 41 -12 40 -25 -1 -26 -2 -6 -7z"/>
<path d="M7814 854 c5 -10 13 -32 18 -47 8 -22 13 -25 19 -15 5 7 9 18 9 23 0
6 -4 4 -9 -4 -7 -10 -11 -5 -16 18 -3 17 -11 34 -17 38 -8 4 -9 0 -4 -13z"/>
<path d="M7866 854 c-4 -9 -4 -19 -1 -22 3 -3 6 1 6 9 1 8 5 -4 9 -26 l7 -40
2 48 c1 46 -11 63 -23 31z"/>
<path d="M8059 853 c-8 -10 -9 -14 -2 -10 8 5 13 -5 16 -30 3 -35 4 -34 5 10
2 52 1 55 -19 30z"/>
<path d="M8116 861 c-3 -5 3 -7 14 -4 22 6 29 -22 8 -30 -10 -4 -10 -6 0 -6 6
-1 12 -8 12 -17 0 -12 -6 -15 -21 -11 -16 4 -19 3 -11 -5 21 -21 41 -1 39 39
-2 37 -27 58 -41 34z"/>
<path d="M10174 854 c5 -10 13 -32 18 -47 8 -22 13 -25 19 -15 5 7 9 18 9 23
0 6 -4 4 -9 -4 -7 -10 -11 -5 -16 18 -3 17 -11 34 -17 38 -8 4 -9 0 -4 -13z"/>
<path d="M10226 854 c-4 -9 -4 -19 -1 -22 3 -3 6 1 6 9 1 8 5 -4 9 -26 l7 -40
2 48 c1 46 -11 63 -23 31z"/>
<path d="M10419 853 c-8 -10 -9 -14 -2 -10 8 5 13 -5 16 -30 3 -35 4 -34 5 10
2 52 1 55 -19 30z"/>
<path d="M10477 864 c-14 -15 -6 -46 13 -51 11 -3 17 -10 14 -15 -3 -5 -13 -7
-21 -4 -8 3 -11 1 -8 -4 19 -31 52 11 43 57 -3 18 -29 29 -41 17z m33 -24 c0
-11 -7 -20 -15 -20 -8 0 -15 9 -15 20 0 11 7 20 15 20 8 0 15 -9 15 -20z"/>
<path d="M12534 854 c5 -10 13 -32 18 -47 8 -22 13 -25 19 -15 5 7 9 18 9 23
0 6 -4 4 -9 -4 -7 -10 -11 -5 -16 18 -3 17 -11 34 -17 38 -8 4 -9 0 -4 -13z"/>
<path d="M12586 854 c-4 -9 -4 -19 -1 -22 3 -3 6 1 6 9 1 8 5 -4 9 -26 l7 -40
2 48 c1 46 -11 63 -23 31z"/>
<path d="M12766 861 c-3 -5 3 -7 14 -4 15 4 20 0 20 -16 0 -12 -6 -24 -14 -27
-8 -3 -17 -12 -20 -20 -4 -10 2 -14 22 -13 18 1 21 3 9 6 -17 4 -17 6 -2 23 9
10 15 27 13 37 -4 20 -33 30 -42 14z"/>
<path d="M12852 849 c-8 -11 -9 -18 -3 -14 6 3 11 -1 11 -10 0 -11 -5 -15 -15
-11 -8 3 -15 1 -15 -4 0 -6 6 -10 14 -10 8 0 16 -5 18 -12 8 -23 14 16 8 50
-5 32 -5 32 -18 11z"/>
<path d="M14917 862 c6 -4 13 -25 16 -47 l4 -40 1 42 c2 30 7 43 20 46 9 3 1
5 -18 6 -19 0 -30 -3 -23 -7z"/>
<path d="M15080 856 c0 -8 -8 -13 -17 -12 -14 1 -18 -7 -18 -29 0 -24 4 -30
23 -31 20 -1 22 3 22 42 0 24 -2 44 -5 44 -3 0 -5 -6 -5 -14z m-5 -41 c0 -10
-6 -20 -12 -22 -8 -3 -13 5 -13 22 0 17 5 25 13 23 6 -3 12 -13 12 -23z"/>
<path d="M807 844 c-4 -4 -7 -18 -7 -31 0 -26 26 -41 42 -25 8 8 5 9 -11 5
-12 -3 -21 -1 -21 6 0 6 9 11 21 11 14 0 19 5 17 17 -3 19 -29 29 -41 17z m33
-14 c0 -5 -7 -10 -15 -10 -8 0 -15 5 -15 10 0 6 7 10 15 10 8 0 15 -4 15 -10z"/>
<path d="M900 843 c5 -2 10 -15 10 -28 0 -13 -5 -26 -10 -28 -6 -3 -5 -4 2 -3
7 2 13 15 13 31 0 16 -6 29 -13 31 -7 1 -8 0 -2 -3z"/>
<path d="M3196 841 c-3 -5 3 -7 14 -4 11 3 20 0 20 -6 0 -6 -9 -11 -20 -11
-13 0 -20 -7 -20 -20 0 -15 6 -19 25 -18 22 2 26 7 23 33 -3 30 -30 47 -42 26z
m29 -41 c-3 -5 -10 -10 -16 -10 -5 0 -9 5 -9 10 0 6 7 10 16 10 8 0 12 -4 9
-10z"/>
<path d="M3251 813 c1 -28 3 -31 6 -13 3 14 10 31 15 38 8 9 6 12 -6 12 -12 0
-16 -9 -15 -37z"/>
<path d="M5550 840 c0 -5 7 -7 15 -4 8 4 15 2 15 -4 0 -5 -9 -12 -21 -15 -26
-7 -20 -32 7 -32 14 0 20 8 22 33 3 27 0 32 -17 32 -12 0 -21 -4 -21 -10z m30
-40 c0 -5 -7 -10 -15 -10 -8 0 -15 5 -15 10 0 6 7 10 15 10 8 0 15 -4 15 -10z"/>
<path d="M5611 813 c1 -28 3 -31 6 -13 3 14 10 31 15 38 8 9 6 12 -6 12 -12 0
-16 -9 -15 -37z"/>
<path d="M7910 840 c0 -5 7 -7 15 -4 8 4 15 2 15 -4 0 -5 -9 -12 -21 -15 -26
-7 -20 -32 7 -32 14 0 20 8 22 33 3 27 0 32 -17 32 -12 0 -21 -4 -21 -10z m30
-40 c0 -5 -7 -10 -15 -10 -8 0 -15 5 -15 10 0 6 7 10 15 10 8 0 15 -4 15 -10z"/>
<path d="M7971 813 c1 -28 3 -31 6 -13 3 14 10 31 15 38 8 9 6 12 -6 12 -12 0
-16 -9 -15 -37z"/>
<path d="M10270 840 c0 -5 7 -7 15 -4 8 4 15 2 15 -4 0 -5 -9 -12 -21 -15 -26
-7 -20 -32 7 -32 14 0 20 8 22 33 3 27 0 32 -17 32 -12 0 -21 -4 -21 -10z m30
-40 c0 -5 -7 -10 -15 -10 -8 0 -15 5 -15 10 0 6 7 10 15 10 8 0 15 -4 15 -10z"/>
<path d="M10331 813 c2 -35 2 -35 6 -8 3 16 10 33 16 37 8 5 6 8 -5 8 -14 0
-18 -8 -17 -37z"/>
<path d="M12626 841 c-4 -5 3 -7 14 -4 11 3 20 1 20 -5 0 -5 -9 -12 -21 -15
-22 -6 -22 -29 -1 -33 7 -1 8 0 2 3 -15 7 -12 23 4 23 8 0 17 -8 19 -17 3 -10
5 -1 6 20 1 30 -2 37 -18 37 -11 0 -22 -4 -25 -9z"/>
<path d="M12691 813 c2 -35 2 -35 6 -8 3 16 10 33 16 37 8 5 6 8 -5 8 -14 0
-18 -8 -17 -37z"/>
<path d="M14974 836 c-10 -26 0 -51 21 -51 16 0 20 7 20 30 0 33 -30 49 -41
21z m36 -21 c0 -16 -6 -25 -15 -25 -9 0 -15 9 -15 25 0 16 6 25 15 25 9 0 15
-9 15 -25z"/>
<path d="M15106 841 c-4 -5 3 -7 14 -4 11 3 20 1 20 -5 0 -5 -9 -12 -21 -15
-22 -6 -22 -29 -1 -33 7 -1 8 0 2 3 -15 7 -12 23 4 23 8 0 17 -8 19 -17 3 -10
5 -1 6 20 1 30 -2 37 -18 37 -11 0 -22 -4 -25 -9z"/>
<path d="M3111 824 c0 -11 3 -14 6 -6 3 7 2 16 -1 19 -3 4 -6 -2 -5 -13z"/>
<path d="M3127 803 c-4 -3 -7 -11 -7 -17 0 -6 5 -5 12 2 6 6 9 14 7 17 -3 3
-9 2 -12 -2z"/>
<path d="M15180 800 c0 -5 5 -10 10 -10 6 0 10 5 10 10 0 6 -4 10 -10 10 -5 0
-10 -4 -10 -10z"/>
</g>
</svg>
