<?xml version="1.0" encoding="UTF-8"?>
<svg id="Layer_1" data-name="Layer 1" xmlns="http://www.w3.org/2000/svg" viewBox="0 0 3204.93 2640.96">
  <defs>
    <style>
      .cls-1 {
        fill: #2684ff;
      }

      .cls-2 {
        fill: none;
      }

      .cls-3 {
        fill: #022354;
      }
    </style>
  </defs>
  <g>
    <path class="cls-3" d="M2085.27,1737.02h-29.71v-150.25l39.97-.21,49.21,106.73s.92-68.14,.92-99.15v-6.98h29.63v150.11c-12.15,0-24.35,.15-36.54-.21-1.39-.04-52.84-105.62-53.49-105.33v105.28Z"/>
    <path class="cls-3" d="M1998.66,1586.99h29.43c.24,1.1,.66,2.13,.66,3.16-.04,33.98,.45,67.97-.38,101.92-.74,30.12-12.58,43.19-42.8,46.62-12.87,1.46-26.5,.49-39.24-2.07-21.1-4.23-31.29-19.69-31.57-44.35-.2-17.08-.05-34.17-.04-51.25,.01-17.45,.04-34.91,.07-52.36,0-.35,.17-.7,.38-1.47h29.47c0,1.8,0,3.75,0,5.71,0,31.57-.03,63.13,.04,94.7,0,3.5,.39,7.04,.97,10.49,1.35,8.01,6.32,13.35,14.1,14.62,7.03,1.15,14.5,1.62,21.5,.56,11.44-1.73,16.58-8.32,17.24-19.89,.33-5.74,.18-11.51,.18-17.26,.01-27.48,0-54.96,0-82.44,0-2.01,0-4.02,0-6.69Z"/>
    <path class="cls-3" d="M2371.83,1719.46c-7.59-7.69-14.37-14.29-20.74-21.26-1.12-1.22-.99-4.1-.63-6.06,3.56-19.2,3.76-38.4-.36-57.48-3.24-15-12.53-22.3-27.52-22.55-18.31-.31-27.84,5.77-31.81,21.48-4.99,19.75-4.92,39.77-.36,59.56,3.73,16.18,15.03,23.08,33.94,21.3,3.68-.35,5.84,.72,8.19,3.12,5.05,5.16,10.33,10.09,16.58,16.15-7.24,2.11-13.13,5.04-19.14,5.3-10.31,.45-20.87,.24-31.01-1.51-19.72-3.4-31.94-15.94-36.93-35.04-6.49-24.86-6.63-50.02-.6-74.93,6.19-25.56,21.73-38.31,49.35-40.22,10.62-.73,21.61,.12,32.08,2.1,16.51,3.13,28.38,13.33,33.73,29.27,9.91,29.53,9.47,59.44,.72,89.22-1.07,3.65-3.29,6.96-5.52,11.54Z"/>
    <path class="cls-3" d="M2232.38,1737.05h-29.05v-149.78h29.05v149.78Z"/>
    <path class="cls-3" d="M2121.58,1884.87c-6.08-7.22-2.79-14.61,1.89-22.28-9.88-5.59-12.33-14.71-12.12-25.08,.3-15.04,8.32-23.78,23.38-25.36,.74-.08,1.49-.18,2.23-.12,7.21,.59,14.4,1.43,21.62,1.75,7,.3,14.03,.07,21.37,.07v9.07h-13.62c4.56,7.74,5.11,15.26,3.9,23.04-1.4,8.95-5.95,15.35-15.04,17.2-5.94,1.21-12.21,2.07-18.18,1.51-6.44-.6-5.75,4.08-6.8,7.27-1.18,3.59,.05,6.88,4.22,7.63,3.44,.62,7.03,.46,10.54,.74,6.84,.54,13.73,.79,20.5,1.81,7.7,1.16,11.86,6.18,13.27,13.79,3.15,17.06-3.42,27.44-20.33,31.13-11.23,2.45-22.61,2.14-33.72-.62-14.09-3.5-19.58-22.49-10.05-33.81,2.14-2.54,4.43-4.95,6.93-7.72Zm21.91,5.89c-2.78,0-5.57,.08-8.35-.02-5.63-.21-10.75,3.73-12.38,9.64-1.73,6.29,.54,13.34,5.81,15.23,10.63,3.8,21.53,3.83,32.03-.5,5.2-2.14,7.18-8.18,6.11-14.81-.92-5.7-4.48-8.27-9.9-8.72-4.43-.37-8.88-.56-13.33-.84Zm-2.1-69.03c-12.26-.2-17.46,4.52-17.75,16.09-.3,12.06,4.58,17.32,16.26,17.58,12.96,.28,18.55-4.59,18.78-16.37,.23-11.86-5-17.1-17.29-17.29Z"/>
    <path class="cls-3" d="M1927.82,1891.67h-11.63v-108.28h11.33v33.68c2.22-.62,3.68-1.17,5.19-1.42,7.64-1.25,15.29-3.35,22.95-3.42,12.54-.12,20,6.55,21.09,19.1,1.19,13.64,1.08,27.4,1.43,41.11,.16,6.26,.03,12.53,.03,19.11h-12.2c0-2.29,.04-4.45,0-6.6-.32-16.31-.2-32.65-1.17-48.93-.58-9.69-5.41-13.47-15.16-13.09-5.69,.22-11.32,1.74-16.98,2.69-3.68,.62-5.03,2.52-4.98,6.49,.25,17.63,.11,35.27,.11,52.9,0,2.02,0,4.04,0,6.65Z"/>
    <path class="cls-3" d="M2195.13,1783.22h11.53v33.74c5.68-1.52,10.6-3.31,15.67-4.06,5.09-.75,10.41-1.08,15.5-.51,10.49,1.18,17.1,7.34,17.89,18.82,1.38,19.93,1.41,39.95,2.02,60.31h-12.78c0-2.18,.03-4.32,0-6.45-.28-16.13-.13-32.29-1.03-48.38-.57-10.26-5.52-14.24-15.75-13.74-5.68,.28-11.3,1.87-16.95,2.83-3.57,.61-4.64,2.62-4.6,6.21,.18,17.63,.08,35.27,.08,52.9,0,2.01,0,4.03,0,6.52h-11.59v-108.19Z"/>
    <path class="cls-3" d="M2061.39,1857.67h-51.59c-2.77,14.91,5.01,24.61,19.36,24.62,4.83,0,9.67-.02,14.5-.22,4.61-.19,9.2-.64,14.27-1v10.42c-11.89,.51-23.92,1.89-35.85,1.29-13.12-.66-20.59-7.95-23.59-20.7-2.89-12.28-3.06-24.67-.06-36.96,5.42-22.17,35.06-31.72,52.29-16.52,3.91,3.45,7.06,8.93,8.25,14.02,1.83,7.79,1.66,16.05,2.42,25.04Zm-13.09-10.24c1.28-16.7-4.98-25.21-18.37-25.39-14.2-.2-21.32,8.43-20.71,25.39h39.08Z"/>
    <path class="cls-3" d="M2386.24,1813.88v10.96c-8.81-.68-17.27-1.59-25.76-1.86-4-.13-8.2,.45-12.03,1.62-4.58,1.4-6.47,5.25-6.42,10.01,.05,4.57,2.57,7.41,6.7,8.49,6.64,1.73,13.39,3.02,20.09,4.5,1.63,.36,3.26,.73,4.87,1.19,11.28,3.24,15.24,8.27,15.37,19.42,.14,12.45-4.66,19.69-15.23,23.01-11.19,3.51-22.46,1.8-33.72,.49-2.92-.34-5.8-.94-8.73-1.43v-10.29c5.73,.6,11,1.41,16.29,1.65,5.91,.27,11.93,.66,17.75-.12,8.01-1.07,11.26-5.08,11.29-11.99,.03-6.14-2.49-8.91-10.48-10.76-7.23-1.68-14.61-2.73-21.78-4.58-9.75-2.51-13.75-7.21-14.48-15.95-.96-11.62,2.6-19.09,11.61-23.01,3.68-1.6,7.83-3.02,11.76-2.98,10.89,.11,21.78,1.02,32.9,1.63Z"/>
    <path class="cls-3" d="M2320.87,1892.16c-7.43,.37-14.27,1.23-21.05,.91-9.31-.44-14.52-5.13-15.59-14.38-1.04-8.99-1.06-18.11-1.26-27.18-.19-8.88-.04-17.76-.04-27.2-3.78-.26-7.18-.49-10.86-.74v-9.87c3.5-.18,6.79-.35,10.8-.55v-29.37c.9-.59,1.04-.76,1.19-.78q10.84-1.43,10.85,9.36c.02,6.49,.09,12.99,.17,19.48,0,.32,.3,.64,.77,1.6h23.56v10.35h-24.29c0,3.01,0,5.53,0,8.05,.01,12.44-.15,24.87,.09,37.3,.21,10.89,2.94,13.33,13.81,13.16,3.32-.05,6.65-.33,10.6-.54,.39,3.22,.77,6.4,1.25,10.42Z"/>
    <path class="cls-3" d="M2090.82,1891.62h-10.84v-77.85h10.84v77.85Z"/>
    <g>
      <polygon class="cls-1" points="1543.46 1926.89 1650.25 1585.77 1841.03 1586.81 1543.46 1926.89"/>
      <polygon class="cls-1" points="1708.83 1886.97 1708.83 1737.67 1874.73 1886.97 1708.83 1886.97"/>
    </g>
    <path class="cls-1" d="M2345.4,1695.79c1.05,1.05,45.27,44.22,45.27,44.22h-30.6l-29.41-30.53,14.74-13.69Z"/>
    <rect class="cls-1" x="2079.55" y="1783.71" width="12.63" height="12.63"/>
  </g>
  <rect class="cls-2" x="1511.56" y="1542.23" width="911" height="415.77"/>
</svg>