<?xml version="1.0" standalone="no"?>
<!DOCTYPE svg PUBLIC "-//W3C//DTD SVG 20010904//EN"
 "http://www.w3.org/TR/2001/REC-SVG-20010904/DTD/svg10.dtd">
<svg version="1.0" xmlns="http://www.w3.org/2000/svg"
 width="1597.000000pt" height="717.000000pt" viewBox="0 0 1597.000000 717.000000"
 preserveAspectRatio="xMidYMid meet">

<g transform="translate(0.000000,717.000000) scale(0.100000,-0.100000)"
fill="#000000" stroke="none">
<path d="M1797 6474 c-8 -8 1 -24 14 -24 5 0 9 7 9 15 0 15 -12 20 -23 9z"/>
<path d="M610 6460 c0 -5 9 -10 20 -10 18 0 20 -7 20 -75 0 -60 3 -75 15 -75
12 0 15 15 15 75 0 73 1 75 25 75 14 0 25 5 25 10 0 6 -27 10 -60 10 -33 0
-60 -4 -60 -10z"/>
<path d="M1378 6459 c-32 -18 -22 -56 23 -84 34 -22 38 -29 28 -41 -8 -10 -21
-13 -42 -8 -22 5 -28 3 -25 -7 3 -8 16 -15 31 -17 70 -8 92 54 32 89 -19 12
-35 27 -35 35 0 15 43 29 59 19 6 -3 11 1 11 9 0 19 -54 22 -82 5z"/>
<path d="M1223 6443 c-4 -10 -11 -21 -17 -25 -8 -6 -7 -10 1 -16 6 -4 13 -28
15 -52 2 -38 7 -46 26 -48 12 -2 22 1 22 7 0 6 -4 11 -10 11 -15 0 -12 77 3
84 10 5 10 7 0 12 -7 3 -13 14 -13 25 0 24 -18 25 -27 2z"/>
<path d="M1633 6443 c-4 -10 -11 -22 -17 -26 -8 -6 -7 -10 2 -14 6 -2 12 -20
12 -38 0 -18 3 -40 6 -49 7 -18 39 -22 49 -6 3 6 -1 10 -9 10 -12 0 -16 10
-16 40 0 29 4 40 15 40 8 0 15 5 15 10 0 6 -7 10 -15 10 -8 0 -15 9 -15 20 0
25 -18 26 -27 3z"/>
<path d="M1725 6445 c-5 -11 -13 -23 -19 -27 -8 -6 -7 -10 1 -16 6 -4 13 -28
15 -52 2 -38 7 -46 26 -48 25 -4 30 13 7 22 -9 3 -15 19 -15 41 0 24 4 35 15
35 8 0 15 5 15 10 0 6 -6 10 -14 10 -8 0 -16 10 -19 23 -3 21 -4 21 -12 2z"/>
<path d="M743 6413 c-25 -10 -12 -22 17 -16 40 8 40 -13 -1 -22 -63 -14 -48
-69 20 -72 l41 -2 0 48 c0 26 -5 52 -12 59 -12 12 -43 15 -65 5z m47 -68 c0
-16 -27 -32 -37 -22 -3 4 -3 13 0 22 8 20 37 20 37 0z"/>
<path d="M850 6359 c0 -46 3 -59 15 -59 10 0 15 10 15 34 0 44 9 66 26 66 31
0 11 16 -21 17 l-35 1 0 -59z"/>
<path d="M945 6397 c-8 -12 -15 -31 -15 -44 0 -42 50 -69 78 -41 9 9 12 7 12
-9 0 -28 -25 -46 -55 -40 -16 3 -24 0 -22 -7 5 -17 60 -19 82 -2 16 11 20 29
23 88 l4 75 -46 0 c-36 1 -49 -3 -61 -20z m73 -34 c2 -24 -1 -33 -17 -38 -29
-9 -41 1 -41 35 0 50 53 53 58 3z"/>
<path d="M1097 6402 c-24 -27 -22 -79 3 -92 25 -13 72 -10 77 6 2 6 -7 9 -25
6 -18 -2 -33 2 -41 12 -12 14 -9 16 28 16 36 0 41 3 41 23 0 46 -52 64 -83 29z
m61 -19 c2 -9 -7 -13 -28 -13 -28 0 -31 2 -20 15 15 18 41 16 48 -2z"/>
<path d="M1507 6402 c-38 -42 -6 -107 49 -100 39 4 41 23 2 23 -17 0 -33 6
-35 13 -3 8 8 12 36 12 33 0 41 4 41 18 0 24 -31 52 -57 52 -11 0 -27 -8 -36
-18z m61 -19 c2 -8 -6 -13 -22 -13 -25 0 -33 10 -19 24 10 10 36 3 41 -11z"/>
<path d="M1800 6360 c0 -33 4 -60 10 -60 6 0 10 27 10 60 0 33 -4 60 -10 60
-6 0 -10 -27 -10 -60z"/>
<path d="M1860 6358 c0 -32 4 -58 10 -58 6 0 10 15 10 33 0 41 21 73 44 64 11
-5 16 -19 16 -52 0 -25 5 -45 10 -45 11 0 14 109 3 111 -5 1 -27 3 -50 3 l-43
2 0 -58z"/>
<path d="M2005 6397 c-8 -12 -15 -31 -15 -44 0 -42 50 -69 78 -41 9 9 12 7 12
-9 0 -28 -25 -46 -55 -40 -16 3 -24 0 -22 -7 5 -17 60 -19 82 -2 16 11 20 29
23 88 l4 75 -46 0 c-36 1 -49 -3 -61 -20z m73 -34 c2 -24 -1 -33 -17 -38 -29
-9 -41 1 -41 35 0 50 53 53 58 3z"/>
<path d="M2153 6413 c-7 -2 -13 -15 -13 -29 0 -17 7 -25 25 -30 14 -3 25 -12
25 -20 0 -8 -10 -14 -25 -14 -14 0 -25 -4 -25 -10 0 -16 56 -12 70 5 17 20 6
43 -25 55 -29 11 -25 30 6 30 10 0 19 5 19 10 0 10 -35 12 -57 3z"/>
<path d="M619 6074 c-12 -14 -10 -19 15 -39 31 -25 27 -50 -6 -39 -14 4 -18 2
-14 -5 10 -16 42 -13 57 5 11 14 9 20 -21 44 l-33 27 29 11 c24 8 25 11 8 11
-12 1 -28 -6 -35 -15z"/>
<path d="M893 6083 c13 -3 17 -15 17 -54 0 -27 5 -49 10 -49 6 0 10 22 10 49
0 39 4 51 18 54 9 3 -3 5 -28 5 -25 0 -37 -2 -27 -5z"/>
<path d="M788 6065 c-3 -3 -2 -22 1 -42 8 -48 28 -55 23 -8 -3 25 0 35 9 35
11 0 11 2 -1 10 -17 11 -24 12 -32 5z"/>
<path d="M1288 6064 c-10 -10 8 -78 22 -82 12 -4 13 -2 3 9 -16 17 -17 56 -1
61 8 3 6 6 -4 10 -9 4 -18 5 -20 2z"/>
<path d="M712 6048 c-24 -24 -6 -69 27 -67 10 0 7 4 -6 9 -33 13 -28 30 7 30
28 0 30 2 20 20 -12 23 -30 26 -48 8z m38 -8 c0 -5 -9 -10 -21 -10 -11 0 -17
5 -14 10 3 6 13 10 21 10 8 0 14 -4 14 -10z"/>
<path d="M994 6047 c18 -13 18 -14 -8 -21 -29 -7 -33 -35 -6 -44 12 -4 13 -3
3 10 -14 16 -8 28 15 28 8 0 12 -6 9 -15 -4 -8 -2 -17 4 -21 7 -4 9 8 7 32 -2
30 -8 40 -23 42 -20 4 -20 3 -1 -11z"/>
<path d="M1051 6015 c2 -33 3 -35 6 -10 2 17 11 35 20 42 13 10 13 12 -6 10
-18 -1 -21 -7 -20 -42z"/>
<path d="M1112 6048 c-30 -30 -4 -76 34 -61 26 10 11 -20 -17 -34 -22 -12 -22
-13 -3 -13 11 0 25 5 32 12 14 14 17 112 3 104 -4 -3 -6 -16 -4 -29 5 -24 -18
-43 -38 -31 -15 9 -10 42 9 53 9 6 12 11 7 11 -6 0 -16 -5 -23 -12z"/>
<path d="M1213 6053 c-7 -2 -13 -17 -13 -33 0 -26 16 -41 43 -39 7 0 2 4 -10
9 -31 13 -29 30 3 30 19 0 25 5 22 17 -3 18 -24 26 -45 16z m32 -13 c3 -5 -3
-10 -15 -10 -12 0 -18 5 -15 10 3 6 10 10 15 10 5 0 12 -4 15 -10z"/>
<path d="M4353 5913 c2040 -2 5374 -2 7410 0 2036 1 368 2 -3708 2 -4075 0
-5741 -1 -3702 -2z"/>
<path d="M604 5670 c0 -113 2 -159 3 -102 2 56 2 148 0 205 -1 56 -3 10 -3
-103z"/>
<path d="M15504 5670 c0 -113 2 -159 3 -102 2 56 2 148 0 205 -1 56 -3 10 -3
-103z"/>
<path d="M786 5774 c-12 -12 -16 -37 -16 -104 0 -116 4 -120 120 -120 116 0
120 4 120 120 0 116 -4 120 -120 120 -67 0 -92 -4 -104 -16z m149 -59 c14 -13
25 -33 25 -45 0 -27 -43 -70 -70 -70 -27 0 -70 43 -70 70 0 27 43 70 70 70 12
0 32 -11 45 -25z"/>
<path d="M852 5708 c-15 -15 -15 -61 0 -76 7 -7 24 -12 38 -12 33 0 50 17 50
50 0 33 -17 50 -50 50 -14 0 -31 -5 -38 -12z m64 -13 c6 -16 -23 -52 -33 -41
-4 3 -1 12 5 18 17 17 15 26 -5 31 -13 4 -12 5 5 6 12 0 25 -6 28 -14z"/>
<path d="M1187 5712 c6 -4 13 -28 16 -52 l4 -45 1 47 c2 35 6 48 20 51 9 3 1
5 -18 6 -19 0 -30 -3 -23 -7z"/>
<path d="M1263 5670 c0 -30 2 -43 4 -27 2 15 2 39 0 55 -2 15 -4 2 -4 -28z"/>
<path d="M1822 5670 c0 -41 2 -47 7 -25 9 43 38 45 44 3 l5 -33 -2 35 c-1 28
-5 35 -21 35 -11 0 -23 9 -27 20 -3 11 -6 -4 -6 -35z"/>
<path d="M2143 5670 c0 -30 2 -43 4 -27 2 15 2 39 0 55 -2 15 -4 2 -4 -28z"/>
<path d="M2420 5701 c0 -14 -5 -18 -19 -14 -10 3 -21 1 -24 -4 -3 -5 4 -9 16
-9 16 1 22 -5 22 -19 0 -14 -6 -20 -22 -19 -12 0 -20 -3 -17 -8 3 -4 16 -7 29
-6 23 2 25 7 25 50 0 26 -2 48 -5 48 -3 0 -5 -9 -5 -19z"/>
<path d="M2563 5670 c-1 -40 1 -47 6 -25 7 35 41 48 41 16 0 -11 -8 -25 -17
-30 -17 -10 -17 -10 -1 -11 19 0 35 41 23 60 -4 7 -16 10 -26 7 -12 -3 -19 2
-22 17 -2 11 -4 -4 -4 -34z"/>
<path d="M3110 5701 c0 -14 -5 -18 -19 -14 -10 3 -21 1 -24 -4 -3 -5 4 -9 16
-9 16 1 22 -5 22 -19 0 -14 -6 -20 -22 -19 -12 0 -20 -3 -17 -8 3 -4 16 -7 29
-6 23 2 25 7 25 50 0 26 -2 48 -5 48 -3 0 -5 -9 -5 -19z"/>
<path d="M3263 5670 c0 -30 2 -43 4 -27 2 15 2 39 0 55 -2 15 -4 2 -4 -28z"/>
<path d="M3303 5685 c0 -22 2 -30 4 -17 2 12 2 30 0 40 -3 9 -5 -1 -4 -23z"/>
<path d="M1287 5683 c6 -4 13 -22 16 -38 4 -27 5 -27 3 4 0 21 -7 36 -16 38
-10 3 -11 2 -3 -4z"/>
<path d="M1343 5655 c0 -22 2 -30 4 -17 2 12 2 30 0 40 -3 9 -5 -1 -4 -23z"/>
<path d="M1374 5678 c-4 -6 0 -16 9 -23 22 -16 21 -22 0 -28 -16 -4 -16 -5 -1
-6 24 -2 34 20 15 34 -22 16 -21 22 1 28 15 4 15 5 0 6 -9 0 -20 -4 -24 -11z"/>
<path d="M1476 5681 c-3 -5 3 -7 14 -4 11 3 20 1 20 -5 0 -6 -12 -13 -27 -15
-26 -4 -25 -4 5 -6 27 -1 33 2 30 16 -4 20 -33 29 -42 14z"/>
<path d="M1541 5651 c1 -36 1 -36 8 -6 3 17 13 30 21 30 8 0 18 -13 22 -30 6
-29 6 -29 5 5 -2 31 -5 35 -29 36 -26 1 -28 -2 -27 -35z"/>
<path d="M1618 5683 c6 -2 18 -2 25 0 6 3 1 5 -13 5 -14 0 -19 -2 -12 -5z"/>
<path d="M1673 5655 c0 -22 2 -30 4 -17 2 12 2 30 0 40 -3 9 -5 -1 -4 -23z"/>
<path d="M1715 5677 c16 -58 17 -70 4 -78 -11 -7 -11 -9 -1 -9 14 0 33 42 23
50 -4 3 -12 16 -19 30 -7 14 -10 17 -7 7z"/>
<path d="M1923 5684 c23 -7 22 -20 -3 -27 -30 -8 -25 -37 6 -37 23 0 25 3 22
32 -2 24 -8 33 -23 35 -16 1 -16 1 -2 -3z m17 -44 c0 -5 -7 -10 -15 -10 -8 0
-15 5 -15 10 0 6 7 10 15 10 8 0 15 -4 15 -10z"/>
<path d="M1974 5678 c-4 -6 0 -16 9 -23 22 -16 21 -22 0 -28 -16 -4 -16 -5 -1
-6 24 -2 34 20 15 34 -22 16 -21 22 1 28 15 4 15 5 0 6 -9 0 -20 -4 -24 -11z"/>
<path d="M2093 5684 c23 -7 22 -20 -3 -27 -30 -8 -25 -37 6 -37 23 0 25 3 22
32 -2 24 -8 33 -23 35 -16 1 -16 1 -2 -3z m17 -44 c0 -5 -7 -10 -15 -10 -8 0
-15 5 -15 10 0 6 7 10 15 10 8 0 15 -4 15 -10z"/>
<path d="M2181 5653 c2 -35 2 -35 6 -8 3 16 10 33 16 37 8 5 6 8 -5 8 -14 0
-18 -8 -17 -37z"/>
<path d="M2224 5676 c-11 -28 1 -51 26 -53 22 -1 22 -1 3 4 -31 6 -29 23 3 23
20 0 25 4 20 16 -3 9 -6 18 -6 20 0 11 -41 2 -46 -10z m41 -6 c3 -5 -3 -10
-14 -10 -12 0 -21 5 -21 10 0 6 6 10 14 10 8 0 18 -4 21 -10z"/>
<path d="M2320 5678 c24 -10 24 -10 5 -18 -18 -8 -18 -9 -2 -9 10 -1 15 -6 11
-12 -3 -6 -15 -9 -25 -6 -11 3 -17 1 -13 -4 3 -5 16 -9 30 -9 17 0 24 6 24 19
0 34 -12 51 -34 50 -19 0 -19 -1 4 -11z"/>
<path d="M2446 5677 c3 -10 9 -15 12 -12 3 3 0 11 -7 18 -10 9 -11 8 -5 -6z"/>
<path d="M2486 5667 c-4 -16 -11 -25 -17 -21 -7 4 -9 -1 -5 -14 5 -14 1 -24
-11 -32 -12 -7 -13 -10 -3 -7 17 4 53 73 47 90 -2 7 -7 -1 -11 -16z"/>
<path d="M2646 5681 c-3 -5 3 -7 14 -4 11 3 20 1 20 -5 0 -6 -12 -13 -27 -15
-26 -4 -25 -4 5 -6 27 -1 33 2 30 16 -4 20 -33 29 -42 14z"/>
<path d="M2714 5676 c-11 -28 1 -51 26 -53 22 -1 22 -1 3 4 -31 6 -29 23 3 23
20 0 25 4 20 16 -3 9 -6 18 -6 20 0 11 -41 2 -46 -10z m41 -6 c3 -5 -3 -10
-14 -10 -12 0 -21 5 -21 10 0 6 6 10 14 10 8 0 18 -4 21 -10z"/>
<path d="M2793 5655 c0 -22 2 -30 4 -17 2 12 2 30 0 40 -3 9 -5 -1 -4 -23z"/>
<path d="M2817 5683 c6 -4 13 -22 16 -38 4 -27 5 -27 3 4 0 21 -7 36 -16 38
-10 3 -11 2 -3 -4z"/>
<path d="M2923 5684 c23 -7 22 -20 -3 -27 -30 -8 -25 -37 6 -37 23 0 25 3 22
32 -2 24 -8 33 -23 35 -16 1 -16 1 -2 -3z m17 -44 c0 -5 -7 -10 -15 -10 -8 0
-15 5 -15 10 0 6 7 10 15 10 8 0 15 -4 15 -10z"/>
<path d="M2979 5674 c-9 -11 -10 -20 -2 -32 13 -21 45 -22 50 -2 4 12 3 13 -5
1 -13 -19 -44 -6 -40 16 2 11 12 18 25 17 12 0 20 3 17 8 -8 13 -31 9 -45 -8z"/>
<path d="M3144 5676 c-11 -28 1 -51 26 -53 22 -1 22 -1 3 4 -32 6 -29 21 5 26
l27 4 -27 2 c-16 0 -28 6 -28 12 0 6 9 9 20 6 11 -3 18 -1 14 4 -8 14 -34 11
-40 -5z"/>
<path d="M3214 5676 c-9 -23 0 -51 16 -52 9 0 10 1 3 3 -20 7 -16 51 5 56 16
4 16 5 -1 6 -10 0 -20 -5 -23 -13z"/>
<path d="M1478 5628 c6 -6 18 -8 28 -6 14 3 12 5 -9 10 -19 3 -25 2 -19 -4z"/>
<path d="M2648 5628 c6 -6 18 -8 28 -6 14 3 12 5 -9 10 -19 3 -25 2 -19 -4z"/>
<path d="M4353 5423 c2040 -2 5374 -2 7410 0 2036 1 368 2 -3708 2 -4075 0
-5741 -1 -3702 -2z"/>
<path d="M610 5160 c0 -27 5 -50 10 -50 6 0 10 12 10 28 0 15 3 37 6 50 5 16
2 22 -10 22 -13 0 -16 -11 -16 -50z"/>
<path d="M683 5173 l-15 -37 -14 24 c-8 15 -13 19 -13 10 0 -8 6 -26 13 -39
l13 -23 16 38 16 39 0 -37 c1 -21 6 -38 11 -38 6 0 10 23 10 50 0 59 -15 65
-37 13z"/>
<path d="M818 5188 c-6 -19 5 -71 17 -75 13 -4 11 65 -2 78 -7 7 -12 6 -15 -3z"/>
<path d="M752 5171 c-23 -14 -10 -56 18 -58 l25 -3 -25 12 -25 12 28 4 c21 2
27 8 23 19 -3 8 -6 17 -6 19 0 7 -24 4 -38 -5z m33 -11 c3 -5 -3 -10 -15 -10
-12 0 -18 5 -15 10 3 6 10 10 15 10 5 0 12 -4 15 -10z"/>
<path d="M871 5140 c1 -27 3 -29 6 -10 2 14 11 30 20 37 13 10 13 12 -6 10
-17 -1 -21 -7 -20 -37z"/>
<path d="M923 5145 c0 -22 2 -30 4 -17 2 12 2 30 0 40 -3 9 -5 -1 -4 -23z"/>
<path d="M959 5164 c-15 -18 -2 -48 22 -50 8 0 9 1 2 3 -27 10 -23 44 7 56 13
4 12 6 -1 6 -9 1 -22 -6 -30 -15z"/>
<path d="M758 4839 c-21 -12 -24 -59 -6 -77 7 -7 21 -12 32 -11 18 1 17 2 -4
8 -19 5 -26 15 -28 38 -3 29 0 33 30 42 20 5 25 9 13 10 -11 0 -28 -4 -37 -10z"/>
<path d="M1497 4844 c12 -3 24 -14 26 -25 4 -15 4 -14 3 3 -1 17 -8 23 -26 25
-21 1 -21 0 -3 -3z"/>
<path d="M1628 4827 c-7 -21 6 -70 20 -73 7 -1 8 0 2 3 -12 6 -13 50 -1 55 5
2 3 8 -4 15 -10 9 -14 9 -17 0z"/>
<path d="M15270 4823 c0 -5 11 -20 25 -33 l25 -23 25 23 c14 13 25 28 25 33 0
6 -11 0 -25 -13 l-25 -23 -25 23 c-14 13 -25 19 -25 13z"/>
<path d="M834 4806 c-11 -29 0 -51 26 -51 21 0 25 5 25 30 0 24 -5 31 -23 33
-13 2 -24 -3 -28 -12z m46 -21 c0 -18 -5 -25 -20 -25 -15 0 -20 7 -20 25 0 18
5 25 20 25 15 0 20 -7 20 -25z"/>
<path d="M911 4781 c1 -36 1 -36 8 -6 3 17 13 30 21 30 8 0 18 -13 22 -30 6
-29 6 -29 5 5 -2 31 -5 35 -29 36 -26 1 -28 -2 -27 -35z"/>
<path d="M986 4807 c3 -10 9 -15 12 -12 3 3 0 11 -7 18 -10 9 -11 8 -5 -6z"/>
<path d="M1066 4811 c-3 -5 3 -7 14 -4 11 3 20 1 20 -5 0 -6 -12 -13 -27 -15
-26 -4 -25 -4 5 -6 27 -1 33 2 30 16 -4 20 -33 29 -42 14z"/>
<path d="M1131 4780 c1 -27 3 -29 6 -10 2 14 11 30 20 37 13 10 13 12 -6 10
-17 -1 -21 -7 -20 -37z"/>
<path d="M1184 4808 c-4 -6 0 -16 9 -23 22 -16 21 -22 0 -28 -16 -4 -16 -5 -1
-6 24 -2 34 20 15 34 -22 16 -21 22 1 28 15 4 15 5 0 6 -9 0 -20 -4 -24 -11z"/>
<path d="M1243 4785 c0 -22 2 -30 4 -17 2 12 2 30 0 40 -3 9 -5 -1 -4 -23z"/>
<path d="M1274 4806 c-14 -37 22 -74 47 -49 6 6 1 9 -13 9 -14 -1 -24 6 -26
17 -4 22 27 35 40 16 8 -12 9 -11 5 1 -5 20 -46 25 -53 6z"/>
<path d="M1363 4785 c0 -22 2 -30 4 -17 2 12 2 30 0 40 -3 9 -5 -1 -4 -23z"/>
<path d="M1387 4813 c6 -4 13 -22 16 -38 4 -27 5 -27 3 4 0 21 -7 36 -16 38
-10 3 -11 2 -3 -4z"/>
<path d="M1560 4816 c0 -2 9 -6 20 -9 11 -3 20 -1 20 4 0 5 -9 9 -20 9 -11 0
-20 -2 -20 -4z"/>
<path d="M1680 4805 c-18 -22 -1 -49 31 -52 19 -1 20 -1 4 4 -34 9 -41 23 -11
23 21 0 27 4 24 17 -4 24 -32 28 -48 8z m40 -5 c0 -5 -9 -10 -21 -10 -11 0
-17 5 -14 10 3 6 13 10 21 10 8 0 14 -4 14 -10z"/>
<path d="M1490 4794 c8 -4 23 -16 34 -28 l18 -21 -14 25 c-9 14 -24 26 -34 27
-13 2 -14 1 -4 -3z"/>
<path d="M1555 4780 c-3 -5 -3 -14 0 -20 8 -12 32 -13 39 -1 4 5 -3 7 -14 4
-11 -3 -20 -1 -20 5 0 6 10 13 23 15 22 4 22 4 0 6 -12 0 -25 -3 -28 -9z"/>
<path d="M1000 4771 c0 -6 4 -13 10 -16 6 -3 7 1 4 9 -7 18 -14 21 -14 7z"/>
<path d="M1068 4758 c6 -6 18 -8 28 -6 14 3 12 5 -9 10 -19 3 -25 2 -19 -4z"/>
<path d="M610 4340 l0 -50 33 1 c23 1 26 3 10 6 -20 4 -23 11 -23 49 0 24 -4
44 -10 44 -5 0 -10 -22 -10 -50z"/>
<path d="M903 4340 c0 -30 2 -43 4 -27 2 15 2 39 0 55 -2 15 -4 2 -4 -28z"/>
<path d="M684 4346 c-11 -28 1 -51 26 -53 l25 -3 -25 12 -25 12 28 4 c29 4 33
12 15 30 -16 16 -37 15 -44 -2z m36 -6 c0 -5 -7 -10 -16 -10 -8 0 -12 5 -9 10
3 6 10 10 16 10 5 0 9 -4 9 -10z"/>
<path d="M751 4359 c-2 -12 21 -69 28 -69 8 0 32 62 26 68 -2 3 -9 -8 -16 -24
l-11 -29 -13 30 c-7 17 -14 27 -14 24z"/>
<path d="M830 4345 c-17 -20 -2 -49 26 -52 13 -2 11 1 -6 9 l-25 12 28 4 c20
2 27 8 25 20 -4 23 -32 26 -48 7z m35 -5 c3 -5 -3 -10 -15 -10 -12 0 -18 5
-15 10 3 6 10 10 15 10 5 0 12 -4 15 -10z"/>
<path d="M776 4017 c3 -10 9 -15 12 -12 3 3 0 11 -7 18 -10 9 -11 8 -5 -6z"/>
<path d="M1208 4010 c-5 -17 3 -80 11 -80 7 0 6 79 -2 86 -3 3 -7 0 -9 -6z"/>
<path d="M15270 4003 c0 -5 11 -20 25 -33 l25 -23 25 23 c14 13 25 28 25 33 0
6 -11 0 -25 -13 l-25 -23 -25 23 c-14 13 -25 19 -25 13z"/>
<path d="M840 3985 c-18 -22 -8 -50 20 -52 25 -3 25 -3 3 7 -13 5 -23 16 -23
25 0 9 10 20 23 25 15 6 17 9 6 9 -9 1 -22 -6 -29 -14z"/>
<path d="M906 3991 c-4 -5 3 -7 14 -4 23 6 26 13 6 13 -8 0 -17 -4 -20 -9z"/>
<path d="M964 3986 c-14 -37 22 -74 47 -49 6 6 1 9 -13 9 -14 -1 -24 6 -26 17
-4 22 27 35 40 16 8 -12 9 -11 5 1 -5 20 -46 25 -53 6z"/>
<path d="M1093 3965 c0 -22 2 -30 4 -17 2 12 2 30 0 40 -3 9 -5 -1 -4 -23z"/>
<path d="M1121 3961 c1 -36 1 -36 8 -6 8 40 38 46 44 8 4 -28 4 -28 3 2 -1 26
-5 30 -28 31 -26 1 -28 -2 -27 -35z"/>
<path d="M790 3979 c0 -6 -9 -9 -20 -6 -13 3 -21 -1 -26 -15 -3 -11 -3 -22 0
-25 3 -4 6 1 6 10 0 23 39 22 56 0 12 -16 12 -13 3 15 -11 32 -19 41 -19 21z"/>
<path d="M908 3938 c5 -5 16 -8 23 -6 8 3 3 7 -10 11 -17 4 -21 3 -13 -5z"/>
<path d="M1050 3940 c0 -6 7 -10 15 -10 8 0 15 2 15 4 0 2 -7 6 -15 10 -8 3
-15 1 -15 -4z"/>
<path d="M613 3563 c13 -3 17 -15 17 -49 0 -24 5 -44 10 -44 6 0 10 20 10 44
0 26 5 46 13 49 6 3 -6 5 -28 5 -22 0 -32 -2 -22 -5z"/>
<path d="M960 3520 c0 -27 5 -50 10 -50 6 0 10 11 10 24 0 15 7 26 18 29 16 4
16 5 0 6 -10 0 -18 7 -18 15 0 8 8 17 18 19 10 3 6 5 -10 6 -27 1 -28 -1 -28
-49z"/>
<path d="M693 3505 c0 -22 2 -30 4 -17 2 12 2 30 0 40 -3 9 -5 -1 -4 -23z"/>
<path d="M731 3501 c1 -35 2 -35 8 -7 9 41 31 46 31 7 0 -17 5 -31 11 -31 6 0
9 14 7 33 -3 27 -7 32 -30 33 -26 1 -28 -2 -27 -35z"/>
<path d="M807 3529 c6 -8 13 -25 16 -39 4 -17 5 -15 4 9 -1 21 -8 36 -17 39
-12 4 -13 2 -3 -9z"/>
<path d="M854 3526 c-11 -28 1 -51 26 -53 l25 -3 -25 12 -25 12 28 4 c29 4 33
12 15 30 -16 16 -37 15 -44 -2z m36 -6 c0 -5 -7 -10 -16 -10 -8 0 -12 5 -9 10
3 6 10 10 16 10 5 0 9 -4 9 -10z"/>
<path d="M1030 3505 c0 -19 5 -35 10 -35 6 0 10 16 10 35 0 19 -4 35 -10 35
-5 0 -10 -16 -10 -35z"/>
<path d="M1103 3534 c23 -7 22 -21 -4 -29 -21 -7 -22 -26 -1 -33 7 -2 10 2 6
12 -3 9 -1 16 5 16 6 0 11 -7 11 -15 0 -8 5 -15 11 -15 6 0 9 14 7 33 -2 26
-8 32 -28 34 -14 1 -18 0 -7 -3z"/>
<path d="M1161 3501 c1 -35 2 -35 8 -7 9 41 31 46 31 7 0 -17 5 -31 11 -31 6
0 9 14 7 33 -3 27 -7 32 -30 33 -26 1 -28 -2 -27 -35z"/>
<path d="M1237 3529 c6 -8 13 -25 16 -39 4 -17 5 -15 4 9 -1 21 -8 36 -17 39
-12 4 -13 2 -3 -9z"/>
<path d="M1292 3531 c-23 -14 -10 -56 18 -58 l25 -3 -25 12 -25 12 28 4 c21 2
27 8 23 19 -3 8 -6 17 -6 19 0 7 -24 4 -38 -5z m33 -11 c3 -5 -3 -10 -15 -10
-12 0 -18 5 -15 10 3 6 10 10 15 10 5 0 12 -4 15 -10z"/>
<path d="M742 3195 c0 -11 3 -29 8 -40 11 -25 11 1 0 35 -6 20 -8 21 -8 5z"/>
<path d="M786 3184 c-4 -15 -5 -29 -1 -32 3 -3 5 2 5 12 0 9 5 14 10 11 6 -3
10 1 10 9 0 27 -18 27 -24 0z"/>
<path d="M1022 3160 c0 -38 2 -49 8 -35 7 18 8 19 15 3 4 -10 12 -18 18 -18 6
0 1 10 -10 23 -12 12 -23 36 -26 52 -2 17 -4 6 -5 -25z"/>
<path d="M1093 3160 c0 -30 2 -43 4 -27 2 15 2 39 0 55 -2 15 -4 2 -4 -28z"/>
<path d="M835 3158 c-7 -29 -9 -30 -16 -13 -5 13 -8 15 -8 5 0 -8 3 -21 8 -29
6 -10 12 -3 21 23 7 21 10 40 7 42 -3 3 -8 -10 -12 -28z"/>
<path d="M15270 3183 c0 -5 11 -20 25 -33 l25 -23 25 23 c14 13 25 28 25 33 0
6 -11 0 -25 -13 l-25 -23 -25 23 c-14 13 -25 19 -25 13z"/>
<path d="M876 3171 c-3 -5 3 -7 14 -4 11 3 20 1 20 -5 0 -6 -12 -13 -27 -15
-26 -4 -25 -4 5 -6 27 -1 33 2 30 16 -4 20 -33 29 -42 14z"/>
<path d="M944 3166 c-11 -28 1 -51 26 -53 22 -1 22 -1 3 4 -32 6 -29 21 5 26
l27 4 -27 2 c-16 0 -28 6 -28 12 0 6 9 9 20 6 11 -3 18 -1 14 4 -8 14 -34 11
-40 -5z"/>
<path d="M1045 3169 c-11 -17 1 -21 15 -4 8 9 8 15 2 15 -6 0 -14 -5 -17 -11z"/>
<path d="M1110 3175 c0 -5 5 -17 10 -25 5 -8 10 -10 10 -5 0 6 -5 17 -10 25
-5 8 -10 11 -10 5z"/>
<path d="M1156 3165 c-9 -26 -7 -32 5 -12 6 10 9 21 6 23 -2 3 -7 -2 -11 -11z"/>
<path d="M767 3133 c-4 -3 -7 -11 -7 -17 0 -6 5 -5 12 2 6 6 9 14 7 17 -3 3
-9 2 -12 -2z"/>
<path d="M878 3118 c6 -6 18 -8 28 -6 14 3 12 5 -9 10 -19 3 -25 2 -19 -4z"/>
<path d="M1130 3110 c0 -11 -5 -20 -12 -20 -6 0 -8 -3 -4 -7 4 -5 14 1 22 11
16 23 18 36 4 36 -5 0 -10 -9 -10 -20z"/>
<path d="M613 2743 c13 -3 17 -15 17 -49 0 -24 5 -44 10 -44 6 0 10 20 10 44
0 26 5 46 13 49 6 3 -6 5 -28 5 -22 0 -32 -2 -22 -5z"/>
<path d="M1040 2747 c0 -15 34 -97 40 -97 9 0 42 91 35 98 -6 6 -25 -44 -25
-64 0 -25 -18 -6 -25 26 -4 16 -11 32 -16 35 -5 4 -9 4 -9 2z"/>
<path d="M1203 2700 c0 -30 2 -43 4 -27 2 15 2 39 0 55 -2 15 -4 2 -4 -28z"/>
<path d="M958 2728 c-6 -19 5 -71 17 -75 13 -4 11 65 -2 78 -7 7 -12 6 -15 -3z"/>
<path d="M693 2714 c23 -7 22 -21 -4 -29 -21 -7 -22 -26 -1 -33 7 -2 10 2 6
12 -3 9 -1 16 5 16 6 0 11 -7 11 -15 0 -8 5 -15 11 -15 6 0 9 14 7 33 -2 26
-8 32 -28 34 -14 1 -18 0 -7 -3z"/>
<path d="M751 2680 c1 -27 3 -29 6 -10 2 14 11 30 20 37 13 10 13 12 -6 10
-17 -1 -21 -7 -20 -37z"/>
<path d="M804 2706 c-11 -28 1 -51 24 -50 29 1 23 -18 -9 -27 -14 -4 -17 -7
-7 -8 36 -2 48 10 48 53 0 37 -3 42 -25 44 -15 1 -28 -4 -31 -12z m43 -12 c8
-21 -13 -42 -28 -27 -13 13 -5 43 11 43 6 0 13 -7 17 -16z"/>
<path d="M890 2705 c-17 -20 -2 -49 26 -52 13 -2 11 1 -6 9 l-25 12 28 4 c20
2 27 8 25 20 -4 23 -32 26 -48 7z m35 -5 c3 -5 -3 -10 -15 -10 -12 0 -18 5
-15 10 3 6 10 10 15 10 5 0 12 -4 15 -10z"/>
<path d="M1150 2709 l25 -11 -28 -10 c-28 -10 -32 -28 -9 -36 7 -2 10 2 6 12
-4 11 -1 16 11 16 9 0 14 -4 10 -9 -3 -5 0 -13 6 -16 7 -5 9 4 7 26 -2 28 -8
34 -28 36 l-25 3 25 -11z"/>
<path d="M1244 2691 c0 -21 7 -36 16 -38 10 -3 11 -2 3 4 -6 4 -13 22 -16 38
-4 27 -5 27 -3 -4z"/>
<path d="M1280 2685 c0 -19 5 -35 10 -35 6 0 10 16 10 35 0 19 -4 35 -10 35
-5 0 -10 -16 -10 -35z"/>
<path d="M1320 2705 c-16 -19 -3 -49 21 -51 9 -1 10 0 2 3 -21 7 -15 23 8 23
14 0 19 5 17 17 -4 24 -32 28 -48 8z m40 -5 c0 -5 -7 -10 -15 -10 -8 0 -15 5
-15 10 0 6 7 10 15 10 8 0 15 -4 15 -10z"/>
<path d="M15334 2428 l-19 -23 23 19 c22 19 22 19 45 0 l22 -19 -19 23 c-11
12 -22 22 -26 22 -4 0 -15 -10 -26 -22z"/>
<path d="M838 2383 c12 -2 22 -9 22 -16 0 -6 -10 -22 -22 -35 l-23 -25 23 14
c41 25 41 70 -1 68 -22 -2 -22 -2 1 -6z"/>
<path d="M768 2323 c6 -2 18 -2 25 0 6 3 1 5 -13 5 -14 0 -19 -2 -12 -5z"/>
<path d="M833 2293 c9 -2 23 -2 30 0 6 3 -1 5 -18 5 -16 0 -22 -2 -12 -5z"/>
<path d="M15338 2250 l22 -24 23 24 22 24 -22 -18 c-22 -19 -24 -19 -45 0
l-23 18 23 -24z"/>
<path d="M14255 1795 c-24 -23 -25 -28 -25 -175 0 -147 1 -152 25 -175 l24
-25 591 0 591 0 24 25 c24 23 25 28 25 175 0 147 -1 152 -25 175 l-24 25 -591
0 -591 0 -24 -25z m545 -135 c0 -5 -9 -10 -20 -10 -11 0 -20 -4 -20 -10 0 -5
4 -10 9 -10 5 0 16 -6 23 -13 8 -9 21 -11 33 -6 17 6 17 8 3 8 -10 1 -18 6
-18 11 0 15 87 12 93 -2 4 -10 8 -10 14 -2 4 7 28 11 53 10 43 -1 45 -2 48
-33 3 -32 2 -33 -32 -33 -28 0 -36 4 -36 18 -1 16 -1 16 -14 0 -19 -26 -43
-22 -54 10 l-10 27 -1 -27 c-1 -27 -2 -27 -71 -27 -38 0 -70 5 -70 10 0 5 10
9 23 10 l22 0 -22 16 c-13 9 -23 26 -23 39 0 21 5 24 35 24 19 0 35 -4 35 -10z"/>
<path d="M732 973 c1 -37 2 -41 5 -15 2 18 9 30 14 27 11 -7 11 -3 3 19 -12
32 -24 15 -22 -31z"/>
<path d="M807 978 c8 -59 13 -61 13 -5 0 26 -4 47 -9 47 -5 0 -7 -19 -4 -42z"/>
<path d="M850 975 c0 -40 2 -45 23 -44 16 1 18 2 5 6 -10 2 -18 11 -18 18 0 7
8 16 18 18 16 4 16 5 0 6 -10 0 -18 7 -18 15 0 8 8 17 18 19 13 4 11 5 -5 6
-21 1 -23 -4 -23 -44z"/>
<path d="M919 1011 c12 -8 51 -4 51 5 0 2 -15 4 -32 4 -23 0 -29 -3 -19 -9z"/>
<path d="M991 973 c1 -26 4 -38 6 -25 2 12 8 22 12 22 5 0 16 -10 25 -22 9
-13 14 -16 9 -8 -4 8 -7 28 -8 45 0 23 -5 31 -22 33 -21 3 -23 0 -22 -45z m39
22 c0 -8 -7 -15 -15 -15 -8 0 -15 7 -15 15 0 8 7 15 15 15 8 0 15 -7 15 -15z"/>
<path d="M1073 975 c0 -27 2 -38 4 -22 2 15 2 37 0 50 -2 12 -4 0 -4 -28z"/>
<path d="M1122 1008 c-26 -26 -7 -79 28 -77 9 0 6 4 -8 10 -32 12 -28 64 5 63
12 0 20 3 17 8 -7 12 -28 10 -42 -4z"/>
<path d="M5252 978 c-2 -44 0 -48 21 -47 16 1 17 3 5 6 -12 3 -18 17 -21 46
l-4 42 -1 -47z"/>
<path d="M5310 975 c0 -43 1 -45 28 -44 23 2 24 2 5 6 -27 5 -31 30 -5 36 16
4 16 5 0 6 -10 0 -18 7 -18 15 0 8 8 17 18 19 13 4 11 5 -5 6 -21 1 -23 -4
-23 -44z"/>
<path d="M5386 975 c9 -25 20 -42 25 -39 5 3 9 10 9 15 0 6 -4 8 -9 5 -5 -4
-12 7 -16 24 -4 16 -10 32 -15 35 -5 3 -2 -15 6 -40z"/>
<path d="M5470 975 c0 -40 2 -45 23 -44 16 1 18 2 5 6 -21 5 -24 29 -5 36 10
4 10 6 0 6 -19 1 -15 29 5 34 13 4 11 5 -5 6 -21 1 -23 -4 -23 -44z"/>
<path d="M5532 978 c-2 -44 0 -48 21 -47 16 1 17 3 5 6 -12 3 -18 17 -21 46
l-4 42 -1 -47z"/>
<path d="M7963 1013 c12 -3 17 -16 19 -46 l1 -42 4 40 c3 22 10 43 16 47 7 4
-4 7 -23 7 -19 -1 -27 -3 -17 -6z"/>
<path d="M8033 975 c0 -27 2 -38 4 -22 2 15 2 37 0 50 -2 12 -4 0 -4 -28z"/>
<path d="M8072 973 c1 -37 2 -41 5 -15 2 18 9 30 14 27 11 -7 11 -3 3 19 -12
32 -24 15 -22 -31z"/>
<path d="M8147 978 c8 -59 13 -61 13 -5 0 26 -4 47 -9 47 -5 0 -7 -19 -4 -42z"/>
<path d="M8190 975 c0 -40 2 -45 23 -44 16 1 18 2 5 6 -10 2 -18 11 -18 18 0
7 8 16 18 18 16 4 16 5 0 6 -10 0 -18 7 -18 15 0 8 8 17 18 19 13 4 11 5 -5 6
-21 1 -23 -4 -23 -44z"/>
<path d="M8301 973 c1 -27 4 -38 6 -26 2 12 12 24 21 26 15 4 15 5 0 6 -10 0
-18 7 -18 15 0 8 8 17 18 19 13 4 11 5 -5 6 -21 1 -23 -3 -22 -46z"/>
<path d="M8361 973 c1 -27 4 -38 6 -25 5 24 13 28 29 12 6 -6 10 -3 10 9 0 12
-6 17 -18 13 -12 -3 -18 1 -18 13 0 12 6 16 20 12 11 -3 18 -1 14 4 -3 5 -14
9 -25 9 -16 0 -19 -7 -18 -47z"/>
<path d="M8460 1010 c0 -5 5 -10 10 -10 6 0 10 5 10 10 0 6 -4 10 -10 10 -5 0
-10 -4 -10 -10z"/>
<path d="M8531 973 l2 -48 7 40 c4 22 8 34 9 26 0 -8 3 -12 6 -9 8 7 -5 38
-16 38 -5 0 -8 -21 -8 -47z"/>
<path d="M8596 1004 c-4 -9 -4 -19 -1 -22 3 -3 6 1 6 9 1 8 5 -4 9 -26 l7 -40
2 48 c1 46 -11 63 -23 31z"/>
<path d="M8650 975 c0 -40 2 -45 23 -44 16 1 18 2 5 6 -10 2 -18 11 -18 18 0
7 8 16 18 18 16 4 16 5 0 6 -10 0 -18 7 -18 15 0 8 8 17 18 19 13 4 11 5 -5 6
-21 1 -23 -4 -23 -44z"/>
<path d="M11573 1013 c12 -3 17 -16 19 -46 l1 -42 4 40 c3 22 10 43 16 47 7 4
-4 7 -23 7 -19 -1 -27 -3 -17 -6z"/>
<path d="M11650 1010 c0 -5 5 -10 10 -10 6 0 10 5 10 10 0 6 -4 10 -10 10 -5
0 -10 -4 -10 -10z"/>
<path d="M11721 973 c1 -26 4 -38 6 -25 2 12 8 22 12 22 5 0 16 -10 25 -22 9
-13 14 -16 9 -8 -4 8 -7 28 -8 45 0 23 -5 31 -22 33 -21 3 -23 0 -22 -45z m39
22 c0 -8 -7 -15 -15 -15 -8 0 -15 7 -15 15 0 8 7 15 15 15 8 0 15 -7 15 -15z"/>
<path d="M11812 1008 c-7 -7 -12 -16 -12 -22 0 -5 6 -3 13 6 6 9 21 18 32 21
20 5 20 5 0 6 -12 0 -26 -4 -33 -11z"/>
<path d="M11890 975 c0 -40 2 -45 23 -44 16 1 18 2 5 6 -10 2 -18 11 -18 18 0
7 8 16 18 18 16 4 16 5 0 6 -10 0 -18 7 -18 15 0 8 8 17 18 19 13 4 11 5 -5 6
-21 1 -23 -4 -23 -44z"/>
<path d="M11959 1011 c12 -8 51 -4 51 5 0 2 -15 4 -32 4 -23 0 -29 -3 -19 -9z"/>
<path d="M12076 975 c9 -25 20 -42 25 -39 5 3 9 10 9 15 0 6 -4 8 -9 5 -5 -4
-12 7 -16 24 -4 16 -10 32 -15 35 -5 3 -2 -15 6 -40z"/>
<path d="M12167 1014 c-11 -11 -8 -26 3 -19 6 3 10 1 10 -6 0 -7 3 -10 6 -6 3
3 2 13 -3 22 -5 8 -12 12 -16 9z"/>
<path d="M12232 978 c-2 -44 0 -48 21 -47 16 1 17 3 5 6 -12 3 -18 17 -21 46
l-4 42 -1 -47z"/>
<path d="M12352 990 c0 -19 2 -27 5 -17 2 9 2 25 0 35 -3 9 -5 1 -5 -18z"/>
<path d="M12390 975 c0 -40 2 -45 23 -44 16 1 18 2 5 6 -21 5 -24 29 -5 36 10
4 10 6 0 6 -19 1 -15 29 5 34 13 4 11 5 -5 6 -21 1 -23 -4 -23 -44z"/>
<path d="M8447 969 c-4 -13 -4 -25 -2 -28 3 -2 5 1 5 7 0 7 9 12 20 12 11 0
20 -5 20 -12 0 -6 2 -9 5 -7 2 3 2 15 -2 28 -4 17 -8 19 -14 9 -8 -11 -10 -11
-18 0 -6 10 -10 8 -14 -9z"/>
<path d="M11637 969 c-4 -13 -4 -25 -2 -28 3 -2 5 1 5 7 0 7 9 12 20 12 11 0
20 -5 20 -12 0 -6 2 -9 5 -7 2 3 2 15 -2 28 -4 17 -8 19 -14 9 -8 -11 -10 -11
-18 0 -6 10 -10 8 -14 -9z"/>
<path d="M11847 960 c7 -26 -22 -27 -36 -2 -6 9 -11 12 -11 6 0 -18 28 -37 45
-30 16 6 21 46 6 46 -5 0 -7 -9 -4 -20z"/>
<path d="M12150 970 c0 -4 11 -10 25 -12 14 -3 25 -2 25 2 0 4 -11 10 -25 12
-14 3 -25 2 -25 -2z"/>
<path d="M8560 965 c0 -5 4 -16 9 -23 6 -11 10 -10 15 4 3 9 4 19 1 22 -3 3
-5 -1 -5 -9 0 -11 -2 -11 -10 1 -5 8 -10 11 -10 5z"/>
<path d="M775 949 c-4 -6 -5 -12 -2 -15 2 -3 7 2 10 11 7 17 1 20 -8 4z"/>
<path d="M8115 949 c-4 -6 -5 -12 -2 -15 2 -3 7 2 10 11 7 17 1 20 -8 4z"/>
<path d="M12300 952 c0 -18 29 -27 43 -13 9 9 8 11 -7 5 -11 -4 -21 -2 -27 7
-6 10 -9 11 -9 1z"/>
<path d="M748 559 c-21 -12 -24 -59 -6 -77 7 -7 21 -12 32 -11 18 1 17 2 -4 8
-19 5 -26 15 -28 38 -3 29 0 33 30 42 20 5 25 9 13 10 -11 0 -28 -4 -37 -10z"/>
<path d="M1487 564 c12 -3 24 -14 26 -25 4 -15 4 -14 3 3 -1 17 -8 23 -26 25
-21 1 -21 0 -3 -3z"/>
<path d="M5276 561 c-4 -6 -3 -11 2 -11 5 0 12 -9 15 -20 4 -16 0 -20 -19 -20
-13 0 -24 -4 -24 -8 0 -5 14 -7 30 -4 26 4 30 8 24 26 -11 38 -21 50 -28 37z"/>
<path d="M7957 549 c4 -13 8 -18 11 -10 2 7 -1 18 -6 23 -8 8 -9 4 -5 -13z"/>
<path d="M8005 551 c-4 -13 -4 -25 -1 -28 3 -4 6 0 6 8 0 11 2 11 10 -1 9 -13
10 -13 10 0 0 8 -4 21 -9 29 -7 11 -10 9 -16 -8z"/>
<path d="M8232 520 c0 -32 2 -47 7 -37 6 17 8 17 20 3 7 -9 18 -16 24 -16 6 0
1 7 -11 16 -23 16 -23 17 -5 38 18 21 18 21 -4 3 -21 -19 -22 -19 -26 15 -2
21 -4 13 -5 -22z"/>
<path d="M8303 520 c0 -30 2 -43 4 -27 2 15 2 39 0 55 -2 15 -4 2 -4 -28z"/>
<path d="M11648 560 c28 -12 28 -21 -3 -50 -33 -31 -32 -40 8 -39 31 2 31 2 3
6 l-28 5 26 27 c30 31 26 61 -8 60 -21 0 -21 0 2 -9z"/>
<path d="M1618 547 c-7 -21 6 -70 20 -73 7 -1 8 0 2 3 -12 6 -13 50 -1 55 5 2
3 8 -4 15 -10 9 -14 9 -17 0z"/>
<path d="M5708 547 c-7 -21 6 -70 20 -73 7 -1 8 0 2 3 -12 6 -13 50 -1 55 5 2
3 8 -4 15 -10 9 -14 9 -17 0z"/>
<path d="M8061 544 c0 -11 3 -14 6 -6 3 7 2 16 -1 19 -3 4 -6 -2 -5 -13z"/>
<path d="M824 526 c-11 -29 0 -51 26 -51 21 0 25 5 25 30 0 24 -5 31 -23 33
-13 2 -24 -3 -28 -12z m46 -21 c0 -18 -5 -25 -20 -25 -15 0 -20 7 -20 25 0 18
5 25 20 25 15 0 20 -7 20 -25z"/>
<path d="M901 501 c1 -36 1 -36 8 -6 3 17 13 30 21 30 8 0 18 -13 22 -30 6
-29 6 -29 5 5 -2 31 -5 35 -29 36 -26 1 -28 -2 -27 -35z"/>
<path d="M976 527 c3 -10 9 -15 12 -12 3 3 0 11 -7 18 -10 9 -11 8 -5 -6z"/>
<path d="M1056 531 c-3 -5 3 -7 14 -4 11 3 20 1 20 -5 0 -6 -12 -13 -27 -15
-26 -4 -25 -4 5 -6 27 -1 33 2 30 16 -4 20 -33 29 -42 14z"/>
<path d="M1121 500 c1 -27 3 -29 6 -10 2 14 11 30 20 37 13 10 13 12 -6 10
-17 -1 -21 -7 -20 -37z"/>
<path d="M1174 528 c-4 -6 0 -16 9 -23 22 -16 21 -22 0 -28 -16 -4 -16 -5 -1
-6 24 -2 34 20 15 34 -22 16 -21 22 1 28 15 4 15 5 0 6 -9 0 -20 -4 -24 -11z"/>
<path d="M1233 505 c0 -22 2 -30 4 -17 2 12 2 30 0 40 -3 9 -5 -1 -4 -23z"/>
<path d="M1264 526 c-14 -37 22 -74 47 -49 6 6 1 9 -13 9 -14 -1 -24 6 -26 17
-4 22 27 35 40 16 8 -12 9 -11 5 1 -5 20 -46 25 -53 6z"/>
<path d="M1353 505 c0 -22 2 -30 4 -17 2 12 2 30 0 40 -3 9 -5 -1 -4 -23z"/>
<path d="M1377 533 c6 -4 13 -22 16 -38 4 -27 5 -27 3 4 0 21 -7 36 -16 38
-10 3 -11 2 -3 -4z"/>
<path d="M1550 536 c0 -2 9 -6 20 -9 11 -3 20 -1 20 4 0 5 -9 9 -20 9 -11 0
-20 -2 -20 -4z"/>
<path d="M1670 525 c-18 -22 -1 -49 31 -52 19 -1 20 -1 4 4 -34 9 -41 23 -11
23 21 0 27 4 24 17 -4 24 -32 28 -48 8z m40 -5 c0 -5 -9 -10 -21 -10 -11 0
-17 5 -14 10 3 6 13 10 21 10 8 0 14 -4 14 -10z"/>
<path d="M5346 531 c-4 -5 3 -7 14 -4 23 6 26 13 6 13 -8 0 -17 -4 -20 -9z"/>
<path d="M5410 525 c-18 -22 -8 -50 20 -52 25 -3 25 -3 3 7 -13 5 -23 16 -23
25 0 9 10 20 23 25 15 6 17 9 6 9 -9 1 -22 -6 -29 -14z"/>
<path d="M5476 532 c-3 -5 5 -8 17 -8 16 1 22 -5 22 -19 0 -14 -6 -20 -22 -19
-12 0 -20 -3 -17 -8 17 -27 59 9 49 42 -6 20 -39 28 -49 12z"/>
<path d="M5553 508 c2 -28 6 -33 30 -34 25 -1 27 2 26 35 -1 36 -1 36 -8 6 -9
-42 -38 -45 -45 -6 l-6 31 3 -32z"/>
<path d="M5631 501 c1 -36 1 -36 8 -6 3 17 13 30 21 30 8 0 18 -13 22 -30 6
-29 6 -29 5 5 -2 31 -5 35 -29 36 -26 1 -28 -2 -27 -35z"/>
<path d="M8090 525 c-18 -22 -1 -49 31 -52 19 -1 20 -1 4 4 -34 9 -41 23 -11
23 21 0 27 4 24 17 -4 24 -32 28 -48 8z m40 -5 c0 -5 -9 -10 -21 -10 -11 0
-17 5 -14 10 3 6 13 10 21 10 8 0 14 -4 14 -10z"/>
<path d="M8166 531 c-3 -5 3 -7 14 -4 11 3 20 1 20 -5 0 -6 -12 -13 -27 -15
-26 -4 -25 -4 5 -6 27 -1 33 2 30 16 -4 20 -33 29 -42 14z"/>
<path d="M8335 527 c16 -58 17 -70 4 -78 -11 -7 -11 -9 -1 -9 14 0 33 42 23
50 -4 3 -12 16 -19 30 -7 14 -10 17 -7 7z"/>
<path d="M1480 514 c8 -4 23 -16 34 -28 l18 -21 -14 25 c-9 14 -24 26 -34 27
-13 2 -14 1 -4 -3z"/>
<path d="M7971 513 c-2 -20 11 -43 20 -37 5 3 9 13 9 22 0 14 -2 14 -9 3 -7
-11 -10 -10 -14 5 -2 10 -5 14 -6 7z"/>
<path d="M8050 504 c0 -16 -2 -17 -10 -4 -8 13 -10 13 -10 -2 0 -26 18 -31 25
-7 4 11 4 23 1 26 -3 4 -6 -2 -6 -13z"/>
<path d="M1545 500 c-3 -5 -3 -14 0 -20 8 -12 32 -13 39 -1 4 5 -3 7 -14 4
-11 -3 -20 -1 -20 5 0 6 10 13 23 15 22 4 22 4 0 6 -12 0 -25 -3 -28 -9z"/>
<path d="M11578 503 c6 -2 18 -2 25 0 6 3 1 5 -13 5 -14 0 -19 -2 -12 -5z"/>
<path d="M990 491 c0 -6 4 -13 10 -16 6 -3 7 1 4 9 -7 18 -14 21 -14 7z"/>
<path d="M1058 478 c6 -6 18 -8 28 -6 14 3 12 5 -9 10 -19 3 -25 2 -19 -4z"/>
<path d="M5348 478 c5 -5 16 -8 23 -6 8 3 3 7 -10 11 -17 4 -21 3 -13 -5z"/>
<path d="M8168 478 c6 -6 18 -8 28 -6 14 3 12 5 -9 10 -19 3 -25 2 -19 -4z"/>
</g>
</svg>
