<?xml version="1.0" standalone="no"?>
<!DOCTYPE svg PUBLIC "-//W3C//DTD SVG 20010904//EN"
 "http://www.w3.org/TR/2001/REC-SVG-20010904/DTD/svg10.dtd">
<svg version="1.0" xmlns="http://www.w3.org/2000/svg"
 width="1602.000000pt" height="774.000000pt" viewBox="0 0 1602.000000 774.000000"
 preserveAspectRatio="xMidYMid meet">

<g transform="translate(0.000000,774.000000) scale(0.100000,-0.100000)"
fill="#000000" stroke="none">
<path d="M1066 7180 c-18 -45 -21 -75 -5 -47 13 22 45 22 53 1 4 -9 9 -15 11
-12 7 6 -27 98 -36 98 -4 0 -14 -18 -23 -40z m34 -6 c0 -8 -7 -14 -15 -14 -17
0 -18 2 -9 24 7 18 24 12 24 -10z"/>
<path d="M1480 7189 c0 -41 16 -69 40 -69 24 0 40 28 40 69 0 47 -18 37 -22
-11 -2 -30 -8 -43 -18 -43 -10 0 -16 13 -18 43 -4 48 -22 58 -22 11z"/>
<path d="M5050 7171 c0 -28 5 -51 10 -51 6 0 10 8 10 19 0 10 9 21 21 24 32 9
22 51 -13 55 -27 3 -28 2 -28 -47z m48 16 c2 -10 -3 -17 -12 -17 -10 0 -16 9
-16 21 0 24 23 21 28 -4z"/>
<path d="M5330 7170 c0 -27 5 -50 10 -50 6 0 10 23 10 50 0 28 -4 50 -10 50
-5 0 -10 -22 -10 -50z"/>
<path d="M5610 7182 c0 -42 14 -62 42 -62 20 0 38 36 38 76 0 42 -19 26 -22
-18 -2 -30 -8 -43 -18 -43 -10 0 -16 13 -18 43 -4 52 -22 56 -22 4z"/>
<path d="M9066 7180 c-18 -45 -21 -75 -5 -47 13 22 45 22 53 1 4 -9 9 -15 11
-12 7 6 -27 98 -36 98 -4 0 -14 -18 -23 -40z m34 -6 c0 -8 -7 -14 -15 -14 -17
0 -18 2 -9 24 7 18 24 12 24 -10z"/>
<path d="M9496 7204 c-19 -18 -21 -55 -4 -72 14 -14 58 -16 58 -2 0 5 -7 7
-15 4 -20 -8 -45 13 -45 37 0 20 35 44 50 34 6 -3 10 -1 10 4 0 17 -37 13 -54
-5z"/>
<path d="M9640 7170 c0 -27 5 -50 10 -50 6 0 10 23 10 50 0 28 -4 50 -10 50
-5 0 -10 -22 -10 -50z"/>
<path d="M9683 7170 c0 -30 2 -43 4 -27 2 15 2 39 0 55 -2 15 -4 2 -4 -28z"/>
<path d="M13062 7208 c-27 -27 -8 -88 28 -88 21 0 50 31 50 53 0 37 -52 61
-78 35z m56 -34 c2 -22 -2 -33 -14 -38 -34 -13 -59 35 -32 62 21 21 43 9 46
-24z"/>
<path d="M13283 7170 c0 -30 2 -43 4 -27 3 21 10 27 28 27 18 0 25 -6 28 -27
2 -16 4 -3 4 27 0 30 -2 45 -4 33 -3 -16 -11 -23 -28 -23 -17 0 -25 7 -28 23
-2 12 -4 -3 -4 -33z"/>
<path d="M13473 7170 c0 -30 2 -43 4 -27 2 15 2 39 0 55 -2 15 -4 2 -4 -28z"/>
<path d="M13550 7202 c0 -13 -7 -18 -22 -18 -19 1 -23 -4 -23 -29 0 -26 4 -30
28 -31 26 -1 27 1 27 47 0 27 -2 49 -5 49 -3 0 -5 -8 -5 -18z m-3 -38 c8 -21
-13 -42 -28 -27 -13 13 -5 43 11 43 6 0 13 -7 17 -16z"/>
<path d="M1218 7199 c-2 -6 -2 -26 0 -45 3 -24 9 -34 21 -33 10 0 11 2 4 6
-15 5 -18 50 -4 55 5 2 3 8 -4 15 -9 9 -15 9 -17 2z"/>
<path d="M9218 7199 c-2 -6 -2 -26 0 -45 3 -24 9 -34 21 -33 10 0 11 2 4 6
-15 5 -18 50 -4 55 5 2 3 8 -4 15 -9 9 -15 9 -17 2z"/>
<path d="M1149 7174 c-16 -19 -1 -48 27 -52 18 -3 18 -2 2 8 -10 6 -18 17 -18
25 0 8 8 19 18 24 15 9 15 10 1 11 -9 0 -22 -7 -30 -16z"/>
<path d="M1260 7155 c0 -19 5 -35 10 -35 6 0 10 16 10 35 0 19 -4 35 -10 35
-5 0 -10 -16 -10 -35z"/>
<path d="M1302 7159 c16 -38 28 -38 44 0 7 17 9 31 5 31 -5 0 -12 -12 -16 -27
l-8 -28 -10 28 c-6 15 -15 27 -19 27 -4 0 -2 -14 4 -31z"/>
<path d="M1374 7176 c-11 -28 1 -51 26 -53 l25 -3 -25 12 -25 12 28 4 c29 4
33 12 15 30 -16 16 -37 15 -44 -2z m36 -6 c0 -5 -7 -10 -16 -10 -8 0 -12 5 -9
10 3 6 10 10 16 10 5 0 9 -4 9 -10z"/>
<path d="M1584 7178 c-4 -6 0 -16 9 -23 22 -16 21 -22 0 -28 -16 -4 -16 -5 -1
-6 24 -2 34 20 15 34 -22 16 -21 22 1 28 15 4 15 5 0 6 -9 0 -20 -4 -24 -11z"/>
<path d="M1644 7176 c-11 -28 1 -51 26 -53 l25 -3 -25 12 -25 12 28 4 c29 4
33 12 15 30 -16 16 -37 15 -44 -2z m36 -6 c0 -5 -7 -10 -16 -10 -8 0 -12 5 -9
10 3 6 10 10 16 10 5 0 9 -4 9 -10z"/>
<path d="M1723 7155 c0 -22 2 -30 4 -17 2 12 2 30 0 40 -3 9 -5 -1 -4 -23z"/>
<path d="M1764 7179 c-4 -7 3 -20 16 -29 22 -17 23 -18 4 -23 -15 -4 -16 -5
-2 -6 24 -2 34 20 15 34 -22 16 -21 22 1 28 13 4 12 5 -5 6 -12 0 -25 -4 -29
-10z"/>
<path d="M5134 7176 c-11 -28 1 -51 26 -53 l25 -3 -25 12 -25 12 28 4 c29 4
33 12 15 30 -16 16 -37 15 -44 -2z m36 -6 c0 -5 -7 -10 -16 -10 -8 0 -12 5 -9
10 3 6 10 10 16 10 5 0 9 -4 9 -10z"/>
<path d="M5211 7150 c1 -34 1 -34 8 -6 9 41 31 46 31 7 0 -17 5 -31 10 -31 12
0 13 40 2 57 -4 7 -18 11 -30 10 -18 -1 -22 -7 -21 -37z"/>
<path d="M5289 7174 c-14 -17 -3 -44 22 -53 9 -3 8 1 -4 13 -21 21 -21 21 -1
40 8 9 11 16 6 16 -5 0 -15 -7 -23 -16z"/>
<path d="M5373 7155 c0 -22 2 -30 4 -17 2 12 2 30 0 40 -3 9 -5 -1 -4 -23z"/>
<path d="M5411 7150 c1 -34 1 -34 8 -6 9 41 31 46 31 7 0 -17 5 -31 10 -31 12
0 13 40 2 57 -4 7 -18 11 -30 10 -18 -1 -22 -7 -21 -37z"/>
<path d="M5489 7174 c-14 -17 -3 -46 19 -50 7 -1 8 0 2 3 -5 2 -10 16 -10 30
0 18 5 24 18 21 28 -5 22 -60 -8 -75 -23 -12 -23 -13 -4 -13 30 0 44 19 44 60
0 30 -4 36 -24 38 -13 1 -30 -5 -37 -14z"/>
<path d="M5714 7178 c-4 -6 0 -16 9 -23 22 -16 21 -22 0 -28 -16 -4 -16 -5 -1
-6 24 -2 34 20 15 34 -22 16 -21 22 1 28 15 4 15 5 0 6 -9 0 -20 -4 -24 -11z"/>
<path d="M5774 7176 c-11 -28 1 -51 26 -53 l25 -3 -25 12 -25 12 28 4 c29 4
33 12 15 30 -16 16 -37 15 -44 -2z m36 -6 c0 -5 -7 -10 -16 -10 -8 0 -12 5 -9
10 3 6 10 10 16 10 5 0 9 -4 9 -10z"/>
<path d="M5853 7155 c0 -22 2 -30 4 -17 2 12 2 30 0 40 -3 9 -5 -1 -4 -23z"/>
<path d="M5894 7179 c-4 -7 3 -20 16 -29 22 -17 23 -18 4 -23 -15 -4 -16 -5
-2 -6 24 -2 34 20 15 34 -22 16 -21 22 1 28 13 4 12 5 -5 6 -12 0 -25 -4 -29
-10z"/>
<path d="M9149 7174 c-16 -19 -1 -48 27 -52 18 -3 18 -2 2 8 -10 6 -18 17 -18
25 0 8 8 19 18 24 15 9 15 10 1 11 -9 0 -22 -7 -30 -16z"/>
<path d="M9260 7155 c0 -19 5 -35 10 -35 6 0 10 16 10 35 0 19 -4 35 -10 35
-5 0 -10 -16 -10 -35z"/>
<path d="M9302 7159 c16 -38 28 -38 44 0 7 17 9 31 5 31 -5 0 -12 -12 -16 -27
l-8 -28 -10 28 c-6 15 -15 27 -19 27 -4 0 -2 -14 4 -31z"/>
<path d="M9374 7176 c-11 -28 1 -51 26 -53 l25 -3 -25 12 -25 12 28 4 c29 4
33 12 15 30 -16 16 -37 15 -44 -2z m36 -6 c0 -5 -7 -10 -16 -10 -8 0 -12 5 -9
10 3 6 10 10 16 10 5 0 9 -4 9 -10z"/>
<path d="M9594 7177 c18 -13 18 -14 -3 -20 -31 -8 -28 -37 4 -35 22 2 26 7 23
33 -2 21 -9 31 -23 33 -19 4 -20 3 -1 -11z m11 -37 c-3 -5 -10 -10 -16 -10 -5
0 -9 5 -9 10 0 6 7 10 16 10 8 0 12 -4 9 -10z"/>
<path d="M9714 7178 c-4 -6 0 -16 9 -23 22 -16 21 -22 0 -28 -14 -4 -13 -5 4
-6 30 -1 40 19 17 36 -16 12 -17 15 -4 23 13 8 13 10 -2 10 -9 0 -20 -5 -24
-12z"/>
<path d="M13161 7150 c1 -34 1 -34 8 -6 9 41 31 46 31 7 0 -17 5 -31 10 -31
12 0 13 40 2 57 -4 7 -18 11 -30 10 -18 -1 -22 -7 -21 -37z"/>
<path d="M13393 7183 c-7 -2 -13 -15 -13 -28 0 -31 36 -43 58 -21 27 27 -8 65
-45 49z m35 -31 c2 -14 -2 -22 -12 -22 -19 0 -29 17 -22 36 8 22 30 12 34 -14z"/>
<path d="M528 7104 c-30 -16 -58 -61 -58 -94 0 -53 57 -110 110 -110 53 0 110
57 110 110 0 34 -28 78 -60 95 -36 19 -67 19 -102 -1z m122 -30 c35 -34 34
-94 -3 -131 -61 -61 -160 -20 -160 66 0 90 97 128 163 65z"/>
<path d="M588 7013 c-23 -22 -29 -24 -42 -13 -9 7 -16 8 -16 2 0 -5 7 -15 16
-23 13 -11 21 -7 52 24 20 20 32 37 27 37 -6 0 -22 -12 -37 -27z"/>
<path d="M4570 7069 c0 -45 -2 -50 -15 -39 -26 22 -26 5 0 -20 l25 -23 25 23
c26 25 26 42 0 20 -13 -11 -15 -6 -15 39 0 28 -4 51 -10 51 -5 0 -10 -23 -10
-51z"/>
<path d="M8528 7104 c-30 -16 -58 -61 -58 -94 0 -34 28 -78 60 -95 16 -8 38
-15 50 -15 34 0 78 28 95 60 8 16 15 38 15 50 0 34 -28 78 -60 95 -36 19 -67
19 -102 -1z m122 -30 c35 -34 34 -94 -3 -131 -61 -61 -160 -20 -160 66 0 90
97 128 163 65z"/>
<path d="M8570 7040 l0 -40 40 0 c22 0 40 5 40 10 0 6 -13 10 -30 10 -27 0
-30 3 -30 30 0 17 -4 30 -10 30 -5 0 -10 -18 -10 -40z"/>
<path d="M12528 7104 c-30 -16 -58 -61 -58 -94 0 -53 57 -110 110 -110 53 0
110 57 110 110 0 34 -28 78 -60 95 -36 19 -67 19 -102 -1z m122 -30 c35 -34
34 -94 -3 -131 -61 -61 -160 -20 -160 66 0 90 97 128 163 65z"/>
<path d="M12553 7010 c0 -25 2 -35 4 -22 2 12 2 32 0 45 -2 12 -4 2 -4 -23z"/>
<path d="M12603 7010 c0 -25 2 -35 4 -22 2 12 2 32 0 45 -2 12 -4 2 -4 -23z"/>
<path d="M4482 6958 l-2 -48 100 0 100 0 -2 48 c-1 43 -2 44 -5 10 l-4 -38
-89 0 -89 0 -4 38 c-3 34 -4 33 -5 -10z"/>
<path d="M1103 6923 c-41 -21 -47 -57 -8 -47 l25 6 0 -76 c0 -69 2 -76 20 -76
19 0 20 7 20 105 0 115 -1 116 -57 88z"/>
<path d="M1326 6903 c-12 -75 -10 -81 32 -85 29 -2 37 -7 37 -23 0 -16 -8 -21
-38 -23 -30 -3 -37 -7 -35 -20 2 -12 15 -18 40 -20 50 -4 93 35 83 76 -7 33
-31 52 -62 52 -16 0 -23 6 -23 20 0 17 7 20 40 20 33 0 40 3 40 20 0 18 -7 20
-54 20 l-53 0 -7 -37z"/>
<path d="M1512 6924 c-24 -16 -29 -53 -10 -72 9 -9 8 -16 -5 -30 -36 -40 -3
-92 58 -92 61 0 94 52 58 92 -13 14 -14 21 -5 30 31 31 -4 88 -53 88 -11 0
-31 -7 -43 -16z m66 -42 c3 -17 -2 -22 -18 -22 -25 0 -38 29 -19 41 20 13 34
6 37 -19z m2 -77 c10 -12 10 -18 0 -30 -7 -8 -18 -15 -25 -15 -7 0 -18 7 -25
15 -10 12 -10 18 0 30 7 8 18 15 25 15 7 0 18 -7 25 -15z"/>
<path d="M1690 6911 c-26 -25 -30 -37 -30 -83 0 -44 4 -59 23 -76 46 -43 117
-14 117 47 0 50 -56 81 -88 49 -16 -16 -17 5 -2 33 8 13 21 19 46 19 28 0 35
4 32 18 -2 11 -14 18 -36 20 -25 3 -39 -3 -62 -27z m60 -96 c17 -20 5 -45 -20
-45 -11 0 -23 7 -26 15 -6 15 11 45 26 45 4 0 13 -7 20 -15z"/>
<path d="M5078 6929 c-33 -19 -21 -36 23 -35 58 1 59 -17 5 -67 -25 -23 -48
-54 -52 -69 l-6 -28 71 0 c64 0 71 2 71 20 0 17 -7 20 -46 20 l-47 0 47 41
c34 31 46 48 46 69 0 48 -65 77 -112 49z"/>
<path d="M5258 6920 c-30 -23 -42 -80 -27 -133 17 -61 81 -78 118 -31 29 37
30 135 1 164 -25 25 -60 26 -92 0z m66 -36 c3 -9 6 -31 6 -49 0 -46 -9 -65
-30 -65 -21 0 -30 19 -30 65 0 46 9 65 30 65 10 0 21 -7 24 -16z"/>
<path d="M5420 6920 c-23 -23 -26 -68 -7 -94 10 -14 23 -17 50 -14 41 4 41 4
27 -23 -8 -13 -21 -19 -46 -19 -28 0 -35 -4 -32 -17 6 -34 73 -28 108 9 29 31
28 125 0 156 -26 28 -73 29 -100 2z m75 -50 c0 -33 -40 -41 -50 -11 -9 28 2
43 28 39 16 -2 22 -10 22 -28z"/>
<path d="M9079 6921 c-22 -18 -23 -22 -12 -51 10 -27 9 -36 -3 -56 -20 -29
-11 -58 22 -72 75 -35 151 30 98 83 -13 12 -14 19 -5 28 16 16 14 53 -5 71
-21 22 -67 20 -95 -3z m69 -39 c3 -16 -2 -22 -17 -22 -26 0 -36 17 -20 36 16
19 33 13 37 -14z m8 -77 c7 -18 -13 -45 -33 -45 -17 0 -27 24 -19 45 7 20 45
19 52 0z"/>
<path d="M9326 6903 c-12 -75 -10 -81 32 -85 29 -2 37 -7 37 -23 0 -16 -8 -21
-38 -23 -30 -3 -37 -7 -35 -20 2 -12 15 -18 40 -20 50 -4 93 35 83 76 -7 33
-31 52 -62 52 -16 0 -23 6 -23 20 0 17 7 20 40 20 33 0 40 3 40 20 0 18 -7 20
-54 20 l-53 0 -7 -37z"/>
<path d="M9522 6933 c-22 -9 -42 -60 -42 -108 0 -79 71 -124 120 -75 25 25 34
61 27 113 -8 60 -54 91 -105 70z m53 -98 c0 -53 -2 -60 -20 -60 -15 0 -22 9
-28 35 -11 45 6 93 31 88 14 -3 17 -14 17 -63z"/>
<path d="M9677 6933 c-16 -16 -5 -32 26 -35 24 -2 32 -8 32 -23 0 -14 -8 -21
-27 -23 -41 -5 -39 -42 1 -42 27 0 47 -20 34 -34 -4 -3 -24 -6 -45 -6 -32 0
-39 -3 -36 -17 4 -25 71 -30 104 -8 29 19 32 60 5 77 -16 10 -17 14 -5 25 21
21 18 70 -5 83 -22 11 -74 14 -84 3z"/>
<path d="M13078 6929 c-33 -19 -21 -36 23 -35 58 1 59 -17 5 -67 -25 -23 -48
-54 -52 -69 l-6 -28 71 0 c64 0 71 2 71 20 0 17 -7 20 -46 20 l-47 0 47 41
c34 31 46 48 46 69 0 48 -65 77 -112 49z"/>
<path d="M13376 6908 c-11 -18 -32 -49 -48 -69 -41 -54 -38 -69 17 -69 38 0
45 -3 45 -20 0 -13 7 -20 20 -20 13 0 20 7 20 20 0 11 7 20 15 20 8 0 15 6 15
14 0 8 -7 16 -15 20 -11 4 -15 22 -15 71 0 56 -3 65 -18 65 -10 0 -26 -15 -36
-32z m14 -73 c0 -28 -4 -35 -20 -35 -11 0 -20 3 -20 6 0 7 33 64 37 64 2 0 3
-16 3 -35z"/>
<path d="M13503 6933 c-28 -11 -13 -33 21 -33 19 0 38 -5 41 -10 9 -15 -14
-40 -36 -40 -12 0 -19 -7 -19 -20 0 -16 7 -20 30 -20 23 0 30 -4 30 -20 0 -17
-7 -20 -41 -20 -33 0 -40 -3 -37 -17 4 -22 52 -29 91 -14 37 14 47 58 19 82
-19 15 -20 18 -7 29 21 17 19 53 -3 73 -18 16 -63 21 -89 10z"/>
<path d="M13681 6921 c-40 -40 -39 -147 2 -176 29 -20 60 -19 88 4 34 27 40
125 9 164 -26 33 -71 36 -99 8z m70 -48 c16 -40 0 -98 -26 -98 -17 0 -20 8
-23 49 -2 27 -1 55 2 62 9 23 36 16 47 -13z"/>
<path d="M1230 6741 c0 -11 -3 -26 -6 -35 -4 -11 0 -16 14 -16 12 0 22 9 26
23 10 37 7 47 -14 47 -13 0 -20 -7 -20 -19z"/>
<path d="M9230 6741 c0 -11 -3 -26 -6 -35 -4 -11 0 -16 14 -16 12 0 22 9 26
23 10 37 7 47 -14 47 -13 0 -20 -7 -20 -19z"/>
<path d="M13230 6741 c0 -11 -3 -26 -6 -35 -4 -11 0 -16 14 -16 12 0 22 9 26
23 10 37 7 47 -14 47 -13 0 -20 -7 -20 -19z"/>
<path d="M853 6414 c9 -3 17 -12 17 -19 0 -7 -8 -16 -17 -18 -17 -4 -17 -5 0
-6 20 -1 24 -37 5 -44 -8 -2 -7 -3 2 -3 11 1 15 13 15 46 0 37 -3 45 -20 47
-16 1 -16 1 -2 -3z"/>
<path d="M915 6411 c-3 -6 0 -8 8 -5 25 9 30 -16 8 -40 -29 -30 -26 -46 7 -45
23 2 24 2 5 6 -28 5 -29 14 -2 36 11 10 19 26 17 35 -4 19 -33 28 -43 13z"/>
<path d="M1060 6415 c-1 -5 -1 -20 0 -32 1 -16 -4 -23 -16 -23 -14 0 -15 2 -3
18 13 15 12 16 -3 3 -23 -18 -23 -31 1 -31 11 0 21 -8 23 -17 7 -35 14 20 7
57 -3 19 -7 31 -9 25z"/>
<path d="M1112 6408 c-31 -31 0 -105 33 -78 25 21 14 90 -15 90 -3 0 -11 -5
-18 -12z m33 -39 c0 -24 -5 -34 -15 -34 -16 0 -25 37 -16 62 10 26 31 8 31
-28z"/>
<path d="M1363 6370 c0 -30 2 -43 4 -27 2 15 2 39 0 55 -2 15 -4 2 -4 -28z"/>
<path d="M1913 6370 c0 -30 2 -43 4 -27 2 15 2 39 0 55 -2 15 -4 2 -4 -28z"/>
<path d="M4870 6415 c-1 -5 -1 -20 0 -32 1 -16 -4 -23 -16 -23 -14 0 -15 2 -3
18 13 15 12 16 -3 3 -23 -18 -23 -31 1 -31 11 0 21 -8 23 -17 7 -35 14 20 7
57 -3 19 -7 31 -9 25z"/>
<path d="M4922 6408 c-31 -31 0 -105 33 -78 25 21 14 90 -15 90 -3 0 -11 -5
-18 -12z m33 -39 c0 -24 -5 -34 -15 -34 -16 0 -25 37 -16 62 10 26 31 8 31
-28z"/>
<path d="M5026 6411 c-3 -5 3 -7 14 -4 27 7 27 -27 0 -52 -28 -26 -25 -35 13
-34 31 2 31 2 3 6 l-28 5 22 23 c12 13 20 31 18 41 -4 21 -33 31 -42 15z"/>
<path d="M5112 6411 c-17 -11 -12 -43 8 -49 13 -5 13 -3 1 12 -15 18 -2 44 17
32 17 -10 10 -56 -11 -71 -12 -8 -16 -15 -10 -15 34 0 56 63 31 88 -14 14 -19
15 -36 3z"/>
<path d="M5363 6370 c0 -30 2 -43 4 -27 2 15 2 39 0 55 -2 15 -4 2 -4 -28z"/>
<path d="M5913 6370 c0 -30 2 -43 4 -27 2 15 2 39 0 55 -2 15 -4 2 -4 -28z"/>
<path d="M8810 6409 c23 -10 24 -11 7 -24 -15 -11 -16 -13 -2 -19 22 -8 18
-25 -7 -36 -23 -10 -23 -10 2 -7 23 2 25 6 25 47 0 41 -2 45 -25 47 l-25 3 25
-11z"/>
<path d="M8870 6411 c0 -6 6 -8 14 -5 27 10 28 -18 2 -45 -34 -35 -33 -41 7
-40 23 1 26 3 10 6 -28 5 -29 14 -2 31 27 17 22 56 -8 60 -13 2 -23 -1 -23 -7z"/>
<path d="M8993 6390 c-28 -35 -28 -40 -3 -40 11 0 20 -7 20 -15 0 -21 18 -19
22 3 5 24 -3 82 -11 81 -3 0 -16 -13 -28 -29z m17 -15 c0 -8 -4 -15 -10 -15
-5 0 -7 7 -4 15 4 8 8 15 10 15 2 0 4 -7 4 -15z"/>
<path d="M9060 6395 c-11 -29 3 -75 23 -75 21 0 37 22 37 50 0 50 -44 68 -60
25z m43 -5 c7 -27 -3 -62 -17 -57 -6 2 -12 14 -14 26 -7 45 20 72 31 31z"/>
<path d="M9134 6405 c-7 -18 3 -35 21 -35 15 0 24 19 18 38 -6 17 -32 15 -39
-3z m28 -10 c0 -5 -5 -11 -11 -13 -6 -2 -11 4 -11 13 0 9 5 15 11 13 6 -2 11
-8 11 -13z"/>
<path d="M9320 6370 c0 -46 2 -50 23 -49 16 1 18 2 5 6 -26 7 -26 83 0 83 10
0 24 -6 32 -12 12 -11 12 -10 1 5 -7 9 -24 17 -37 17 -22 0 -24 -4 -24 -50z"/>
<path d="M10003 6370 c0 -30 2 -43 4 -27 2 15 2 39 0 55 -2 15 -4 2 -4 -28z"/>
<path d="M10583 6370 c0 -30 2 -43 4 -27 2 15 2 39 0 55 -2 15 -4 2 -4 -28z"/>
<path d="M12853 6414 c9 -3 17 -12 17 -19 0 -7 -8 -16 -17 -18 -17 -4 -17 -5
0 -6 20 -1 24 -37 5 -44 -8 -2 -7 -3 2 -3 11 1 15 13 15 46 0 37 -3 45 -20 47
-16 1 -16 1 -2 -3z"/>
<path d="M12915 6411 c-3 -6 0 -8 8 -5 25 9 30 -16 8 -40 -29 -30 -26 -46 7
-45 23 2 24 2 5 6 -28 5 -29 14 -2 36 11 10 19 26 17 35 -4 19 -33 28 -43 13z"/>
<path d="M13060 6415 c-1 -5 -1 -20 0 -32 1 -16 -4 -23 -16 -23 -14 0 -15 2
-3 18 13 15 12 16 -3 3 -23 -18 -23 -31 1 -31 11 0 21 -8 23 -17 7 -35 14 20
7 57 -3 19 -7 31 -9 25z"/>
<path d="M13112 6408 c-31 -31 0 -105 33 -78 25 21 14 90 -15 90 -3 0 -11 -5
-18 -12z m33 -39 c0 -24 -5 -34 -15 -34 -16 0 -25 37 -16 62 10 26 31 8 31
-28z"/>
<path d="M13363 6370 c0 -30 2 -43 4 -27 2 15 2 39 0 55 -2 15 -4 2 -4 -28z"/>
<path d="M13913 6370 c0 -30 2 -43 4 -27 2 15 2 39 0 55 -2 15 -4 2 -4 -28z"/>
<path d="M495 6368 l-40 -43 43 40 c23 21 42 40 42 42 0 8 -9 0 -45 -39z"/>
<path d="M2148 6397 c-7 -21 6 -70 20 -73 7 -1 8 0 2 3 -12 6 -13 50 -1 55 5
2 3 8 -4 15 -10 9 -14 9 -17 0z"/>
<path d="M2519 6399 c-2 -27 3 -64 9 -71 4 -4 6 11 5 33 -1 39 -12 67 -14 38z"/>
<path d="M4495 6368 l-40 -43 43 40 c23 21 42 40 42 42 0 8 -9 0 -45 -39z"/>
<path d="M6148 6397 c-7 -21 6 -70 20 -73 7 -1 8 0 2 3 -12 6 -13 50 -1 55 5
2 3 8 -4 15 -10 9 -14 9 -17 0z"/>
<path d="M6519 6399 c-2 -27 3 -64 9 -71 4 -4 6 11 5 33 -1 39 -12 67 -14 38z"/>
<path d="M8460 6407 c0 -2 15 -16 33 -33 l32 -29 -29 33 c-28 30 -36 37 -36
29z"/>
<path d="M12495 6368 l-40 -43 43 40 c39 36 47 45 39 45 -2 0 -21 -19 -42 -42z"/>
<path d="M14148 6397 c-7 -21 6 -70 20 -73 7 -1 8 0 2 3 -12 6 -13 50 -1 55 5
2 3 8 -4 15 -10 9 -14 9 -17 0z"/>
<path d="M14519 6399 c-2 -27 3 -64 9 -71 4 -4 6 11 5 33 -1 39 -12 67 -14 38z"/>
<path d="M8528 6373 c-2 -22 -9 -29 -30 -31 -43 -5 -33 -24 10 -20 35 3 37 5
40 41 4 42 -15 52 -20 10z"/>
<path d="M1406 6381 c-3 -5 2 -7 13 -4 16 4 20 -1 24 -29 l5 -33 -2 35 c-1 34
-26 54 -40 31z"/>
<path d="M1498 6383 c7 -3 16 -2 19 1 4 3 -2 6 -13 5 -11 0 -14 -3 -6 -6z"/>
<path d="M1543 6355 c0 -22 2 -30 4 -17 2 12 2 30 0 40 -3 9 -5 -1 -4 -23z"/>
<path d="M1596 6381 c-4 -5 3 -7 14 -4 23 6 26 13 6 13 -8 0 -17 -4 -20 -9z"/>
<path d="M1678 6383 c7 -3 16 -2 19 1 4 3 -2 6 -13 5 -11 0 -14 -3 -6 -6z"/>
<path d="M1734 6378 c-4 -6 0 -16 9 -23 22 -16 21 -22 0 -28 -16 -4 -16 -5 -1
-6 24 -2 34 20 15 34 -22 16 -21 22 1 28 15 4 15 5 0 6 -9 0 -20 -4 -24 -11z"/>
<path d="M1797 6383 c-17 -16 -6 -33 21 -32 23 2 24 2 5 6 -13 2 -23 9 -23 15
0 6 9 8 20 5 11 -3 18 -1 14 4 -6 11 -28 12 -37 2z"/>
<path d="M2038 6383 c7 -3 16 -2 19 1 4 3 -2 6 -13 5 -11 0 -14 -3 -6 -6z"/>
<path d="M2098 6383 c7 -3 16 -2 19 1 4 3 -2 6 -13 5 -11 0 -14 -3 -6 -6z"/>
<path d="M2247 6383 c-3 -5 6 -9 20 -10 19 -1 22 1 12 8 -17 11 -26 11 -32 2z"/>
<path d="M2367 6383 c-3 -5 5 -8 18 -8 13 0 21 3 18 8 -2 4 -10 7 -18 7 -8 0
-16 -3 -18 -7z"/>
<path d="M2460 6386 c0 -2 7 -7 16 -10 8 -3 12 -2 9 4 -6 10 -25 14 -25 6z"/>
<path d="M2576 6381 c-3 -5 2 -7 13 -4 16 4 20 -1 24 -29 l5 -33 -2 35 c-1 34
-26 54 -40 31z"/>
<path d="M5406 6381 c-3 -5 2 -7 13 -4 16 4 20 -1 24 -29 l5 -33 -2 35 c-1 34
-26 54 -40 31z"/>
<path d="M5498 6383 c7 -3 16 -2 19 1 4 3 -2 6 -13 5 -11 0 -14 -3 -6 -6z"/>
<path d="M5543 6355 c0 -22 2 -30 4 -17 2 12 2 30 0 40 -3 9 -5 -1 -4 -23z"/>
<path d="M5596 6381 c-4 -5 3 -7 14 -4 23 6 26 13 6 13 -8 0 -17 -4 -20 -9z"/>
<path d="M5678 6383 c7 -3 16 -2 19 1 4 3 -2 6 -13 5 -11 0 -14 -3 -6 -6z"/>
<path d="M5734 6378 c-4 -6 0 -16 9 -23 22 -16 21 -22 0 -28 -16 -4 -16 -5 -1
-6 24 -2 34 20 15 34 -22 16 -21 22 1 28 15 4 15 5 0 6 -9 0 -20 -4 -24 -11z"/>
<path d="M5797 6383 c-17 -16 -6 -33 21 -32 23 2 24 2 5 6 -13 2 -23 9 -23 15
0 6 9 8 20 5 11 -3 18 -1 14 4 -6 11 -28 12 -37 2z"/>
<path d="M6038 6383 c7 -3 16 -2 19 1 4 3 -2 6 -13 5 -11 0 -14 -3 -6 -6z"/>
<path d="M6098 6383 c7 -3 16 -2 19 1 4 3 -2 6 -13 5 -11 0 -14 -3 -6 -6z"/>
<path d="M6247 6383 c-3 -5 6 -9 20 -10 19 -1 22 1 12 8 -17 11 -26 11 -32 2z"/>
<path d="M6367 6383 c-3 -5 5 -8 18 -8 13 0 21 3 18 8 -2 4 -10 7 -18 7 -8 0
-16 -3 -18 -7z"/>
<path d="M6443 6355 c0 -22 2 -30 4 -17 2 12 2 30 0 40 -3 9 -5 -1 -4 -23z"/>
<path d="M6460 6386 c0 -2 7 -7 16 -10 8 -3 12 -2 9 4 -6 10 -25 14 -25 6z"/>
<path d="M6576 6381 c-3 -5 2 -7 13 -4 16 4 20 -1 24 -29 l5 -33 -2 35 c-1 34
-26 54 -40 31z"/>
<path d="M9496 6381 c-4 -5 3 -7 14 -4 23 6 26 13 6 13 -8 0 -17 -4 -20 -9z"/>
<path d="M9553 6355 c0 -22 2 -30 4 -17 2 12 2 30 0 40 -3 9 -5 -1 -4 -23z"/>
<path d="M9607 6383 c-17 -16 -6 -33 21 -32 23 2 24 2 5 6 -13 2 -23 9 -23 15
0 6 9 8 20 5 11 -3 18 -1 14 4 -6 11 -28 12 -37 2z"/>
<path d="M9693 6384 c23 -7 22 -20 -4 -27 -22 -6 -22 -29 -1 -33 7 -1 8 0 2 3
-15 7 -12 23 4 23 8 0 17 -8 20 -17 2 -10 4 -2 3 17 -2 27 -7 35 -22 37 -16 1
-16 1 -2 -3z"/>
<path d="M9747 6383 c-12 -12 -7 -22 16 -33 20 -10 20 -10 5 3 -10 8 -18 17
-18 20 0 3 8 8 18 10 14 4 14 5 1 6 -9 0 -19 -2 -22 -6z"/>
<path d="M9887 6383 c-3 -5 5 -8 18 -8 13 0 21 3 18 8 -2 4 -10 7 -18 7 -8 0
-16 -3 -18 -7z"/>
<path d="M10053 6384 c21 -7 23 -24 3 -24 -8 0 -17 -4 -20 -9 -4 -5 3 -7 13
-4 13 3 21 -1 24 -14 3 -10 5 -2 4 17 -2 27 -7 35 -22 37 -16 1 -16 1 -2 -3z"/>
<path d="M10107 6383 c-12 -12 -7 -22 16 -33 20 -10 20 -10 5 3 -10 8 -18 17
-18 20 0 3 8 8 18 10 14 4 14 5 1 6 -9 0 -19 -2 -22 -6z"/>
<path d="M10168 6383 c7 -3 16 -2 19 1 4 3 -2 6 -13 5 -11 0 -14 -3 -6 -6z"/>
<path d="M10253 6355 c0 -22 2 -30 4 -17 2 12 2 30 0 40 -3 9 -5 -1 -4 -23z"/>
<path d="M10277 6383 c6 -4 13 -22 16 -38 4 -27 5 -27 3 4 0 21 -7 36 -16 38
-10 3 -11 2 -3 -4z"/>
<path d="M10310 6386 c0 -2 7 -7 16 -10 8 -3 12 -2 9 4 -6 10 -25 14 -25 6z"/>
<path d="M10376 6381 c-4 -5 3 -7 14 -4 23 6 26 13 6 13 -8 0 -17 -4 -20 -9z"/>
<path d="M10451 6350 c1 -34 2 -34 8 -6 3 16 15 33 26 37 17 6 15 7 -7 6 -25
-1 -28 -5 -27 -37z"/>
<path d="M10538 6383 c7 -3 16 -2 19 1 4 3 -2 6 -13 5 -11 0 -14 -3 -6 -6z"/>
<path d="M10600 6386 c0 -2 7 -7 16 -10 8 -3 12 -2 9 4 -6 10 -25 14 -25 6z"/>
<path d="M13406 6381 c-3 -5 2 -7 13 -4 16 4 20 -1 24 -29 l5 -33 -2 35 c-1
34 -26 54 -40 31z"/>
<path d="M13498 6383 c7 -3 16 -2 19 1 4 3 -2 6 -13 5 -11 0 -14 -3 -6 -6z"/>
<path d="M13543 6355 c0 -22 2 -30 4 -17 2 12 2 30 0 40 -3 9 -5 -1 -4 -23z"/>
<path d="M13596 6381 c-4 -5 3 -7 14 -4 23 6 26 13 6 13 -8 0 -17 -4 -20 -9z"/>
<path d="M13678 6383 c7 -3 16 -2 19 1 4 3 -2 6 -13 5 -11 0 -14 -3 -6 -6z"/>
<path d="M13734 6378 c-4 -6 0 -16 9 -23 22 -16 21 -22 0 -28 -16 -4 -16 -5
-1 -6 24 -2 34 20 15 34 -22 16 -21 22 1 28 15 4 15 5 0 6 -9 0 -20 -4 -24
-11z"/>
<path d="M13797 6383 c-17 -16 -6 -33 21 -32 23 2 24 2 5 6 -13 2 -23 9 -23
15 0 6 9 8 20 5 11 -3 18 -1 14 4 -6 11 -28 12 -37 2z"/>
<path d="M14038 6383 c7 -3 16 -2 19 1 4 3 -2 6 -13 5 -11 0 -14 -3 -6 -6z"/>
<path d="M14098 6383 c7 -3 16 -2 19 1 4 3 -2 6 -13 5 -11 0 -14 -3 -6 -6z"/>
<path d="M14247 6383 c-3 -5 6 -9 20 -10 19 -1 22 1 12 8 -17 11 -26 11 -32 2z"/>
<path d="M14367 6383 c-3 -5 5 -8 18 -8 13 0 21 3 18 8 -2 4 -10 7 -18 7 -8 0
-16 -3 -18 -7z"/>
<path d="M14460 6386 c0 -2 7 -7 16 -10 8 -3 12 -2 9 4 -6 10 -25 14 -25 6z"/>
<path d="M14576 6381 c-3 -5 2 -7 13 -4 16 4 20 -1 24 -29 l5 -33 -2 35 c-1
34 -26 54 -40 31z"/>
<path d="M753 6363 c9 -2 25 -2 35 0 9 3 1 5 -18 5 -19 0 -27 -2 -17 -5z"/>
<path d="M1471 6354 c0 -11 3 -14 6 -6 3 7 2 16 -1 19 -3 4 -6 -2 -5 -13z"/>
<path d="M1605 6360 l-30 -8 33 -1 c17 0 32 4 32 9 0 6 -1 9 -2 9 -2 -1 -16
-5 -33 -9z"/>
<path d="M1864 6345 c1 -12 9 -21 21 -22 14 -1 15 0 3 3 -9 3 -19 13 -21 22
-3 12 -4 11 -3 -3z"/>
<path d="M2322 6345 c0 -16 2 -22 5 -12 2 9 2 23 0 30 -3 6 -5 -1 -5 -18z"/>
<path d="M4753 6363 c9 -2 25 -2 35 0 9 3 1 5 -18 5 -19 0 -27 -2 -17 -5z"/>
<path d="M5471 6354 c0 -11 3 -14 6 -6 3 7 2 16 -1 19 -3 4 -6 -2 -5 -13z"/>
<path d="M5605 6360 l-30 -8 33 -1 c17 0 32 4 32 9 0 6 -1 9 -2 9 -2 -1 -16
-5 -33 -9z"/>
<path d="M5864 6345 c1 -12 9 -21 21 -22 14 -1 15 0 3 3 -9 3 -19 13 -21 22
-3 12 -4 11 -3 -3z"/>
<path d="M6322 6345 c0 -16 2 -22 5 -12 2 9 2 23 0 30 -3 6 -5 -1 -5 -18z"/>
<path d="M9193 6354 c-7 -18 11 -39 26 -30 17 11 13 46 -4 46 -9 0 -18 -7 -22
-16z m27 -9 c0 -8 -4 -15 -10 -15 -5 0 -10 7 -10 15 0 8 5 15 10 15 6 0 10 -7
10 -15z"/>
<path d="M9410 6355 c0 -7 11 -10 30 -7 17 2 30 5 30 7 0 2 -13 5 -30 7 -19 3
-30 0 -30 -7z"/>
<path d="M9800 6355 c0 -7 11 -10 30 -7 17 2 30 5 30 7 0 2 -13 5 -30 7 -19 3
-30 0 -30 -7z"/>
<path d="M10421 6354 c0 -11 3 -14 6 -6 3 7 2 16 -1 19 -3 4 -6 -2 -5 -13z"/>
<path d="M10502 6345 c0 -16 2 -22 5 -12 2 9 2 23 0 30 -3 6 -5 -1 -5 -18z"/>
<path d="M12753 6363 c9 -2 25 -2 35 0 9 3 1 5 -18 5 -19 0 -27 -2 -17 -5z"/>
<path d="M13471 6354 c0 -11 3 -14 6 -6 3 7 2 16 -1 19 -3 4 -6 -2 -5 -13z"/>
<path d="M13605 6360 l-30 -8 33 -1 c17 0 32 4 32 9 0 6 -1 9 -2 9 -2 -1 -16
-5 -33 -9z"/>
<path d="M13864 6345 c1 -12 9 -21 21 -22 14 -1 15 0 3 3 -9 3 -19 13 -21 22
-3 12 -4 11 -3 -3z"/>
<path d="M14322 6345 c0 -16 2 -22 5 -12 2 9 2 23 0 30 -3 6 -5 -1 -5 -18z"/>
<path d="M1678 6353 c7 -3 16 -2 19 1 4 3 -2 6 -13 5 -11 0 -14 -3 -6 -6z"/>
<path d="M2038 6353 c7 -3 16 -2 19 1 4 3 -2 6 -13 5 -11 0 -14 -3 -6 -6z"/>
<path d="M2110 6353 c15 -7 12 -21 -5 -26 -11 -4 -10 -4 2 -3 21 2 25 28 5 32
-7 1 -8 0 -2 -3z"/>
<path d="M5678 6353 c7 -3 16 -2 19 1 4 3 -2 6 -13 5 -11 0 -14 -3 -6 -6z"/>
<path d="M6038 6353 c7 -3 16 -2 19 1 4 3 -2 6 -13 5 -11 0 -14 -3 -6 -6z"/>
<path d="M6110 6353 c15 -7 12 -21 -5 -26 -11 -4 -10 -4 2 -3 21 2 25 28 5 32
-7 1 -8 0 -2 -3z"/>
<path d="M8738 6353 c6 -2 18 -2 25 0 6 3 1 5 -13 5 -14 0 -19 -2 -12 -5z"/>
<path d="M13678 6353 c7 -3 16 -2 19 1 4 3 -2 6 -13 5 -11 0 -14 -3 -6 -6z"/>
<path d="M14038 6353 c7 -3 16 -2 19 1 4 3 -2 6 -13 5 -11 0 -14 -3 -6 -6z"/>
<path d="M14110 6353 c15 -7 12 -21 -5 -26 -11 -4 -10 -4 2 -3 21 2 25 28 5
32 -7 1 -8 0 -2 -3z"/>
<path d="M1230 6341 c0 -10 19 -25 25 -20 1 2 -3 10 -11 17 -8 7 -14 8 -14 3z"/>
<path d="M5230 6341 c0 -10 19 -25 25 -20 1 2 -3 10 -11 17 -8 7 -14 8 -14 3z"/>
<path d="M13230 6341 c0 -10 19 -25 25 -20 1 2 -3 10 -11 17 -8 7 -14 8 -14 3z"/>
<path d="M1598 6328 c5 -5 16 -8 23 -6 8 3 3 7 -10 11 -17 4 -21 3 -13 -5z"/>
<path d="M1798 6328 c6 -6 18 -8 28 -6 14 3 12 5 -9 10 -19 3 -25 2 -19 -4z"/>
<path d="M2367 6328 c2 -5 10 -8 18 -8 8 0 16 3 18 8 3 4 -5 7 -18 7 -13 0
-21 -3 -18 -7z"/>
<path d="M5598 6328 c5 -5 16 -8 23 -6 8 3 3 7 -10 11 -17 4 -21 3 -13 -5z"/>
<path d="M5798 6328 c6 -6 18 -8 28 -6 14 3 12 5 -9 10 -19 3 -25 2 -19 -4z"/>
<path d="M6367 6328 c2 -5 10 -8 18 -8 8 0 16 3 18 8 3 4 -5 7 -18 7 -13 0
-21 -3 -18 -7z"/>
<path d="M8940 6330 c0 -5 5 -10 10 -10 6 0 10 5 10 10 0 6 -4 10 -10 10 -5 0
-10 -4 -10 -10z"/>
<path d="M9498 6328 c5 -5 16 -8 23 -6 8 3 3 7 -10 11 -17 4 -21 3 -13 -5z"/>
<path d="M9608 6328 c6 -6 18 -8 28 -6 14 3 12 5 -9 10 -19 3 -25 2 -19 -4z"/>
<path d="M9887 6329 c7 -7 15 -10 18 -7 3 3 -2 9 -12 12 -14 6 -15 5 -6 -5z"/>
<path d="M10378 6328 c5 -5 16 -8 23 -6 8 3 3 7 -10 11 -17 4 -21 3 -13 -5z"/>
<path d="M13598 6328 c5 -5 16 -8 23 -6 8 3 3 7 -10 11 -17 4 -21 3 -13 -5z"/>
<path d="M13798 6328 c6 -6 18 -8 28 -6 14 3 12 5 -9 10 -19 3 -25 2 -19 -4z"/>
<path d="M14367 6328 c2 -5 10 -8 18 -8 8 0 16 3 18 8 3 4 -5 7 -18 7 -13 0
-21 -3 -18 -7z"/>
<path d="M1498 6323 c7 -3 16 -2 19 1 4 3 -2 6 -13 5 -11 0 -14 -3 -6 -6z"/>
<path d="M1668 6323 c7 -3 16 -2 19 1 4 3 -2 6 -13 5 -11 0 -14 -3 -6 -6z"/>
<path d="M2028 6323 c7 -3 16 -2 19 1 4 3 -2 6 -13 5 -11 0 -14 -3 -6 -6z"/>
<path d="M5498 6323 c7 -3 16 -2 19 1 4 3 -2 6 -13 5 -11 0 -14 -3 -6 -6z"/>
<path d="M5668 6323 c7 -3 16 -2 19 1 4 3 -2 6 -13 5 -11 0 -14 -3 -6 -6z"/>
<path d="M6028 6323 c7 -3 16 -2 19 1 4 3 -2 6 -13 5 -11 0 -14 -3 -6 -6z"/>
<path d="M9428 6323 c6 -2 18 -2 25 0 6 3 1 5 -13 5 -14 0 -19 -2 -12 -5z"/>
<path d="M9748 6323 c7 -3 16 -2 19 1 4 3 -2 6 -13 5 -11 0 -14 -3 -6 -6z"/>
<path d="M9818 6323 c6 -2 18 -2 25 0 6 3 1 5 -13 5 -14 0 -19 -2 -12 -5z"/>
<path d="M10038 6323 c7 -3 16 -2 19 1 4 3 -2 6 -13 5 -11 0 -14 -3 -6 -6z"/>
<path d="M10108 6323 c7 -3 16 -2 19 1 4 3 -2 6 -13 5 -11 0 -14 -3 -6 -6z"/>
<path d="M13498 6323 c7 -3 16 -2 19 1 4 3 -2 6 -13 5 -11 0 -14 -3 -6 -6z"/>
<path d="M13668 6323 c7 -3 16 -2 19 1 4 3 -2 6 -13 5 -11 0 -14 -3 -6 -6z"/>
<path d="M14028 6323 c7 -3 16 -2 19 1 4 3 -2 6 -13 5 -11 0 -14 -3 -6 -6z"/>
<path d="M600 5350 c0 -40 4 -70 10 -70 6 0 10 16 10 36 0 28 3 35 18 32 11
-2 18 -14 20 -36 4 -42 22 -41 22 2 0 37 -21 62 -45 52 -11 -4 -15 2 -15 24 0
17 -4 30 -10 30 -6 0 -10 -30 -10 -70z"/>
<path d="M860 5391 c0 -25 -3 -28 -25 -24 -19 4 -27 0 -37 -22 -17 -37 -1 -60
46 -62 l36 -1 0 69 c0 39 -4 69 -10 69 -5 0 -10 -13 -10 -29z m0 -61 c0 -24
-26 -38 -42 -22 -16 16 -2 42 22 42 13 0 20 -7 20 -20z"/>
<path d="M1010 5350 c0 -40 4 -70 10 -70 6 0 10 30 10 70 0 40 -4 70 -10 70
-6 0 -10 -30 -10 -70z"/>
<path d="M8880 5350 c0 -40 4 -70 10 -70 6 0 10 30 10 70 0 40 -4 70 -10 70
-6 0 -10 -30 -10 -70z"/>
<path d="M420 5395 c-16 -20 -6 -43 25 -57 36 -16 32 -38 -7 -38 -23 0 -29 -3
-21 -11 15 -15 54 -7 67 14 9 15 6 23 -22 45 -39 32 -40 42 -7 42 14 0 25 5
25 10 0 16 -46 12 -60 -5z"/>
<path d="M1212 5398 c-19 -19 -14 -35 18 -58 34 -24 31 -40 -6 -40 -14 0 -22
-4 -19 -10 9 -15 51 -12 65 5 16 20 6 43 -25 57 -32 15 -33 38 0 38 14 0 25 5
25 10 0 14 -43 13 -58 -2z"/>
<path d="M8170 5395 c-16 -20 -6 -43 25 -57 36 -16 32 -38 -7 -38 -23 0 -29
-3 -21 -11 15 -15 54 -7 67 14 9 15 6 23 -22 45 -39 32 -40 42 -7 42 14 0 25
5 25 10 0 16 -46 12 -60 -5z"/>
<path d="M8925 5400 c3 -5 8 -10 11 -10 2 0 4 5 4 10 0 6 -5 10 -11 10 -5 0
-7 -4 -4 -10z"/>
<path d="M1810 5385 c0 -8 -5 -15 -12 -15 -9 0 -9 -3 0 -12 7 -7 12 -25 12
-40 0 -28 24 -48 38 -33 4 4 1 10 -5 12 -7 3 -13 15 -13 28 0 13 6 26 13 29
10 5 10 7 0 12 -7 3 -13 12 -13 20 0 8 -4 14 -10 14 -5 0 -10 -7 -10 -15z"/>
<path d="M8768 5381 c-10 -12 -13 -23 -8 -26 6 -4 10 -20 10 -36 0 -29 23 -50
38 -34 4 4 1 10 -5 12 -7 3 -13 15 -13 28 0 13 6 26 13 28 8 4 9 8 1 14 -6 4
-13 14 -15 21 -3 9 -9 7 -21 -7z"/>
<path d="M9052 5383 c-7 -12 -10 -28 -8 -35 2 -7 7 -25 10 -40 5 -21 12 -28
29 -28 20 1 21 2 5 14 -10 7 -18 21 -18 31 0 10 8 24 18 31 16 12 16 13 0 14
-9 0 -18 8 -20 18 -3 15 -5 14 -16 -5z"/>
<path d="M14433 5383 c-3 -10 -12 -33 -19 -50 -12 -30 -4 -47 11 -23 9 14 42
12 48 -2 2 -7 7 -10 11 -7 8 8 -24 99 -35 99 -5 0 -12 -8 -16 -17z m27 -29 c0
-8 -6 -14 -14 -14 -9 0 -12 7 -9 20 6 22 23 18 23 -6z"/>
<path d="M14560 5379 c0 -16 -4 -19 -19 -14 -14 4 -23 0 -31 -16 -15 -26 -1
-44 35 -44 23 -1 25 3 25 47 0 26 -2 48 -5 48 -3 0 -5 -9 -5 -21z m-7 -44 c1
-5 -6 -11 -15 -13 -11 -2 -18 3 -18 13 0 17 30 18 33 0z"/>
<path d="M14640 5380 c0 -12 -5 -17 -13 -14 -19 7 -40 -21 -32 -45 4 -14 14
-19 35 -19 29 1 30 3 30 50 0 26 -4 48 -10 48 -5 0 -10 -9 -10 -20z m0 -45 c0
-8 -7 -15 -15 -15 -8 0 -15 7 -15 15 0 8 7 15 15 15 8 0 15 -7 15 -15z"/>
<path d="M14720 5350 c0 -58 17 -68 22 -12 l3 37 22 -37 c12 -21 27 -38 33
-38 5 0 10 22 10 50 0 28 -4 50 -10 50 -5 0 -10 -17 -10 -37 l-1 -38 -22 37
c-31 53 -47 49 -47 -12z"/>
<path d="M15059 5384 c-12 -14 -9 -20 16 -40 l30 -24 -29 0 c-22 0 -27 -3 -19
-11 16 -16 47 -7 51 15 3 12 -5 27 -19 37 l-24 19 23 0 c12 0 22 5 22 10 0 16
-36 12 -51 -6z"/>
<path d="M15542 5377 c-13 -15 -2 -69 15 -74 6 -2 10 12 8 37 -3 47 -8 56 -23
37z"/>
<path d="M520 5356 c-27 -34 8 -88 46 -71 17 8 16 9 -8 13 -22 2 -28 9 -28 28
0 19 5 24 26 24 14 0 23 4 19 10 -9 15 -41 12 -55 -4z"/>
<path d="M710 5356 c-27 -34 8 -88 46 -71 17 8 16 9 -8 13 -39 5 -37 32 2 32
32 0 37 9 18 28 -16 16 -43 15 -58 -2z m43 -13 c-7 -2 -19 -2 -25 0 -7 3 -2 5
12 5 14 0 19 -2 13 -5z"/>
<path d="M912 5328 c3 -41 4 -43 36 -43 32 -1 32 0 31 45 -2 43 -2 44 -8 10
-9 -50 -41 -55 -41 -6 0 20 -5 36 -11 36 -6 0 -9 -17 -7 -42z"/>
<path d="M1066 5355 c-19 -19 -20 -29 -6 -56 6 -11 21 -19 35 -19 34 0 41 18
8 22 -39 4 -42 28 -3 28 25 0 31 4 28 18 -4 23 -41 27 -62 7z m37 -12 c-7 -2
-19 -2 -25 0 -7 3 -2 5 12 5 14 0 19 -2 13 -5z"/>
<path d="M1300 5336 c0 -39 14 -54 53 -54 25 0 27 3 27 44 0 24 -4 44 -10 44
-5 0 -10 -16 -10 -35 0 -28 -4 -35 -20 -35 -16 0 -20 7 -20 35 0 19 -4 35 -10
35 -5 0 -10 -15 -10 -34z"/>
<path d="M1410 5304 c0 -36 4 -64 10 -64 6 0 10 11 10 24 0 18 4 23 18 19 25
-6 44 20 40 54 -3 25 -7 28 -40 30 l-38 1 0 -64z m60 21 c0 -18 -5 -25 -20
-25 -15 0 -20 7 -20 25 0 18 5 25 20 25 15 0 20 -7 20 -25z"/>
<path d="M1510 5303 c0 -35 4 -63 10 -63 6 0 10 12 10 26 0 21 3 24 20 19 26
-8 50 11 50 40 0 30 -18 42 -57 42 l-33 0 0 -64z m70 27 c0 -24 -26 -38 -42
-22 -16 16 -2 42 22 42 13 0 20 -7 20 -20z"/>
<path d="M1632 5358 c-17 -17 -15 -53 3 -68 20 -17 62 -5 70 20 14 44 -41 80
-73 48z m53 -33 c0 -13 -8 -21 -22 -23 -19 -3 -23 1 -23 23 0 22 4 26 23 23
14 -2 22 -10 22 -23z"/>
<path d="M1730 5324 c0 -24 5 -44 10 -44 6 0 10 14 10 30 0 18 6 33 15 36 23
9 18 22 -10 22 -23 0 -25 -4 -25 -44z"/>
<path d="M8260 5336 c0 -39 14 -54 53 -54 25 0 27 3 27 44 0 24 -4 44 -10 44
-5 0 -10 -16 -10 -35 0 -28 -4 -35 -20 -35 -16 0 -20 7 -20 35 0 19 -4 35 -10
35 -5 0 -10 -15 -10 -34z"/>
<path d="M8370 5304 c0 -36 4 -64 10 -64 6 0 10 11 10 24 0 18 4 23 18 19 25
-6 44 20 40 54 -3 25 -7 28 -40 30 l-38 1 0 -64z m60 21 c0 -18 -5 -25 -20
-25 -15 0 -20 7 -20 25 0 18 5 25 20 25 15 0 20 -7 20 -25z"/>
<path d="M8480 5304 c0 -36 4 -64 10 -64 6 0 10 11 10 24 0 18 4 23 18 19 25
-6 44 20 40 54 -3 25 -7 28 -40 30 l-38 1 0 -64z m60 21 c0 -18 -5 -25 -20
-25 -15 0 -20 7 -20 25 0 18 5 25 20 25 15 0 20 -7 20 -25z"/>
<path d="M8592 5358 c-7 -7 -12 -21 -12 -33 0 -12 5 -26 12 -33 7 -7 21 -12
33 -12 12 0 26 5 33 12 7 7 12 21 12 33 0 12 -5 26 -12 33 -7 7 -21 12 -33 12
-12 0 -26 -5 -33 -12z m53 -33 c0 -13 -8 -21 -22 -23 -19 -3 -23 1 -23 23 0
22 4 26 23 23 14 -2 22 -10 22 -23z"/>
<path d="M8690 5324 c0 -24 5 -44 10 -44 6 0 10 14 10 30 0 18 6 33 15 36 23
9 18 22 -10 22 -23 0 -25 -4 -25 -44z"/>
<path d="M8920 5325 c0 -25 5 -45 10 -45 6 0 10 20 10 45 0 25 -4 45 -10 45
-5 0 -10 -20 -10 -45z"/>
<path d="M8973 5354 c-4 -11 2 -23 18 -35 l24 -19 -22 0 c-13 0 -23 -4 -23
-10 0 -5 11 -10 25 -10 36 0 44 28 14 51 -20 15 -21 19 -6 19 9 0 17 5 17 10
0 17 -40 11 -47 -6z"/>
<path d="M14834 5356 c-10 -26 1 -51 24 -54 29 -4 29 15 0 21 -19 4 -18 5 6 6
21 1 27 5 22 17 -3 9 -6 18 -6 20 0 11 -41 2 -46 -10z m33 -12 c-3 -3 -12 -4
-19 -1 -8 3 -5 6 6 6 11 1 17 -2 13 -5z"/>
<path d="M14906 5343 c4 -16 9 -31 11 -35 7 -14 23 -9 23 7 0 8 -4 15 -10 15
-5 0 -10 9 -10 20 0 11 -5 20 -10 20 -6 0 -8 -11 -4 -27z"/>
<path d="M14940 5355 c0 -8 5 -15 10 -15 6 0 10 -9 10 -20 0 -11 4 -20 9 -20
13 0 17 8 24 45 l6 30 -14 -30 -13 -30 -7 28 c-8 29 -25 37 -25 12z"/>
<path d="M15141 5338 c-1 -35 1 -37 29 -36 27 1 30 4 30 35 0 18 -4 33 -10 33
-5 0 -10 -11 -10 -25 0 -34 -28 -32 -33 3 -3 22 -4 20 -6 -10z"/>
<path d="M15220 5318 c0 -26 5 -48 10 -48 6 0 10 9 10 20 0 12 5 17 13 14 19
-7 40 21 32 45 -4 14 -14 19 -35 19 -29 -1 -30 -3 -30 -50z m50 17 c0 -8 -7
-15 -15 -15 -8 0 -15 7 -15 15 0 8 7 15 15 15 8 0 15 -7 15 -15z"/>
<path d="M15311 5315 c1 -27 4 -40 6 -28 3 16 11 22 26 20 18 -2 22 3 22 28 0
26 -4 30 -27 30 -27 1 -28 -1 -27 -50z m47 23 c-7 -19 -38 -22 -38 -4 0 10 9
16 21 16 12 0 19 -5 17 -12z"/>
<path d="M15403 5363 c-7 -2 -13 -15 -13 -28 0 -31 36 -43 58 -21 27 27 -8 65
-45 49z m37 -28 c0 -8 -6 -15 -14 -15 -17 0 -28 14 -19 24 12 12 33 6 33 -9z"/>
<path d="M15481 5330 c1 -24 3 -28 6 -12 3 13 11 26 19 29 21 8 17 19 -6 19
-16 0 -20 -6 -19 -36z"/>
<path d="M8903 5053 c-4 -10 2 -23 15 -34 28 -22 29 -43 2 -36 -11 3 -20 1
-20 -4 0 -5 11 -9 25 -9 39 0 44 29 10 56 l-29 23 24 10 c25 10 25 10 2 10
-12 1 -25 -6 -29 -16z"/>
<path d="M9560 5060 c0 -5 5 -10 10 -10 6 0 10 5 10 10 0 6 -4 10 -10 10 -5 0
-10 -4 -10 -10z"/>
<path d="M9652 5020 c0 -51 0 -53 9 -22 12 39 31 37 41 -4 6 -27 6 -27 5 6 -2
28 -7 36 -24 38 -12 2 -24 11 -26 20 -3 9 -5 -8 -5 -38z"/>
<path d="M9770 5020 c0 -27 5 -50 10 -50 6 0 10 15 10 33 l1 32 16 -35 15 -35
19 40 18 40 1 -37 c0 -21 5 -38 10 -38 6 0 10 23 10 50 0 61 -20 68 -42 13
l-14 -38 -14 38 c-20 54 -40 48 -40 -13z"/>
<path d="M10020 5020 c0 -27 5 -50 10 -50 6 0 10 8 10 18 1 16 1 16 14 0 18
-25 29 -23 16 3 -9 15 -8 24 1 35 7 9 8 14 1 14 -6 0 -16 -8 -21 -17 -9 -15
-10 -12 -11 15 0 17 -4 32 -10 32 -5 0 -10 -22 -10 -50z"/>
<path d="M9368 5048 c-6 -19 6 -71 17 -75 8 -2 11 30 6 80 -1 12 -19 8 -23 -5z"/>
<path d="M9603 5049 c-17 -17 0 -74 22 -76 11 -2 14 0 8 3 -15 6 -18 51 -4 56
5 2 3 8 -4 15 -8 7 -16 8 -22 2z"/>
<path d="M8360 4990 c0 -27 5 -50 10 -50 6 0 10 11 10 24 0 15 7 26 18 29 16
4 16 5 0 6 -10 0 -18 7 -18 15 0 8 8 17 18 19 10 3 6 5 -10 6 -27 1 -28 -1
-28 -49z"/>
<path d="M8430 4990 c0 -27 5 -50 10 -50 6 0 10 9 10 20 0 26 16 26 30 -1 7
-11 14 -18 17 -15 3 3 0 12 -6 20 -9 10 -9 20 -2 34 13 24 -3 42 -36 42 -21 0
-23 -4 -23 -50z m45 20 c0 -7 -6 -15 -12 -17 -8 -3 -13 4 -13 17 0 13 5 20 13
18 6 -3 12 -11 12 -18z"/>
<path d="M8520 4990 c0 -27 5 -50 10 -50 6 0 10 23 10 50 0 28 -4 50 -10 50
-5 0 -10 -22 -10 -50z"/>
<path d="M8970 5018 c0 -34 12 -46 43 -46 24 0 27 4 27 34 0 41 -17 46 -22 7
-4 -34 -22 -33 -26 2 -4 31 -22 33 -22 3z"/>
<path d="M9061 4988 c1 -29 3 -45 6 -35 2 9 13 17 23 17 26 0 46 28 34 48 -6
9 -16 18 -23 20 -10 3 -10 0 0 -17 11 -16 11 -23 1 -33 -10 -10 -15 -10 -21 1
-5 8 -7 20 -4 27 2 6 0 15 -6 19 -7 4 -11 -12 -10 -47z"/>
<path d="M9140 4989 c0 -27 5 -49 10 -49 6 0 10 8 10 18 0 13 7 18 23 18 18
-1 22 4 22 29 0 27 -3 30 -32 32 -33 1 -33 1 -33 -48z m57 25 c1 -5 -2 -16 -7
-24 -12 -20 -35 2 -26 25 6 17 27 16 33 -1z"/>
<path d="M9231 5022 c-12 -23 4 -52 29 -52 26 0 45 36 29 56 -16 19 -46 18
-58 -4z m46 -8 c8 -21 -13 -42 -28 -27 -13 13 -5 43 11 43 6 0 13 -7 17 -16z"/>
<path d="M9310 5005 c0 -19 5 -35 10 -35 6 0 10 13 10 29 0 16 6 32 13 34 6 3
2 6 -10 6 -20 1 -23 -4 -23 -34z"/>
<path d="M9454 5014 c11 -43 24 -51 35 -23 l10 24 7 -22 c9 -32 20 -29 33 8
13 39 13 39 2 39 -5 0 -12 -10 -14 -22 l-4 -23 -8 23 c-10 29 -19 28 -32 -5
-10 -25 -11 -26 -12 -6 -1 12 -6 25 -12 29 -9 5 -10 -1 -5 -22z"/>
<path d="M9560 5005 c0 -19 5 -35 10 -35 6 0 10 16 10 35 0 19 -4 35 -10 35
-5 0 -10 -16 -10 -35z"/>
<path d="M9904 5029 c-4 -8 -3 -9 4 -5 7 4 17 4 23 0 7 -4 2 -11 -11 -18 -30
-15 -27 -31 5 -32 23 -1 26 2 23 30 -3 32 -30 47 -44 25z m31 -39 c-3 -5 -10
-10 -16 -10 -5 0 -9 5 -9 10 0 6 7 10 16 10 8 0 12 -4 9 -10z"/>
<path d="M9970 5005 c0 -19 5 -35 10 -35 6 0 10 13 10 29 0 16 6 32 13 34 6 3
2 6 -10 6 -20 1 -23 -4 -23 -34z"/>
<path d="M15410 4910 c0 -5 5 -10 10 -10 6 0 10 5 10 10 0 6 -4 10 -10 10 -5
0 -10 -4 -10 -10z"/>
<path d="M3690 4840 c0 -65 19 -85 21 -22 l1 37 10 -38 c12 -47 28 -44 44 9
l12 39 1 -42 c2 -67 21 -51 21 17 0 52 -2 60 -19 60 -14 0 -21 -10 -25 -35 -8
-41 -21 -39 -29 5 -4 18 -13 30 -22 30 -12 0 -15 -13 -15 -60z"/>
<path d="M4053 4894 c-15 -7 -17 -34 -3 -34 6 0 10 5 10 10 0 6 7 10 15 10 23
0 18 -24 -10 -50 -35 -33 -32 -50 10 -50 19 0 35 5 35 10 0 6 -10 10 -22 10
l-21 0 22 24 c39 42 14 91 -36 70z"/>
<path d="M4142 4888 c-7 -7 -12 -29 -12 -49 0 -73 62 -78 68 -5 5 54 -26 84
-56 54z m36 -51 c2 -28 -1 -37 -12 -37 -12 0 -16 11 -16 41 0 52 24 48 28 -4z"/>
<path d="M4224 4885 c-4 -9 -3 -19 1 -23 4 -4 10 -1 12 6 6 16 33 16 33 -1 0
-8 -9 -22 -21 -33 -11 -10 -25 -27 -30 -36 -9 -16 -5 -18 31 -18 22 0 40 5 40
10 0 6 -9 10 -20 10 -20 0 -20 1 2 30 17 24 20 35 12 48 -15 23 -52 28 -60 7z"/>
<path d="M4316 4878 c-11 -42 -8 -49 19 -42 21 5 25 3 25 -15 0 -23 -25 -29
-33 -8 -2 6 -8 9 -12 5 -13 -12 3 -38 23 -38 45 0 55 55 14 76 -24 12 -19 24
10 24 10 0 18 5 18 10 0 6 -13 10 -29 10 -21 0 -30 -6 -35 -22z"/>
<path d="M8978 4873 c6 -2 18 -2 25 0 6 3 1 5 -13 5 -14 0 -19 -2 -12 -5z"/>
<path d="M505 4850 c-18 -20 -18 -21 5 -43 l24 -22 -18 23 c-18 21 -18 23 -1
42 10 11 16 20 13 20 -3 0 -13 -9 -23 -20z"/>
<path d="M3827 4863 c-14 -14 -6 -24 14 -18 15 5 19 4 15 -4 -4 -6 -13 -11
-21 -11 -16 0 -26 -23 -16 -38 3 -6 21 -10 39 -10 28 1 32 4 32 29 0 42 -10
59 -34 59 -13 0 -26 -3 -29 -7z m33 -53 c0 -5 -4 -10 -10 -10 -5 0 -10 5 -10
10 0 6 5 10 10 10 6 0 10 -4 10 -10z"/>
<path d="M3900 4865 c0 -2 8 -24 17 -47 12 -30 13 -43 5 -46 -17 -5 -15 -22 2
-22 8 0 23 24 35 55 24 64 24 65 12 65 -5 0 -12 -11 -15 -25 -4 -14 -10 -25
-15 -25 -5 0 -12 11 -15 25 -4 14 -11 25 -16 25 -6 0 -10 -2 -10 -5z"/>
<path d="M7544 4853 c10 -12 15 -27 11 -35 -7 -10 -5 -11 6 0 11 10 9 16 -11
35 -24 22 -24 22 -6 0z"/>
<path d="M8936 4854 c-23 -23 -20 -30 4 -9 11 10 20 20 20 22 0 7 -9 2 -24
-13z"/>
<path d="M9035 4850 c21 -24 26 -25 19 -6 -3 8 -13 17 -22 21 -13 5 -13 2 3
-15z"/>
<path d="M8399 4833 c-10 -11 -10 -14 -1 -9 9 5 12 -4 12 -33 0 -23 5 -41 10
-41 6 0 10 23 10 50 0 52 -8 61 -31 33z"/>
<path d="M8460 4841 c0 -5 -3 -16 -6 -24 -3 -9 3 -16 16 -20 25 -6 22 -33 -4
-31 -9 1 -16 -2 -16 -7 0 -15 37 -10 50 6 15 18 6 45 -15 45 -21 0 -19 27 3
33 13 4 11 5 -5 6 -13 0 -23 -3 -23 -8z"/>
<path d="M9144 4836 c-10 -26 4 -49 26 -43 11 3 20 2 20 -1 0 -15 -16 -30 -35
-35 -15 -4 -14 -5 5 -4 47 4 53 86 6 95 -9 2 -19 -4 -22 -12z m41 -16 c0 -8
-8 -16 -17 -18 -13 -2 -18 3 -18 18 0 15 5 20 18 18 9 -2 17 -10 17 -18z"/>
<path d="M9251 4831 c-6 -11 -11 -28 -10 -38 0 -10 5 -3 10 15 9 31 32 43 42
22 3 -6 4 -5 3 2 -4 21 -34 21 -45 -1z"/>
<path d="M9336 4841 c-3 -5 3 -7 14 -4 18 5 20 0 20 -37 0 -34 -3 -41 -17 -38
-10 2 -21 16 -24 33 -6 29 -7 29 -8 4 -1 -31 22 -54 44 -45 23 8 17 90 -7 94
-9 2 -19 -1 -22 -7z"/>
<path d="M9466 4841 c-4 -6 -3 -11 2 -11 5 0 12 -9 15 -20 4 -16 0 -20 -19
-20 -13 0 -24 -4 -24 -8 0 -5 14 -7 30 -4 26 4 30 8 24 26 -11 38 -21 50 -28
37z"/>
<path d="M9531 4798 c2 -52 2 -53 8 -13 6 36 7 38 15 17 4 -13 10 -21 13 -19
5 6 -25 67 -32 67 -3 0 -4 -24 -4 -52z"/>
<path d="M9606 4834 c-4 -9 -4 -19 -1 -22 3 -3 6 1 7 9 0 8 4 -6 8 -31 l7 -45
1 53 c2 51 -9 69 -22 36z"/>
<path d="M9879 4833 c-8 -10 -9 -14 -2 -10 8 5 13 -6 16 -35 3 -41 4 -41 5 10
1 28 0 52 -2 52 -2 0 -10 -8 -17 -17z"/>
<path d="M9990 4839 c23 -10 24 -11 7 -24 -15 -11 -16 -13 -2 -19 22 -8 18
-25 -7 -36 l-23 -9 23 0 c27 -1 39 23 23 43 -8 9 -8 16 -2 20 17 11 0 36 -23
35 -19 0 -19 -1 4 -10z"/>
<path d="M10044 4825 c-8 -32 3 -75 19 -75 21 0 37 22 37 50 0 49 -45 69 -56
25z m41 -26 c0 -24 -5 -34 -15 -34 -16 0 -25 37 -16 62 10 26 31 8 31 -28z"/>
<path d="M10186 4841 c-4 -6 -3 -11 2 -11 5 0 12 -9 15 -20 4 -16 0 -20 -19
-20 -13 0 -24 -4 -24 -8 0 -5 14 -7 30 -4 26 4 30 8 24 26 -11 38 -21 50 -28
37z"/>
<path d="M10251 4798 c2 -52 2 -53 8 -13 6 36 7 38 15 17 4 -13 10 -21 13 -19
5 6 -25 67 -32 67 -3 0 -4 -24 -4 -52z"/>
<path d="M10326 4834 c-4 -9 -4 -19 -1 -22 3 -3 6 1 7 9 0 8 4 -6 8 -31 l7
-45 1 53 c2 51 -9 69 -22 36z"/>
<path d="M8991 4818 c-1 -23 3 -28 22 -27 15 1 17 3 5 6 -9 2 -19 14 -21 26
-4 18 -5 17 -6 -5z"/>
<path d="M9795 4830 c-3 -6 1 -7 9 -4 18 7 21 14 7 14 -6 0 -13 -4 -16 -10z"/>
<path d="M8912 4800 c0 -14 2 -19 5 -12 2 6 2 18 0 25 -3 6 -5 1 -5 -13z"/>
<path d="M9062 4800 c0 -14 2 -19 5 -12 2 6 2 18 0 25 -3 6 -5 1 -5 -13z"/>
<path d="M9582 4780 c-7 -11 -8 -20 -3 -20 9 0 24 30 18 36 -1 2 -8 -6 -15
-16z"/>
<path d="M10302 4780 c-7 -11 -8 -20 -3 -20 9 0 24 30 18 36 -1 2 -8 -6 -15
-16z"/>
<path d="M9698 4783 c6 -2 18 -2 25 0 6 3 1 5 -13 5 -14 0 -19 -2 -12 -5z"/>
<path d="M9290 4771 c0 -8 -8 -11 -20 -8 -11 3 -18 1 -14 -4 3 -5 11 -9 19 -9
16 0 30 18 21 27 -3 4 -6 1 -6 -6z"/>
<path d="M8926 4756 c3 -8 13 -17 22 -21 13 -5 13 -2 -3 15 -21 24 -26 25 -19
6z"/>
<path d="M9035 4750 c-16 -17 -16 -20 -3 -15 9 4 19 13 22 21 7 19 2 18 -19
-6z"/>
<path d="M8978 4723 c6 -2 18 -2 25 0 6 3 1 5 -13 5 -14 0 -19 -2 -12 -5z"/>
<path d="M8903 4293 c-4 -10 2 -23 15 -34 28 -22 29 -43 2 -36 -11 3 -20 1
-20 -4 0 -5 11 -9 25 -9 39 0 44 29 10 56 l-29 23 24 10 c25 10 25 10 2 10
-12 1 -25 -6 -29 -16z"/>
<path d="M9560 4300 c0 -5 5 -10 10 -10 6 0 10 5 10 10 0 6 -4 10 -10 10 -5 0
-10 -4 -10 -10z"/>
<path d="M9652 4260 c0 -51 0 -53 9 -22 12 39 31 37 41 -4 6 -27 6 -27 5 6 -2
28 -7 36 -24 38 -12 2 -24 11 -26 20 -3 9 -5 -8 -5 -38z"/>
<path d="M9795 4301 c-14 -24 -33 -91 -26 -91 5 0 11 7 15 15 7 20 33 19 45
-2 18 -33 20 -7 3 40 -17 47 -25 56 -37 38z m25 -43 c0 -5 -7 -8 -15 -8 -17 0
-18 2 -9 25 5 13 8 14 15 3 5 -7 9 -16 9 -20z"/>
<path d="M9920 4260 c0 -52 16 -70 22 -23 4 39 28 42 28 4 0 -17 5 -31 10 -31
12 0 13 40 1 59 -5 8 -16 11 -25 8 -11 -5 -16 -1 -16 13 0 11 -4 20 -10 20 -5
0 -10 -22 -10 -50z"/>
<path d="M10013 4260 c0 -30 2 -43 4 -27 2 15 2 39 0 55 -2 15 -4 2 -4 -28z"/>
<path d="M9368 4288 c-6 -19 6 -71 17 -75 8 -2 11 30 6 80 -1 12 -19 8 -23 -5z"/>
<path d="M9603 4289 c-17 -17 0 -74 22 -76 11 -2 14 0 8 3 -15 6 -18 51 -4 56
5 2 3 8 -4 15 -8 7 -16 8 -22 2z"/>
<path d="M8300 4230 c0 -54 19 -71 21 -17 l1 32 15 -35 15 -34 14 24 c7 14 13
32 13 40 0 9 -5 5 -13 -9 l-13 -24 -14 36 c-19 54 -39 48 -39 -13z"/>
<path d="M8384 4258 c3 -13 6 -35 6 -50 0 -16 5 -28 10 -28 6 0 10 23 10 50 0
39 -3 50 -16 50 -12 0 -15 -6 -10 -22z"/>
<path d="M8442 4268 c-7 -7 -12 -24 -12 -38 0 -30 16 -50 41 -50 23 0 49 27
49 50 0 39 -52 64 -78 38z m42 -4 c21 -8 21 -60 0 -68 -34 -13 -59 35 -32 62
14 14 12 14 32 6z"/>
<path d="M8541 4228 c2 -52 2 -52 8 -13 l6 40 23 -37 c13 -21 28 -38 33 -38 5
0 8 24 8 53 -2 51 -2 51 -8 12 l-6 -40 -25 37 c-14 21 -28 38 -32 38 -5 0 -7
-24 -7 -52z"/>
<path d="M8970 4258 c0 -34 12 -46 43 -46 24 0 27 4 27 34 0 41 -17 46 -22 7
-4 -34 -22 -33 -26 2 -4 31 -22 33 -22 3z"/>
<path d="M9061 4228 c1 -29 3 -45 6 -35 2 9 13 17 23 17 26 0 46 28 34 48 -6
9 -16 18 -23 20 -10 3 -10 0 0 -17 11 -16 11 -23 1 -33 -10 -10 -15 -10 -21 1
-5 8 -7 20 -4 27 2 6 0 15 -6 19 -7 4 -11 -12 -10 -47z"/>
<path d="M9140 4229 c0 -27 5 -49 10 -49 6 0 10 8 10 18 0 13 7 18 23 18 18
-1 22 4 22 29 0 27 -3 30 -32 32 -33 1 -33 1 -33 -48z m57 25 c1 -5 -2 -16 -7
-24 -12 -20 -35 2 -26 25 6 17 27 16 33 -1z"/>
<path d="M9231 4262 c-12 -23 4 -52 29 -52 26 0 45 36 29 56 -16 19 -46 18
-58 -4z m46 -8 c8 -21 -13 -42 -28 -27 -13 13 -5 43 11 43 6 0 13 -7 17 -16z"/>
<path d="M9310 4245 c0 -19 5 -35 10 -35 6 0 10 13 10 29 0 16 6 32 13 34 6 3
2 6 -10 6 -20 1 -23 -4 -23 -34z"/>
<path d="M9454 4254 c11 -43 24 -51 35 -23 l10 24 7 -22 c9 -32 20 -29 33 8
13 39 13 39 2 39 -5 0 -12 -10 -14 -22 l-4 -23 -8 23 c-10 29 -19 28 -32 -5
-10 -25 -11 -26 -12 -6 -1 12 -6 25 -12 29 -9 5 -10 -1 -5 -22z"/>
<path d="M9560 4245 c0 -19 5 -35 10 -35 6 0 10 16 10 35 0 19 -4 35 -10 35
-5 0 -10 -16 -10 -35z"/>
<path d="M9864 4268 c-4 -6 0 -16 9 -23 21 -15 22 -29 2 -21 -8 3 -15 1 -15
-4 0 -14 37 -12 46 2 4 6 0 16 -9 23 -21 15 -22 29 -2 21 8 -3 15 -1 15 4 0
14 -37 12 -46 -2z"/>
<path d="M10044 4266 c-11 -28 1 -51 26 -53 l25 -3 -25 12 -25 12 28 4 c20 2
27 8 25 20 -4 22 -46 28 -54 8z m41 -6 c3 -5 -3 -10 -15 -10 -12 0 -18 5 -15
10 3 6 10 10 15 10 5 0 12 -4 15 -10z"/>
<path d="M10110 4276 c0 -1 5 -17 11 -35 9 -24 8 -35 -2 -48 -12 -14 -12 -16
1 -11 17 5 49 64 49 88 0 8 -7 2 -14 -15 l-13 -30 -11 28 c-9 22 -21 36 -21
23z"/>
<path d="M551 4198 l2 -53 7 40 7 40 8 -33 c10 -43 23 -49 31 -15 11 47 19 50
25 8 6 -39 6 -39 8 13 1 59 -12 68 -33 20 -14 -34 -16 -33 -32 20 -2 6 -8 12
-14 12 -6 0 -9 -22 -9 -52z"/>
<path d="M1700 4240 c0 -5 6 -10 14 -10 10 0 16 -14 19 -42 l4 -43 1 43 c3 55
29 59 34 5 3 -34 6 -38 31 -39 25 -1 27 1 26 40 -1 37 -2 38 -8 12 -8 -38 -31
-47 -31 -11 0 14 -6 33 -14 41 -16 16 -76 19 -76 4z"/>
<path d="M2785 4210 c8 -57 21 -72 35 -36 5 15 10 32 10 37 0 21 18 -2 23 -31
9 -43 22 -37 34 17 11 48 9 73 -3 37 -15 -48 -17 -49 -27 -16 -11 35 -25 41
-33 15 -3 -10 -8 -25 -11 -33 -4 -10 -10 -3 -19 20 l-14 35 5 -45z"/>
<path d="M3040 4237 c0 -8 -10 -13 -22 -13 -20 1 -23 -4 -23 -34 0 -31 3 -35
28 -36 26 -1 27 1 27 47 0 27 -2 49 -5 49 -3 0 -5 -6 -5 -13z m0 -41 c0 -20
-19 -31 -32 -18 -6 6 -7 15 -4 21 10 16 36 13 36 -3z"/>
<path d="M3920 4240 c0 -5 7 -10 15 -10 11 0 15 -11 15 -40 0 -22 5 -40 10
-40 6 0 10 18 10 40 0 29 4 40 15 40 8 0 15 5 15 10 0 6 -18 10 -40 10 -22 0
-40 -4 -40 -10z"/>
<path d="M4013 4200 c0 -31 2 -41 4 -22 6 42 33 44 33 2 0 -16 5 -30 10 -30
12 0 13 50 2 68 -5 7 -16 10 -24 7 -11 -4 -18 0 -21 12 -3 10 -4 -7 -4 -37z"/>
<path d="M5081 4198 c1 -29 4 -43 6 -30 3 14 12 22 24 22 10 0 19 5 19 10 0 6
-9 10 -20 10 -11 0 -20 5 -20 10 0 6 11 10 25 10 14 0 25 5 25 10 0 6 -13 10
-30 10 -30 0 -30 -1 -29 -52z"/>
<path d="M6186 4234 c-7 -19 10 -44 30 -44 8 0 14 -5 14 -11 0 -7 -10 -9 -25
-6 -16 3 -24 0 -22 -7 2 -6 15 -11 28 -11 32 0 41 44 10 52 -12 3 -21 10 -21
15 0 6 9 8 21 5 13 -3 19 -1 16 6 -6 19 -44 20 -51 1z"/>
<path d="M7287 4244 c-14 -15 -6 -46 13 -51 11 -3 20 -10 20 -15 0 -6 -11 -7
-27 -3 -23 5 -25 4 -14 -9 17 -20 35 -20 52 0 12 14 9 20 -16 41 -27 23 -28
25 -7 20 15 -4 22 -1 19 6 -4 14 -30 21 -40 11z"/>
<path d="M6347 4233 c-6 -12 4 -83 12 -83 4 0 7 18 6 40 -1 39 -9 59 -18 43z"/>
<path d="M670 4211 c-13 -26 4 -64 27 -59 25 5 40 35 27 56 -16 25 -41 26 -54
3z m45 -21 c0 -8 -8 -16 -17 -18 -13 -2 -18 3 -18 18 0 15 5 20 18 18 9 -2 17
-10 17 -18z"/>
<path d="M750 4189 c0 -21 5 -39 10 -39 6 0 10 14 10 30 0 42 27 40 33 -2 4
-27 4 -26 3 7 -1 36 -4 40 -28 42 -26 2 -28 -1 -28 -38z"/>
<path d="M1862 4218 c-28 -28 0 -78 35 -63 16 7 15 9 -7 15 -25 8 -25 8 -2 9
18 1 23 6 20 23 -3 26 -28 34 -46 16z m35 -14 c-3 -3 -12 -4 -19 -1 -8 3 -5 6
6 6 11 1 17 -2 13 -5z"/>
<path d="M2917 4223 c-4 -3 -7 -19 -7 -35 0 -31 20 -45 48 -32 14 6 12 8 -13
14 l-30 8 28 1 c28 1 35 19 15 39 -13 13 -31 16 -41 5z m36 -20 c-7 -2 -19 -2
-25 0 -7 3 -2 5 12 5 14 0 19 -2 13 -5z"/>
<path d="M4092 4193 c3 -34 6 -38 31 -39 25 -1 27 1 26 40 -1 37 -2 38 -8 12
-9 -41 -31 -46 -31 -7 0 17 -5 31 -11 31 -6 0 -9 -16 -7 -37z"/>
<path d="M5160 4190 c0 -22 5 -40 10 -40 6 0 10 14 10 30 0 17 5 30 10 30 6 0
10 5 10 10 0 6 -9 10 -20 10 -17 0 -20 -7 -20 -40z"/>
<path d="M5223 4190 c0 -25 2 -35 4 -22 2 12 2 32 0 45 -2 12 -4 2 -4 -23z"/>
<path d="M6270 4221 c0 -6 10 -11 23 -11 18 0 19 -2 7 -10 -13 -8 -13 -10 0
-10 11 0 11 -3 2 -12 -10 -10 -15 -10 -21 1 -6 10 -10 10 -16 1 -10 -16 2 -25
31 -25 23 -1 25 3 22 35 -2 28 -8 36 -25 38 -13 2 -23 -1 -23 -7z"/>
<path d="M7362 4193 c3 -34 6 -38 31 -39 25 -1 27 1 26 40 -1 37 -2 38 -8 12
-9 -41 -31 -46 -31 -7 0 17 -5 31 -11 31 -6 0 -9 -16 -7 -37z"/>
<path d="M7452 4185 c1 -37 2 -37 5 -7 6 42 33 44 33 2 0 -16 5 -30 10 -30 12
0 13 49 2 67 -4 7 -18 11 -30 10 -19 -1 -22 -7 -20 -42z"/>
<path d="M15410 4150 c0 -5 5 -10 10 -10 6 0 10 5 10 10 0 6 -4 10 -10 10 -5
0 -10 -4 -10 -10z"/>
<path d="M8978 4113 c6 -2 18 -2 25 0 6 3 1 5 -13 5 -14 0 -19 -2 -12 -5z"/>
<path d="M8936 4094 c-23 -23 -20 -30 4 -9 11 10 20 20 20 22 0 7 -9 2 -24
-13z"/>
<path d="M9035 4090 c21 -24 26 -25 19 -6 -3 8 -13 17 -22 21 -13 5 -13 2 3
-15z"/>
<path d="M8385 4080 c-5 -9 -1 -10 14 -5 28 9 29 -25 1 -50 -28 -26 -25 -35
13 -34 23 1 26 3 10 6 -28 5 -29 14 -2 31 27 17 22 56 -8 60 -11 2 -24 -2 -28
-8z"/>
<path d="M8470 4081 c0 -5 -3 -16 -6 -24 -3 -9 3 -16 16 -20 25 -6 22 -33 -4
-31 -9 1 -16 -2 -16 -7 0 -15 37 -10 50 6 15 18 6 45 -15 45 -21 0 -19 27 3
33 13 4 11 5 -5 6 -13 0 -23 -3 -23 -8z"/>
<path d="M9144 4076 c-10 -26 4 -49 26 -43 11 3 20 2 20 -1 0 -15 -16 -30 -35
-35 -15 -4 -14 -5 5 -4 47 4 53 86 6 95 -9 2 -19 -4 -22 -12z m41 -16 c0 -8
-8 -16 -17 -18 -13 -2 -18 3 -18 18 0 15 5 20 18 18 9 -2 17 -10 17 -18z"/>
<path d="M9251 4071 c-6 -11 -11 -28 -10 -38 0 -10 5 -3 10 15 9 31 32 43 42
22 3 -6 4 -5 3 2 -4 21 -34 21 -45 -1z"/>
<path d="M9336 4081 c-3 -5 3 -7 14 -4 18 5 20 0 20 -37 0 -34 -3 -41 -17 -38
-10 2 -21 16 -24 33 -6 29 -7 29 -8 4 -1 -31 22 -54 44 -45 23 8 17 90 -7 94
-9 2 -19 -1 -22 -7z"/>
<path d="M9466 4081 c-4 -6 -3 -11 2 -11 5 0 12 -9 15 -20 4 -16 0 -20 -19
-20 -13 0 -24 -4 -24 -8 0 -5 14 -7 30 -4 26 4 30 8 24 26 -11 38 -21 50 -28
37z"/>
<path d="M9531 4038 c2 -52 2 -53 8 -13 6 36 7 38 15 17 4 -13 10 -21 13 -19
5 6 -25 67 -32 67 -3 0 -4 -24 -4 -52z"/>
<path d="M9606 4074 c-4 -9 -4 -19 -1 -22 3 -3 6 1 7 9 0 8 4 -6 8 -31 l7 -45
1 53 c2 51 -9 69 -22 36z"/>
<path d="M9879 4073 c-8 -10 -9 -14 -2 -10 8 5 13 -6 16 -35 3 -41 4 -41 5 10
1 28 0 52 -2 52 -2 0 -10 -8 -17 -17z"/>
<path d="M9990 4079 c23 -10 24 -11 7 -24 -15 -11 -16 -13 -2 -19 22 -8 18
-25 -7 -36 l-23 -9 23 0 c27 -1 39 23 23 43 -8 9 -8 16 -2 20 17 11 0 36 -23
35 -19 0 -19 -1 4 -10z"/>
<path d="M10044 4065 c-8 -32 3 -75 19 -75 21 0 37 22 37 50 0 49 -45 69 -56
25z m41 -26 c0 -24 -5 -34 -15 -34 -16 0 -25 37 -16 62 10 26 31 8 31 -28z"/>
<path d="M10186 4081 c-4 -6 -3 -11 2 -11 5 0 12 -9 15 -20 4 -16 0 -20 -19
-20 -13 0 -24 -4 -24 -8 0 -5 14 -7 30 -4 26 4 30 8 24 26 -11 38 -21 50 -28
37z"/>
<path d="M10251 4038 c2 -52 2 -53 8 -13 6 36 7 38 15 17 4 -13 10 -21 13 -19
5 6 -25 67 -32 67 -3 0 -4 -24 -4 -52z"/>
<path d="M10326 4074 c-4 -9 -4 -19 -1 -22 3 -3 6 1 7 9 0 8 4 -6 8 -31 l7
-45 1 53 c2 51 -9 69 -22 36z"/>
<path d="M8991 4058 c-1 -23 3 -28 22 -27 15 1 17 3 5 6 -9 2 -19 14 -21 26
-4 18 -5 17 -6 -5z"/>
<path d="M9795 4070 c-3 -6 1 -7 9 -4 18 7 21 14 7 14 -6 0 -13 -4 -16 -10z"/>
<path d="M8912 4040 c0 -14 2 -19 5 -12 2 6 2 18 0 25 -3 6 -5 1 -5 -13z"/>
<path d="M9062 4040 c0 -14 2 -19 5 -12 2 6 2 18 0 25 -3 6 -5 1 -5 -13z"/>
<path d="M9582 4020 c-7 -11 -8 -20 -3 -20 9 0 24 30 18 36 -1 2 -8 -6 -15
-16z"/>
<path d="M10302 4020 c-7 -11 -8 -20 -3 -20 9 0 24 30 18 36 -1 2 -8 -6 -15
-16z"/>
<path d="M9698 4023 c6 -2 18 -2 25 0 6 3 1 5 -13 5 -14 0 -19 -2 -12 -5z"/>
<path d="M9290 4011 c0 -8 -8 -11 -20 -8 -11 3 -18 1 -14 -4 3 -5 11 -9 19 -9
16 0 30 18 21 27 -3 4 -6 1 -6 -6z"/>
<path d="M8926 3996 c3 -8 13 -17 22 -21 13 -5 13 -2 -3 15 -21 24 -26 25 -19
6z"/>
<path d="M9035 3990 c-16 -17 -16 -20 -3 -15 9 4 19 13 22 21 7 19 2 18 -19
-6z"/>
<path d="M8978 3963 c6 -2 18 -2 25 0 6 3 1 5 -13 5 -14 0 -19 -2 -12 -5z"/>
<path d="M617 3713 c-3 -5 5 -8 18 -8 13 0 21 3 18 8 -2 4 -10 7 -18 7 -8 0
-16 -3 -18 -7z"/>
<path d="M696 3711 c-4 -5 3 -7 14 -4 23 6 26 13 6 13 -8 0 -17 -4 -20 -9z"/>
<path d="M1748 3713 c7 -3 16 -2 19 1 4 3 -2 6 -13 5 -11 0 -14 -3 -6 -6z"/>
<path d="M1805 3709 c-4 -6 -4 -13 -1 -16 3 -4 6 -1 6 5 0 6 8 13 18 15 15 4
15 5 0 6 -9 0 -20 -4 -23 -10z"/>
<path d="M2860 3716 c0 -2 7 -7 16 -10 8 -3 12 -2 9 4 -6 10 -25 14 -25 6z"/>
<path d="M2930 3716 c0 -2 9 -6 20 -9 11 -3 18 -1 14 4 -5 9 -34 13 -34 5z"/>
<path d="M4015 3703 c-15 -12 -16 -14 -3 -10 14 5 18 -2 21 -36 3 -40 4 -39 5
11 1 28 1 52 0 52 -2 0 -12 -8 -23 -17z"/>
<path d="M5120 3703 c-12 -15 -12 -16 0 -5 8 6 20 12 27 12 19 0 16 -37 -5
-52 -35 -25 -35 -38 0 -37 25 1 27 3 10 6 l-24 5 22 23 c24 26 24 58 -1 63 -9
1 -22 -5 -29 -15z"/>
<path d="M6237 3713 c-4 -3 -7 -11 -7 -17 0 -6 5 -5 12 2 7 7 16 12 20 12 13
0 9 -28 -4 -33 -8 -3 -6 -6 5 -6 9 -1 17 -8 17 -16 0 -21 -30 -31 -42 -14 -8
12 -9 11 -5 -1 2 -8 15 -15 28 -15 21 0 24 5 24 35 1 49 -25 77 -48 53z"/>
<path d="M7381 3701 c-7 -13 -8 -21 -2 -17 7 4 11 -1 11 -13 0 -12 -7 -21 -16
-21 -9 0 -12 5 -8 12 4 7 3 8 -4 4 -18 -11 -14 -26 7 -26 11 0 21 -5 23 -12 8
-24 14 17 8 57 -5 39 -6 40 -19 16z"/>
<path d="M1852 3675 c0 -16 2 -22 5 -12 2 9 2 23 0 30 -3 6 -5 -1 -5 -18z"/>
<path d="M697 3679 c7 -7 15 -10 18 -7 3 3 -2 9 -12 12 -14 6 -15 5 -6 -5z"/>
<path d="M2972 3670 c0 -14 2 -19 5 -12 2 6 2 18 0 25 -3 6 -5 1 -5 -13z"/>
<path d="M1808 3668 c5 -5 16 -8 23 -6 8 3 3 7 -10 11 -17 4 -21 3 -13 -5z"/>
<path d="M620 3645 l-23 -25 34 1 c25 1 28 3 11 6 -23 4 -23 5 -6 24 26 28 11
23 -16 -6z"/>
<path d="M715 3630 c-16 -7 -17 -9 -3 -9 9 -1 20 4 23 9 7 11 7 11 -20 0z"/>
<path d="M1807 3628 c2 -5 10 -8 18 -8 8 0 16 3 18 8 3 4 -5 7 -18 7 -13 0
-21 -3 -18 -7z"/>
<path d="M2945 3630 c-16 -7 -17 -9 -3 -9 9 -1 20 4 23 9 7 11 7 11 -20 0z"/>
<path d="M1733 3623 c9 -2 25 -2 35 0 9 3 1 5 -18 5 -19 0 -27 -2 -17 -5z"/>
<path d="M2858 3623 c7 -3 16 -2 19 1 4 3 -2 6 -13 5 -11 0 -14 -3 -6 -6z"/>
<path d="M8903 3533 c-4 -10 2 -23 15 -34 28 -22 29 -43 2 -36 -11 3 -20 1
-20 -4 0 -5 11 -9 25 -9 39 0 44 29 10 56 l-29 23 24 10 c25 10 25 10 2 10
-12 1 -25 -6 -29 -16z"/>
<path d="M9560 3540 c0 -5 5 -10 10 -10 6 0 10 5 10 10 0 6 -4 10 -10 10 -5 0
-10 -4 -10 -10z"/>
<path d="M9652 3500 c0 -51 0 -53 9 -22 12 39 31 37 41 -4 6 -27 6 -27 5 6 -2
28 -7 36 -24 38 -12 2 -24 11 -26 20 -3 9 -5 -8 -5 -38z"/>
<path d="M9770 3500 c0 -50 1 -51 28 -48 25 3 27 6 27 48 0 42 -2 45 -27 48
-27 3 -28 2 -28 -48z m42 25 c0 -5 -5 -11 -11 -13 -6 -2 -11 4 -11 13 0 9 5
15 11 13 6 -2 11 -8 11 -13z m3 -45 c0 -7 -6 -15 -12 -17 -8 -3 -13 4 -13 17
0 13 5 20 13 18 6 -3 12 -11 12 -18z"/>
<path d="M9368 3528 c-6 -19 6 -71 17 -75 8 -2 11 30 6 80 -1 12 -19 8 -23 -5z"/>
<path d="M9603 3529 c-17 -17 0 -74 22 -76 11 -2 14 0 8 3 -15 6 -18 51 -4 56
5 2 3 8 -4 15 -8 7 -16 8 -22 2z"/>
<path d="M555 3519 c-15 -23 15 -30 121 -27 89 2 109 6 109 18 0 12 -20 16
-112 18 -74 2 -114 -1 -118 -9z"/>
<path d="M8343 3508 c9 -7 18 -31 20 -53 l4 -40 1 47 c2 35 6 48 20 51 9 3 -1
5 -22 6 -34 1 -37 -1 -23 -11z"/>
<path d="M8422 3477 c-2 -36 2 -49 14 -54 30 -11 49 11 50 58 1 38 1 39 -3 7
-4 -39 -28 -67 -43 -52 -5 5 -10 27 -13 49 -4 39 -4 39 -5 -8z"/>
<path d="M8520 3470 c0 -48 1 -50 28 -49 23 2 24 2 5 6 -14 3 -23 12 -23 23 0
11 9 20 23 23 l22 4 -22 2 c-13 0 -23 7 -23 15 0 8 10 17 23 19 19 4 18 4 -5
6 -27 1 -28 -1 -28 -49z"/>
<path d="M8970 3498 c0 -34 12 -46 43 -46 24 0 27 4 27 34 0 41 -17 46 -22 7
-4 -34 -22 -33 -26 2 -4 31 -22 33 -22 3z"/>
<path d="M9061 3468 c1 -29 3 -45 6 -35 2 9 13 17 23 17 26 0 46 28 34 48 -6
9 -16 18 -23 20 -10 3 -10 0 0 -17 11 -16 11 -23 1 -33 -10 -10 -15 -10 -21 1
-5 8 -7 20 -4 27 2 6 0 15 -6 19 -7 4 -11 -12 -10 -47z"/>
<path d="M9140 3469 c0 -27 5 -49 10 -49 6 0 10 8 10 18 0 13 7 18 23 18 18
-1 22 4 22 29 0 27 -3 30 -32 32 -33 1 -33 1 -33 -48z m57 25 c1 -5 -2 -16 -7
-24 -12 -20 -35 2 -26 25 6 17 27 16 33 -1z"/>
<path d="M9231 3502 c-12 -23 4 -52 29 -52 26 0 45 36 29 56 -16 19 -46 18
-58 -4z m46 -8 c8 -21 -13 -42 -28 -27 -13 13 -5 43 11 43 6 0 13 -7 17 -16z"/>
<path d="M9310 3485 c0 -19 5 -35 10 -35 6 0 10 13 10 29 0 16 6 32 13 34 6 3
2 6 -10 6 -20 1 -23 -4 -23 -34z"/>
<path d="M9454 3494 c11 -43 24 -51 35 -23 l10 24 7 -22 c9 -32 20 -29 33 8
13 39 13 39 2 39 -5 0 -12 -10 -14 -22 l-4 -23 -8 23 c-10 29 -19 28 -32 -5
-10 -25 -11 -26 -12 -6 -1 12 -6 25 -12 29 -9 5 -10 -1 -5 -22z"/>
<path d="M9560 3485 c0 -19 5 -35 10 -35 6 0 10 16 10 35 0 19 -4 35 -10 35
-5 0 -10 -16 -10 -35z"/>
<path d="M9850 3484 c0 -19 5 -34 10 -34 6 0 10 10 10 23 0 13 4 27 10 33 6 6
3 10 -10 11 -16 1 -20 -4 -20 -33z"/>
<path d="M9912 3508 c-26 -26 1 -65 38 -53 16 5 20 14 18 33 -3 30 -35 41 -56
20z m41 -11 c3 -8 1 -20 -3 -27 -7 -11 -11 -11 -24 -1 -12 11 -14 17 -5 27 14
18 25 18 32 1z"/>
<path d="M9991 3488 c5 -18 9 -34 9 -35 0 -2 4 -3 9 -3 5 0 12 10 15 23 l7 22
10 -24 c11 -29 25 -19 33 24 l6 30 -13 -28 -13 -27 -11 27 c-11 28 -11 28 -18
6 -9 -28 -25 -30 -25 -3 0 11 -4 20 -9 20 -6 0 -6 -12 0 -32z"/>
<path d="M10090 3484 c0 -40 17 -46 22 -7 4 39 28 42 28 4 0 -17 5 -31 10 -31
12 0 13 40 2 56 -4 7 -19 12 -34 12 -25 0 -28 -4 -28 -34z"/>
<path d="M15410 3390 c0 -5 5 -10 10 -10 6 0 10 5 10 10 0 6 -4 10 -10 10 -5
0 -10 -4 -10 -10z"/>
<path d="M8978 3353 c6 -2 18 -2 25 0 6 3 1 5 -13 5 -14 0 -19 -2 -12 -5z"/>
<path d="M8936 3334 c-23 -23 -20 -30 4 -9 11 10 20 20 20 22 0 7 -9 2 -24
-13z"/>
<path d="M9035 3330 c21 -24 26 -25 19 -6 -3 8 -13 17 -22 21 -13 5 -13 2 3
-15z"/>
<path d="M8385 3320 c-5 -9 -1 -10 14 -5 28 9 29 -25 1 -50 -28 -26 -25 -35
13 -34 23 1 26 3 10 6 -28 5 -29 14 -2 31 27 17 22 56 -8 60 -11 2 -24 -2 -28
-8z"/>
<path d="M8472 3318 c-14 -14 -16 -57 -3 -76 14 -23 46 -10 46 18 0 20 -5 25
-23 24 -28 -1 -23 17 9 33 22 12 22 13 4 13 -12 0 -26 -5 -33 -12z m34 -49
c10 -17 -13 -36 -27 -22 -12 12 -4 33 11 33 5 0 12 -5 16 -11z"/>
<path d="M9144 3316 c-10 -26 4 -49 26 -43 11 3 20 2 20 -1 0 -15 -16 -30 -35
-35 -15 -4 -14 -5 5 -4 47 4 53 86 6 95 -9 2 -19 -4 -22 -12z m41 -16 c0 -8
-8 -16 -17 -18 -13 -2 -18 3 -18 18 0 15 5 20 18 18 9 -2 17 -10 17 -18z"/>
<path d="M9251 3311 c-6 -11 -11 -28 -10 -38 0 -10 5 -3 10 15 9 31 32 43 42
22 3 -6 4 -5 3 2 -4 21 -34 21 -45 -1z"/>
<path d="M9336 3321 c-3 -5 3 -7 14 -4 18 5 20 0 20 -37 0 -34 -3 -41 -17 -38
-10 2 -21 16 -24 33 -6 29 -7 29 -8 4 -1 -31 22 -54 44 -45 23 8 17 90 -7 94
-9 2 -19 -1 -22 -7z"/>
<path d="M9466 3321 c-4 -6 -3 -11 2 -11 5 0 12 -9 15 -20 4 -16 0 -20 -19
-20 -13 0 -24 -4 -24 -8 0 -5 14 -7 30 -4 26 4 30 8 24 26 -11 38 -21 50 -28
37z"/>
<path d="M9531 3278 c2 -52 2 -53 8 -13 6 36 7 38 15 17 4 -13 10 -21 13 -19
5 6 -25 67 -32 67 -3 0 -4 -24 -4 -52z"/>
<path d="M9606 3314 c-4 -9 -4 -19 -1 -22 3 -3 6 1 7 9 0 8 4 -6 8 -31 l7 -45
1 53 c2 51 -9 69 -22 36z"/>
<path d="M9879 3313 c-8 -10 -9 -14 -2 -10 8 5 13 -6 16 -35 3 -41 4 -41 5 10
1 28 0 52 -2 52 -2 0 -10 -8 -17 -17z"/>
<path d="M9990 3319 c23 -10 24 -11 7 -24 -15 -11 -16 -13 -2 -19 22 -8 18
-25 -7 -36 l-23 -9 23 0 c27 -1 39 23 23 43 -8 9 -8 16 -2 20 17 11 0 36 -23
35 -19 0 -19 -1 4 -10z"/>
<path d="M10044 3305 c-8 -32 3 -75 19 -75 21 0 37 22 37 50 0 49 -45 69 -56
25z m41 -26 c0 -24 -5 -34 -15 -34 -16 0 -25 37 -16 62 10 26 31 8 31 -28z"/>
<path d="M10186 3321 c-4 -6 -3 -11 2 -11 5 0 12 -9 15 -20 4 -16 0 -20 -19
-20 -13 0 -24 -4 -24 -8 0 -5 14 -7 30 -4 26 4 30 8 24 26 -11 38 -21 50 -28
37z"/>
<path d="M10251 3278 c2 -52 2 -53 8 -13 6 36 7 38 15 17 4 -13 10 -21 13 -19
5 6 -25 67 -32 67 -3 0 -4 -24 -4 -52z"/>
<path d="M10326 3314 c-4 -9 -4 -19 -1 -22 3 -3 6 1 7 9 0 8 4 -6 8 -31 l7
-45 1 53 c2 51 -9 69 -22 36z"/>
<path d="M8991 3298 c-1 -23 3 -28 22 -27 15 1 17 3 5 6 -9 2 -19 14 -21 26
-4 18 -5 17 -6 -5z"/>
<path d="M9795 3310 c-3 -6 1 -7 9 -4 18 7 21 14 7 14 -6 0 -13 -4 -16 -10z"/>
<path d="M8912 3280 c0 -14 2 -19 5 -12 2 6 2 18 0 25 -3 6 -5 1 -5 -13z"/>
<path d="M9062 3280 c0 -14 2 -19 5 -12 2 6 2 18 0 25 -3 6 -5 1 -5 -13z"/>
<path d="M9582 3260 c-7 -11 -8 -20 -3 -20 9 0 24 30 18 36 -1 2 -8 -6 -15
-16z"/>
<path d="M10302 3260 c-7 -11 -8 -20 -3 -20 9 0 24 30 18 36 -1 2 -8 -6 -15
-16z"/>
<path d="M9698 3263 c6 -2 18 -2 25 0 6 3 1 5 -13 5 -14 0 -19 -2 -12 -5z"/>
<path d="M9290 3251 c0 -8 -8 -11 -20 -8 -11 3 -18 1 -14 -4 3 -5 11 -9 19 -9
16 0 30 18 21 27 -3 4 -6 1 -6 -6z"/>
<path d="M8926 3236 c3 -8 13 -17 22 -21 13 -5 13 -2 -3 15 -21 24 -26 25 -19
6z"/>
<path d="M9035 3230 c-16 -17 -16 -20 -3 -15 9 4 19 13 22 21 7 19 2 18 -19
-6z"/>
<path d="M8978 3203 c6 -2 18 -2 25 0 6 3 1 5 -13 5 -14 0 -19 -2 -12 -5z"/>
<path d="M657 3183 c-4 -3 -7 -14 -7 -24 0 -13 5 -16 16 -12 11 4 23 -1 32
-13 9 -12 13 -13 10 -4 -2 8 -14 19 -26 25 -28 13 -28 22 1 28 20 4 20 4 1 6
-11 0 -24 -2 -27 -6z"/>
<path d="M1772 3178 c-30 -30 -2 -98 34 -84 25 10 14 51 -14 50 -16 0 -22 4
-20 15 2 9 13 16 25 15 12 0 20 3 17 8 -7 12 -28 10 -42 -4z m38 -58 c0 -21
-24 -28 -35 -10 -8 14 3 30 21 30 8 0 14 -9 14 -20z"/>
<path d="M2898 3183 c17 -3 22 -9 17 -21 -16 -40 -23 -72 -14 -67 5 4 9 14 9
24 0 9 7 26 15 37 21 28 18 34 -17 33 -25 -1 -27 -3 -10 -6z"/>
<path d="M4004 3175 c-4 -9 -4 -19 0 -22 3 -3 1 -12 -5 -20 -13 -15 4 -43 26
-43 19 0 38 27 29 42 -5 7 -8 22 -9 33 0 24 -33 33 -41 10z m36 -10 c0 -8 -7
-15 -15 -15 -8 0 -15 7 -15 15 0 8 7 15 15 15 8 0 15 -7 15 -15z m8 -42 c5
-17 -26 -29 -40 -15 -6 6 -7 15 -3 22 9 14 37 9 43 -7z"/>
<path d="M5121 3177 c-16 -19 -3 -47 21 -47 11 0 18 -5 15 -12 -2 -7 -12 -12
-21 -12 -9 1 -16 -3 -16 -8 0 -5 10 -8 23 -6 19 3 22 9 22 48 0 48 -20 65 -44
37z m39 -17 c0 -11 -6 -20 -14 -20 -18 0 -29 16 -21 30 11 18 35 11 35 -10z"/>
<path d="M6215 3173 c-15 -12 -16 -14 -3 -10 14 5 18 -2 21 -36 3 -40 4 -39 5
11 1 28 1 52 0 52 -2 0 -12 -8 -23 -17z"/>
<path d="M6274 3165 c-9 -38 3 -75 26 -75 13 0 22 9 26 25 9 38 -3 75 -26 75
-13 0 -22 -9 -26 -25z m41 -26 c0 -24 -5 -34 -15 -34 -16 0 -25 37 -16 62 10
26 31 8 31 -28z"/>
<path d="M7339 3173 c-8 -10 -9 -14 -2 -10 8 5 13 -6 16 -35 3 -41 4 -41 5 10
1 28 0 52 -2 52 -2 0 -10 -8 -17 -17z"/>
<path d="M7405 3173 c-15 -12 -16 -14 -3 -10 14 5 18 -2 21 -36 3 -40 4 -39 5
11 1 28 1 52 0 52 -2 0 -12 -8 -23 -17z"/>
<path d="M649 3108 c15 -20 36 -23 46 -8 3 6 -1 7 -10 4 -8 -4 -23 0 -33 7
-15 13 -16 12 -3 -3z"/>
<path d="M1675 2989 c-15 -23 15 -30 121 -27 89 2 109 6 109 18 0 12 -20 16
-112 18 -74 2 -114 -1 -118 -9z"/>
<path d="M2795 2989 c-15 -23 15 -30 121 -27 89 2 109 6 109 18 0 12 -20 16
-112 18 -74 2 -114 -1 -118 -9z"/>
<path d="M5025 2989 c-15 -23 15 -30 121 -27 89 2 109 6 109 18 0 12 -20 16
-112 18 -74 2 -114 -1 -118 -9z"/>
<path d="M8903 2773 c-4 -10 2 -23 15 -34 28 -22 29 -43 2 -36 -11 3 -20 1
-20 -4 0 -5 11 -9 25 -9 39 0 44 29 10 56 l-29 23 24 10 c25 10 25 10 2 10
-12 1 -25 -6 -29 -16z"/>
<path d="M9560 2780 c0 -5 5 -10 10 -10 6 0 10 5 10 10 0 6 -4 10 -10 10 -5 0
-10 -4 -10 -10z"/>
<path d="M9652 2740 c0 -51 0 -53 9 -22 12 39 31 37 41 -4 6 -27 6 -27 5 6 -2
28 -7 36 -24 38 -12 2 -24 11 -26 20 -3 9 -5 -8 -5 -38z"/>
<path d="M9770 2740 c0 -27 5 -50 10 -50 6 0 10 11 10 25 0 18 5 25 20 25 15
0 20 -7 20 -25 0 -14 5 -25 10 -25 6 0 10 23 10 50 0 28 -4 50 -10 50 -5 0
-10 -9 -10 -20 0 -13 -7 -20 -20 -20 -13 0 -20 7 -20 20 0 11 -4 20 -10 20 -5
0 -10 -22 -10 -50z"/>
<path d="M9953 2740 c0 -30 2 -43 4 -27 2 15 2 39 0 55 -2 15 -4 2 -4 -28z"/>
<path d="M9368 2768 c-6 -19 6 -71 17 -75 8 -2 11 30 6 80 -1 12 -19 8 -23 -5z"/>
<path d="M9603 2769 c-17 -17 0 -74 22 -76 11 -2 14 0 8 3 -15 6 -18 51 -4 56
5 2 3 8 -4 15 -8 7 -16 8 -22 2z"/>
<path d="M8304 2739 c3 -13 9 -37 13 -52 7 -36 24 -30 37 14 l10 34 10 -37 c5
-21 13 -38 18 -38 4 0 8 1 8 3 0 1 7 23 15 50 8 26 10 47 6 47 -5 0 -13 -17
-18 -37 l-10 -38 -10 35 c-5 19 -13 35 -18 35 -4 0 -14 -16 -21 -35 l-12 -35
-7 33 c-4 18 -12 35 -18 39 -6 4 -8 -2 -3 -18z"/>
<path d="M8440 2710 l0 -50 33 1 c23 1 26 3 10 6 -27 5 -31 39 -5 46 16 4 16
5 0 6 -10 0 -18 7 -18 15 0 8 8 17 18 19 10 3 6 5 -10 6 -27 1 -28 -1 -28 -49z"/>
<path d="M8520 2710 c0 -47 2 -50 25 -50 30 0 59 39 48 66 -9 24 -22 34 -50
34 -21 0 -23 -5 -23 -50z m54 18 c13 -21 -2 -51 -28 -56 -13 -3 -16 5 -16 38
0 33 3 41 16 38 9 -2 22 -11 28 -20z"/>
<path d="M8970 2738 c0 -34 12 -46 43 -46 24 0 27 4 27 34 0 41 -17 46 -22 7
-4 -34 -22 -33 -26 2 -4 31 -22 33 -22 3z"/>
<path d="M9061 2708 c1 -29 3 -45 6 -35 2 9 13 17 23 17 26 0 46 28 34 48 -6
9 -16 18 -23 20 -10 3 -10 0 0 -17 11 -16 11 -23 1 -33 -10 -10 -15 -10 -21 1
-5 8 -7 20 -4 27 2 6 0 15 -6 19 -7 4 -11 -12 -10 -47z"/>
<path d="M9140 2709 c0 -27 5 -49 10 -49 6 0 10 8 10 18 0 13 7 18 23 18 18
-1 22 4 22 29 0 27 -3 30 -32 32 -33 1 -33 1 -33 -48z m57 25 c1 -5 -2 -16 -7
-24 -12 -20 -35 2 -26 25 6 17 27 16 33 -1z"/>
<path d="M9231 2742 c-12 -23 4 -52 29 -52 26 0 45 36 29 56 -16 19 -46 18
-58 -4z m46 -8 c8 -21 -13 -42 -28 -27 -13 13 -5 43 11 43 6 0 13 -7 17 -16z"/>
<path d="M9310 2725 c0 -19 5 -35 10 -35 6 0 10 13 10 29 0 16 6 32 13 34 6 3
2 6 -10 6 -20 1 -23 -4 -23 -34z"/>
<path d="M9454 2734 c11 -43 24 -51 35 -23 l10 24 7 -22 c9 -32 20 -29 33 8
13 39 13 39 2 39 -5 0 -12 -10 -14 -22 l-4 -23 -8 23 c-10 29 -19 28 -32 -5
-10 -25 -11 -26 -12 -6 -1 12 -6 25 -12 29 -9 5 -10 -1 -5 -22z"/>
<path d="M9560 2725 c0 -19 5 -35 10 -35 6 0 10 16 10 35 0 19 -4 35 -10 35
-5 0 -10 -16 -10 -35z"/>
<path d="M9874 2746 c-11 -28 1 -51 26 -53 l25 -3 -25 12 -25 12 28 4 c20 2
27 8 25 20 -4 22 -46 28 -54 8z m41 -6 c3 -5 -3 -10 -15 -10 -12 0 -18 5 -15
10 3 6 10 10 15 10 5 0 12 -4 15 -10z"/>
<path d="M9991 2746 c-26 -32 13 -76 42 -47 7 7 3 8 -12 4 -12 -3 -21 -1 -21
6 0 6 9 11 21 11 14 0 19 5 17 17 -4 23 -31 28 -47 9z m34 -6 c3 -5 -1 -10 -9
-10 -9 0 -16 5 -16 10 0 6 4 10 9 10 6 0 13 -4 16 -10z"/>
<path d="M10061 2723 l1 -38 9 33 c12 39 31 37 41 -4 6 -27 6 -27 5 6 -2 30
-6 35 -29 38 -26 3 -28 1 -27 -35z"/>
<path d="M625 2643 c-15 -12 -16 -14 -3 -10 14 5 18 -2 21 -36 3 -40 4 -39 5
11 1 28 1 52 0 52 -2 0 -12 -8 -23 -17z"/>
<path d="M690 2643 c-12 -15 -12 -16 0 -5 8 6 20 12 27 12 19 0 16 -37 -5 -52
-35 -25 -35 -38 0 -37 25 1 27 3 10 6 l-24 5 22 23 c24 26 24 58 -1 63 -9 1
-22 -5 -29 -15z"/>
<path d="M1745 2643 c-15 -12 -16 -14 -3 -10 14 5 18 -2 21 -36 3 -40 4 -39 5
11 1 28 1 52 0 52 -2 0 -12 -8 -23 -17z"/>
<path d="M1807 2653 c-14 -13 -7 -25 8 -13 8 6 20 8 26 4 9 -5 7 -11 -6 -21
-17 -12 -17 -13 -2 -13 9 0 17 -7 17 -15 0 -21 -30 -31 -42 -14 -8 12 -9 11
-5 -1 2 -8 15 -15 28 -15 21 0 24 5 24 35 1 49 -25 77 -48 53z"/>
<path d="M2860 2645 c-8 -9 -9 -15 -2 -15 6 0 13 -17 15 -37 3 -31 4 -29 5 15
2 57 1 60 -18 37z"/>
<path d="M2950 2645 c-9 -11 -10 -16 -2 -11 8 5 12 -1 12 -20 0 -21 -4 -25
-20 -21 -11 3 -20 1 -20 -4 0 -5 9 -9 19 -9 11 0 21 -5 23 -12 8 -23 14 16 8
56 -5 37 -6 38 -20 21z"/>
<path d="M3979 2643 c-8 -10 -9 -14 -2 -10 8 5 13 -6 16 -35 3 -41 4 -41 5 10
1 28 0 52 -2 52 -2 0 -10 -8 -17 -17z"/>
<path d="M4047 2653 c-4 -3 -7 -14 -7 -24 0 -13 5 -16 16 -12 11 4 23 -1 32
-13 9 -12 13 -13 10 -4 -2 8 -14 19 -26 25 -28 13 -28 22 1 28 20 4 20 4 1 6
-11 0 -24 -2 -27 -6z"/>
<path d="M5095 2643 c-15 -12 -16 -14 -3 -10 14 5 18 -2 21 -36 3 -40 4 -39 5
11 1 28 1 52 0 52 -2 0 -12 -8 -23 -17z"/>
<path d="M5162 2648 c-30 -30 -2 -98 34 -84 25 10 14 51 -14 50 -16 0 -22 4
-20 15 2 9 13 16 25 15 12 0 20 3 17 8 -7 12 -28 10 -42 -4z m38 -58 c0 -11
-6 -20 -14 -20 -18 0 -29 16 -21 30 11 18 35 11 35 -10z"/>
<path d="M6216 2645 c-11 -8 -14 -15 -8 -15 7 0 12 -15 12 -35 0 -19 5 -35 10
-35 6 0 10 23 10 50 0 28 -1 50 -2 50 -2 0 -12 -7 -22 -15z"/>
<path d="M6288 2653 c26 -5 26 -2 6 -48 -8 -20 -13 -40 -10 -43 3 -2 8 4 12
14 5 16 19 49 32 77 2 4 -11 6 -30 6 -23 -1 -26 -3 -10 -6z"/>
<path d="M7336 2645 c-11 -8 -14 -15 -8 -15 7 0 12 -15 12 -35 0 -19 5 -35 10
-35 6 0 10 23 10 50 0 28 -1 50 -2 50 -2 0 -12 -7 -22 -15z"/>
<path d="M7397 2647 c-3 -8 0 -20 6 -26 8 -8 8 -11 -2 -11 -7 0 -11 -9 -9 -22
2 -17 10 -23 28 -23 23 0 25 4 25 45 0 38 -3 45 -21 48 -12 2 -24 -3 -27 -11z
m43 -12 c0 -8 -7 -15 -15 -15 -8 0 -15 7 -15 15 0 8 7 15 15 15 8 0 15 -7 15
-15z m0 -45 c0 -11 -6 -20 -14 -20 -18 0 -29 16 -21 30 11 18 35 11 35 -10z"/>
<path d="M15410 2630 c0 -5 5 -10 10 -10 6 0 10 5 10 10 0 6 -4 10 -10 10 -5
0 -10 -4 -10 -10z"/>
<path d="M8978 2593 c6 -2 18 -2 25 0 6 3 1 5 -13 5 -14 0 -19 -2 -12 -5z"/>
<path d="M4039 2578 c15 -20 36 -23 46 -8 3 6 -1 7 -10 4 -8 -4 -23 0 -33 7
-15 13 -16 12 -3 -3z"/>
<path d="M8936 2574 c-23 -23 -20 -30 4 -9 11 10 20 20 20 22 0 7 -9 2 -24
-13z"/>
<path d="M9035 2570 c21 -24 26 -25 19 -6 -3 8 -13 17 -22 21 -13 5 -13 2 3
-15z"/>
<path d="M8399 2553 c-10 -11 -10 -14 -1 -9 9 5 12 -4 12 -33 0 -23 5 -41 10
-41 6 0 10 23 10 50 0 52 -8 61 -31 33z"/>
<path d="M8473 2560 c22 -14 22 -30 0 -30 -15 0 -15 -1 2 -13 20 -15 12 -42
-11 -33 -8 3 -14 1 -14 -4 0 -15 36 -12 50 5 6 8 8 20 4 27 -5 7 -8 22 -9 33
0 12 -8 21 -20 23 -18 2 -18 2 -2 -8z"/>
<path d="M9144 2556 c-10 -26 4 -49 26 -43 11 3 20 2 20 -1 0 -15 -16 -30 -35
-35 -15 -4 -14 -5 5 -4 47 4 53 86 6 95 -9 2 -19 -4 -22 -12z m41 -16 c0 -8
-8 -16 -17 -18 -13 -2 -18 3 -18 18 0 15 5 20 18 18 9 -2 17 -10 17 -18z"/>
<path d="M9251 2551 c-6 -11 -11 -28 -10 -38 0 -10 5 -3 10 15 9 31 32 43 42
22 3 -6 4 -5 3 2 -4 21 -34 21 -45 -1z"/>
<path d="M9336 2561 c-3 -5 3 -7 14 -4 18 5 20 0 20 -37 0 -34 -3 -41 -17 -38
-10 2 -21 16 -24 33 -6 29 -7 29 -8 4 -1 -31 22 -54 44 -45 23 8 17 90 -7 94
-9 2 -19 -1 -22 -7z"/>
<path d="M9466 2561 c-4 -6 -3 -11 2 -11 5 0 12 -9 15 -20 4 -16 0 -20 -19
-20 -13 0 -24 -4 -24 -8 0 -5 14 -7 30 -4 26 4 30 8 24 26 -11 38 -21 50 -28
37z"/>
<path d="M9531 2518 c2 -52 2 -53 8 -13 6 36 7 38 15 17 4 -13 10 -21 13 -19
5 6 -25 67 -32 67 -3 0 -4 -24 -4 -52z"/>
<path d="M9606 2554 c-4 -9 -4 -19 -1 -22 3 -3 6 1 7 9 0 8 4 -6 8 -31 l7 -45
1 53 c2 51 -9 69 -22 36z"/>
<path d="M9879 2553 c-8 -10 -9 -14 -2 -10 8 5 13 -6 16 -35 3 -41 4 -41 5 10
1 28 0 52 -2 52 -2 0 -10 -8 -17 -17z"/>
<path d="M9990 2559 c23 -10 24 -11 7 -24 -15 -11 -16 -13 -2 -19 22 -8 18
-25 -7 -36 l-23 -9 23 0 c27 -1 39 23 23 43 -8 9 -8 16 -2 20 17 11 0 36 -23
35 -19 0 -19 -1 4 -10z"/>
<path d="M10044 2545 c-8 -32 3 -75 19 -75 21 0 37 22 37 50 0 49 -45 69 -56
25z m41 -26 c0 -24 -5 -34 -15 -34 -16 0 -25 37 -16 62 10 26 31 8 31 -28z"/>
<path d="M10186 2561 c-4 -6 -3 -11 2 -11 5 0 12 -9 15 -20 4 -16 0 -20 -19
-20 -13 0 -24 -4 -24 -8 0 -5 14 -7 30 -4 26 4 30 8 24 26 -11 38 -21 50 -28
37z"/>
<path d="M10251 2518 c2 -52 2 -53 8 -13 6 36 7 38 15 17 4 -13 10 -21 13 -19
5 6 -25 67 -32 67 -3 0 -4 -24 -4 -52z"/>
<path d="M10326 2554 c-4 -9 -4 -19 -1 -22 3 -3 6 1 7 9 0 8 4 -6 8 -31 l7
-45 1 53 c2 51 -9 69 -22 36z"/>
<path d="M8991 2538 c-1 -23 3 -28 22 -27 15 1 17 3 5 6 -9 2 -19 14 -21 26
-4 18 -5 17 -6 -5z"/>
<path d="M9795 2550 c-3 -6 1 -7 9 -4 18 7 21 14 7 14 -6 0 -13 -4 -16 -10z"/>
<path d="M8912 2520 c0 -14 2 -19 5 -12 2 6 2 18 0 25 -3 6 -5 1 -5 -13z"/>
<path d="M9062 2520 c0 -14 2 -19 5 -12 2 6 2 18 0 25 -3 6 -5 1 -5 -13z"/>
<path d="M9582 2500 c-7 -11 -8 -20 -3 -20 9 0 24 30 18 36 -1 2 -8 -6 -15
-16z"/>
<path d="M10302 2500 c-7 -11 -8 -20 -3 -20 9 0 24 30 18 36 -1 2 -8 -6 -15
-16z"/>
<path d="M9698 2503 c6 -2 18 -2 25 0 6 3 1 5 -13 5 -14 0 -19 -2 -12 -5z"/>
<path d="M9290 2491 c0 -8 -8 -11 -20 -8 -11 3 -18 1 -14 -4 3 -5 11 -9 19 -9
16 0 30 18 21 27 -3 4 -6 1 -6 -6z"/>
<path d="M8926 2476 c3 -8 13 -17 22 -21 13 -5 13 -2 -3 15 -21 24 -26 25 -19
6z"/>
<path d="M9035 2470 c-16 -17 -16 -20 -3 -15 9 4 19 13 22 21 7 19 2 18 -19
-6z"/>
<path d="M555 2459 c-15 -23 15 -30 121 -27 89 2 109 6 109 18 0 12 -20 16
-112 18 -74 2 -114 -1 -118 -9z"/>
<path d="M2795 2459 c-15 -23 15 -30 121 -27 89 2 109 6 109 18 0 12 -20 16
-112 18 -74 2 -114 -1 -118 -9z"/>
<path d="M5025 2459 c-15 -23 15 -30 121 -27 89 2 109 6 109 18 0 12 -20 16
-112 18 -74 2 -114 -1 -118 -9z"/>
<path d="M8978 2443 c6 -2 18 -2 25 0 6 3 1 5 -13 5 -14 0 -19 -2 -12 -5z"/>
<path d="M625 2113 c-15 -12 -16 -14 -3 -10 14 5 18 -2 21 -36 3 -40 4 -39 5
11 1 28 1 52 0 52 -2 0 -12 -8 -23 -17z"/>
<path d="M691 2117 c-16 -19 -3 -47 21 -47 11 0 18 -5 15 -12 -2 -7 -12 -12
-21 -12 -9 1 -16 -3 -16 -8 0 -5 10 -8 23 -6 19 3 22 9 22 48 0 48 -20 65 -44
37z m39 -17 c0 -21 -24 -28 -35 -10 -8 14 3 30 21 30 8 0 14 -9 14 -20z"/>
<path d="M1730 2113 c-12 -15 -12 -16 0 -5 8 6 20 12 27 12 19 0 16 -37 -5
-52 -35 -25 -35 -38 0 -37 25 1 27 3 10 6 l-24 5 22 23 c24 26 24 58 -1 63 -9
1 -22 -5 -29 -15z"/>
<path d="M1804 2105 c-9 -38 3 -75 26 -75 13 0 22 9 26 25 9 38 -3 75 -26 75
-13 0 -22 -9 -26 -25z m41 -26 c0 -24 -5 -34 -15 -34 -16 0 -25 37 -16 62 10
26 31 8 31 -28z"/>
<path d="M2845 2119 c-4 -6 -4 -13 -1 -16 3 -4 6 -1 6 5 0 7 6 12 14 12 27 0
28 -22 2 -49 -34 -35 -33 -41 7 -40 l32 1 -30 7 c-29 7 -29 7 -9 19 25 13 36
36 28 57 -7 17 -40 20 -49 4z"/>
<path d="M2939 2113 c-8 -10 -9 -14 -2 -10 8 5 13 -6 16 -35 3 -41 4 -41 5 10
1 28 0 52 -2 52 -2 0 -10 -8 -17 -17z"/>
<path d="M3965 2119 c-4 -6 -4 -13 -1 -16 3 -4 6 -1 6 5 0 7 6 12 14 12 27 0
28 -22 2 -49 -34 -35 -33 -41 7 -40 31 2 31 2 3 6 l-28 5 27 28 c24 25 26 32
15 45 -14 17 -36 20 -45 4z"/>
<path d="M4040 2113 c-12 -15 -12 -16 0 -5 42 37 54 -7 13 -50 l-27 -28 35 1
c25 1 28 3 11 6 l-24 5 22 23 c24 26 24 58 -1 63 -9 1 -22 -5 -29 -15z"/>
<path d="M5080 2113 c-12 -15 -12 -16 0 -5 42 37 54 -7 13 -50 l-27 -28 35 1
c25 1 28 3 11 6 l-24 5 22 23 c24 26 24 58 -1 63 -9 1 -22 -5 -29 -15z"/>
<path d="M5160 2113 c-12 -15 -12 -16 0 -5 8 6 20 12 27 12 17 0 17 -27 1 -33
-10 -4 -10 -6 0 -6 16 -1 16 -41 -1 -41 -7 0 -20 6 -27 12 -8 7 -7 4 2 -6 27
-31 48 -14 45 36 -2 48 -24 62 -47 31z"/>
<path d="M6197 2124 c-4 -4 -7 -12 -7 -18 0 -6 5 -5 12 2 7 7 18 12 25 12 21
0 15 -25 -12 -50 -33 -31 -32 -40 8 -39 25 1 27 3 9 6 l-24 5 22 23 c12 13 20
31 18 42 -3 18 -38 30 -51 17z"/>
<path d="M6304 2119 c-6 -8 -15 -21 -19 -29 -8 -13 -7 -13 8 -1 15 12 17 11
17 -9 0 -17 -4 -21 -20 -17 -11 3 -20 1 -20 -4 0 -5 9 -9 19 -9 11 0 21 -5 23
-12 8 -23 14 16 8 56 -4 31 -7 36 -16 25z"/>
<path d="M7317 2124 c-4 -4 -7 -12 -7 -18 0 -6 5 -5 12 2 7 7 18 12 25 12 21
0 15 -25 -12 -50 -33 -31 -32 -40 8 -39 25 1 27 3 9 6 l-24 5 22 23 c12 13 20
31 18 42 -3 18 -38 30 -51 17z"/>
<path d="M7398 2105 c-5 -22 -2 -24 18 -19 21 5 24 2 24 -20 0 -28 -18 -34
-39 -13 -11 10 -13 9 -9 -3 3 -8 16 -15 29 -15 19 0 25 6 27 28 3 22 -1 30
-17 34 -28 7 -27 21 2 26 20 4 19 4 -4 6 -21 1 -28 -4 -31 -24z"/>
<path d="M8903 2013 c-4 -10 2 -23 15 -34 28 -22 29 -43 2 -36 -11 3 -20 1
-20 -4 0 -5 11 -9 25 -9 39 0 44 29 10 56 l-29 23 24 10 c25 10 25 10 2 10
-12 1 -25 -6 -29 -16z"/>
<path d="M9560 2020 c0 -5 5 -10 10 -10 6 0 10 5 10 10 0 6 -4 10 -10 10 -5 0
-10 -4 -10 -10z"/>
<path d="M9652 1980 c0 -51 0 -53 9 -22 12 39 31 37 41 -4 6 -27 6 -27 5 6 -2
28 -7 36 -24 38 -12 2 -24 11 -26 20 -3 9 -5 -8 -5 -38z"/>
<path d="M9770 1980 c0 -50 1 -51 28 -48 25 3 27 6 27 48 0 42 -2 45 -27 48
-27 3 -28 2 -28 -48z m42 25 c0 -5 -5 -11 -11 -13 -6 -2 -11 4 -11 13 0 9 5
15 11 13 6 -2 11 -8 11 -13z m3 -45 c0 -7 -6 -15 -12 -17 -8 -3 -13 4 -13 17
0 13 5 20 13 18 6 -3 12 -11 12 -18z"/>
<path d="M10002 1980 c0 -40 2 -47 7 -26 9 41 31 46 31 7 0 -17 5 -31 11 -31
6 0 9 14 7 33 -2 24 -8 32 -23 32 -11 0 -23 9 -27 20 -3 11 -6 -4 -6 -35z"/>
<path d="M9368 2008 c-6 -19 6 -71 17 -75 8 -2 11 30 6 80 -1 12 -19 8 -23 -5z"/>
<path d="M9603 2009 c-17 -17 0 -74 22 -76 11 -2 14 0 8 3 -15 6 -18 51 -4 56
5 2 3 8 -4 15 -8 7 -16 8 -22 2z"/>
<path d="M8304 1979 c3 -13 9 -37 13 -52 7 -36 24 -30 37 14 l10 34 10 -37 c5
-21 13 -38 18 -38 4 0 8 1 8 3 0 1 7 23 15 50 8 26 10 47 6 47 -5 0 -13 -17
-18 -37 l-10 -38 -10 35 c-5 19 -13 35 -18 35 -4 0 -14 -16 -21 -35 l-12 -35
-7 33 c-4 18 -12 35 -18 39 -6 4 -8 -2 -3 -18z"/>
<path d="M8440 1950 l0 -50 33 1 c23 1 26 3 10 6 -27 5 -31 39 -5 46 16 4 16
5 0 6 -10 0 -18 7 -18 15 0 8 8 17 18 19 10 3 6 5 -10 6 -27 1 -28 -1 -28 -49z"/>
<path d="M8520 1950 c0 -47 2 -50 25 -50 30 0 59 39 48 66 -9 24 -22 34 -50
34 -21 0 -23 -5 -23 -50z m54 18 c13 -21 -2 -51 -28 -56 -13 -3 -16 5 -16 38
0 33 3 41 16 38 9 -2 22 -11 28 -20z"/>
<path d="M8970 1978 c0 -34 12 -46 43 -46 24 0 27 4 27 34 0 41 -17 46 -22 7
-4 -34 -22 -33 -26 2 -4 31 -22 33 -22 3z"/>
<path d="M9061 1948 c1 -29 3 -45 6 -35 2 9 13 17 23 17 26 0 46 28 34 48 -6
9 -16 18 -23 20 -10 3 -10 0 0 -17 11 -16 11 -23 1 -33 -10 -10 -15 -10 -21 1
-5 8 -7 20 -4 27 2 6 0 15 -6 19 -7 4 -11 -12 -10 -47z"/>
<path d="M9140 1949 c0 -27 5 -49 10 -49 6 0 10 8 10 18 0 13 7 18 23 18 18
-1 22 4 22 29 0 27 -3 30 -32 32 -33 1 -33 1 -33 -48z m57 25 c1 -5 -2 -16 -7
-24 -12 -20 -35 2 -26 25 6 17 27 16 33 -1z"/>
<path d="M9231 1982 c-12 -23 4 -52 29 -52 26 0 45 36 29 56 -16 19 -46 18
-58 -4z m46 -8 c8 -21 -13 -42 -28 -27 -13 13 -5 43 11 43 6 0 13 -7 17 -16z"/>
<path d="M9310 1965 c0 -19 5 -35 10 -35 6 0 10 13 10 29 0 16 6 32 13 34 6 3
2 6 -10 6 -20 1 -23 -4 -23 -34z"/>
<path d="M9454 1974 c11 -43 24 -51 35 -23 l10 24 7 -22 c9 -32 20 -29 33 8
13 39 13 39 2 39 -5 0 -12 -10 -14 -22 l-4 -23 -8 23 c-10 29 -19 28 -32 -5
-10 -25 -11 -26 -12 -6 -1 12 -6 25 -12 29 -9 5 -10 -1 -5 -22z"/>
<path d="M9560 1965 c0 -19 5 -35 10 -35 6 0 10 16 10 35 0 19 -4 35 -10 35
-5 0 -10 -16 -10 -35z"/>
<path d="M9850 1978 c0 -33 12 -47 38 -45 18 1 22 7 21 37 -1 34 -1 34 -8 6
-9 -41 -31 -46 -31 -7 0 17 -4 31 -10 31 -5 0 -10 -10 -10 -22z"/>
<path d="M9934 1988 c-4 -6 0 -16 9 -23 21 -15 22 -29 2 -21 -8 3 -15 1 -15
-4 0 -14 37 -12 46 2 4 6 0 16 -9 23 -21 15 -22 29 -2 21 8 -3 15 -1 15 4 0
14 -37 12 -46 -2z"/>
<path d="M15410 1870 c0 -5 5 -10 10 -10 6 0 10 5 10 10 0 6 -4 10 -10 10 -5
0 -10 -4 -10 -10z"/>
<path d="M8978 1833 c6 -2 18 -2 25 0 6 3 1 5 -13 5 -14 0 -19 -2 -12 -5z"/>
<path d="M8936 1814 c-23 -23 -20 -30 4 -9 11 10 20 20 20 22 0 7 -9 2 -24
-13z"/>
<path d="M9035 1810 c21 -24 26 -25 19 -6 -3 8 -13 17 -22 21 -13 5 -13 2 3
-15z"/>
<path d="M8399 1793 c-10 -11 -10 -14 -1 -9 9 5 12 -4 12 -33 0 -23 5 -41 10
-41 6 0 10 23 10 50 0 52 -8 61 -31 33z"/>
<path d="M8455 1800 c-3 -5 0 -7 8 -4 25 9 30 -16 8 -40 -30 -32 -26 -46 12
-45 23 1 26 3 10 6 -28 5 -29 11 -3 38 12 13 18 29 14 38 -7 19 -39 23 -49 7z"/>
<path d="M9144 1796 c-10 -26 4 -49 26 -43 11 3 20 2 20 -1 0 -15 -16 -30 -35
-35 -15 -4 -14 -5 5 -4 47 4 53 86 6 95 -9 2 -19 -4 -22 -12z m41 -16 c0 -8
-8 -16 -17 -18 -13 -2 -18 3 -18 18 0 15 5 20 18 18 9 -2 17 -10 17 -18z"/>
<path d="M9251 1791 c-6 -11 -11 -28 -10 -38 0 -10 5 -3 10 15 9 31 32 43 42
22 3 -6 4 -5 3 2 -4 21 -34 21 -45 -1z"/>
<path d="M9336 1801 c-3 -5 3 -7 14 -4 18 5 20 0 20 -37 0 -34 -3 -41 -17 -38
-10 2 -21 16 -24 33 -6 29 -7 29 -8 4 -1 -31 22 -54 44 -45 23 8 17 90 -7 94
-9 2 -19 -1 -22 -7z"/>
<path d="M9466 1801 c-4 -6 -3 -11 2 -11 5 0 12 -9 15 -20 4 -16 0 -20 -19
-20 -13 0 -24 -4 -24 -8 0 -5 14 -7 30 -4 26 4 30 8 24 26 -11 38 -21 50 -28
37z"/>
<path d="M9531 1758 c2 -52 2 -53 8 -13 6 36 7 38 15 17 4 -13 10 -21 13 -19
5 6 -25 67 -32 67 -3 0 -4 -24 -4 -52z"/>
<path d="M9606 1794 c-4 -9 -4 -19 -1 -22 3 -3 6 1 7 9 0 8 4 -6 8 -31 l7 -45
1 53 c2 51 -9 69 -22 36z"/>
<path d="M9879 1793 c-8 -10 -9 -14 -2 -10 8 5 13 -6 16 -35 3 -41 4 -41 5 10
1 28 0 52 -2 52 -2 0 -10 -8 -17 -17z"/>
<path d="M9990 1799 c23 -10 24 -11 7 -24 -15 -11 -16 -13 -2 -19 22 -8 18
-25 -7 -36 l-23 -9 23 0 c27 -1 39 23 23 43 -8 9 -8 16 -2 20 17 11 0 36 -23
35 -19 0 -19 -1 4 -10z"/>
<path d="M10044 1785 c-8 -32 3 -75 19 -75 21 0 37 22 37 50 0 49 -45 69 -56
25z m41 -26 c0 -24 -5 -34 -15 -34 -16 0 -25 37 -16 62 10 26 31 8 31 -28z"/>
<path d="M10186 1801 c-4 -6 -3 -11 2 -11 5 0 12 -9 15 -20 4 -16 0 -20 -19
-20 -13 0 -24 -4 -24 -8 0 -5 14 -7 30 -4 26 4 30 8 24 26 -11 38 -21 50 -28
37z"/>
<path d="M10251 1758 c2 -52 2 -53 8 -13 6 36 7 38 15 17 4 -13 10 -21 13 -19
5 6 -25 67 -32 67 -3 0 -4 -24 -4 -52z"/>
<path d="M10326 1794 c-4 -9 -4 -19 -1 -22 3 -3 6 1 7 9 0 8 4 -6 8 -31 l7
-45 1 53 c2 51 -9 69 -22 36z"/>
<path d="M8991 1778 c-1 -23 3 -28 22 -27 15 1 17 3 5 6 -9 2 -19 14 -21 26
-4 18 -5 17 -6 -5z"/>
<path d="M9795 1790 c-3 -6 1 -7 9 -4 18 7 21 14 7 14 -6 0 -13 -4 -16 -10z"/>
<path d="M8912 1760 c0 -14 2 -19 5 -12 2 6 2 18 0 25 -3 6 -5 1 -5 -13z"/>
<path d="M9062 1760 c0 -14 2 -19 5 -12 2 6 2 18 0 25 -3 6 -5 1 -5 -13z"/>
<path d="M9582 1740 c-7 -11 -8 -20 -3 -20 9 0 24 30 18 36 -1 2 -8 -6 -15
-16z"/>
<path d="M10302 1740 c-7 -11 -8 -20 -3 -20 9 0 24 30 18 36 -1 2 -8 -6 -15
-16z"/>
<path d="M9698 1743 c6 -2 18 -2 25 0 6 3 1 5 -13 5 -14 0 -19 -2 -12 -5z"/>
<path d="M9290 1731 c0 -8 -8 -11 -20 -8 -11 3 -18 1 -14 -4 3 -5 11 -9 19 -9
16 0 30 18 21 27 -3 4 -6 1 -6 -6z"/>
<path d="M8926 1716 c3 -8 13 -17 22 -21 13 -5 13 -2 -3 15 -21 24 -26 25 -19
6z"/>
<path d="M9035 1710 c-16 -17 -16 -20 -3 -15 9 4 19 13 22 21 7 19 2 18 -19
-6z"/>
<path d="M8978 1683 c6 -2 18 -2 25 0 6 3 1 5 -13 5 -14 0 -19 -2 -12 -5z"/>
<path d="M610 1583 c-12 -15 -12 -16 0 -5 42 37 54 -7 13 -50 l-27 -28 35 1
c25 1 28 3 11 6 l-24 5 22 23 c24 26 24 58 -1 63 -9 1 -22 -5 -29 -15z"/>
<path d="M692 1588 c-30 -30 -2 -98 34 -84 25 10 14 51 -14 50 -16 0 -22 4
-20 15 2 9 13 16 25 15 12 0 20 3 17 8 -7 12 -28 10 -42 -4z m38 -58 c0 -21
-24 -28 -35 -10 -8 14 3 30 21 30 8 0 14 -9 14 -20z"/>
<path d="M1730 1583 c-12 -15 -12 -16 0 -5 8 6 20 12 27 12 19 0 16 -37 -5
-52 -35 -25 -35 -38 0 -37 25 1 27 3 10 6 l-24 5 22 23 c24 26 24 58 -1 63 -9
1 -22 -5 -29 -15z"/>
<path d="M1818 1593 c17 -3 22 -9 17 -21 -16 -40 -23 -72 -14 -67 5 4 9 14 9
24 0 9 7 26 15 37 21 28 18 34 -17 33 -25 -1 -27 -3 -10 -6z"/>
<path d="M2845 1589 c-4 -6 -4 -13 -1 -16 3 -4 6 -1 6 5 0 7 6 12 14 12 27 0
28 -22 2 -49 -34 -35 -33 -41 7 -40 l32 1 -30 7 c-29 7 -29 7 -9 19 25 13 36
36 28 57 -7 17 -40 20 -49 4z"/>
<path d="M2925 1588 c-2 -7 -3 -29 -2 -48 2 -27 7 -36 23 -38 24 -3 40 24 24
43 -5 6 -7 14 -4 18 3 3 -3 3 -15 0 -15 -4 -21 -1 -21 12 0 12 6 16 20 12 11
-3 18 -1 14 4 -8 13 -34 11 -39 -3z m40 -58 c0 -8 -8 -16 -17 -18 -13 -2 -18
3 -18 18 0 15 5 20 18 18 9 -2 17 -10 17 -18z"/>
<path d="M3965 1589 c-4 -6 -4 -13 -1 -16 3 -4 6 -1 6 5 0 7 6 12 14 12 27 0
28 -22 2 -49 -34 -35 -33 -41 7 -40 31 2 31 2 3 6 l-28 5 27 28 c24 25 26 32
15 45 -14 17 -36 20 -45 4z"/>
<path d="M4040 1585 c-10 -12 -10 -18 0 -30 15 -18 60 -16 60 2 0 11 -4 11
-20 1 -15 -9 -22 -10 -31 -1 -16 16 -1 36 22 30 11 -3 17 -1 13 4 -8 14 -30
11 -44 -6z"/>
<path d="M5085 1590 c-4 -6 -4 -14 -1 -17 3 -4 6 -1 6 5 0 7 7 12 15 12 8 0
15 -7 15 -15 0 -8 -5 -15 -12 -15 -6 0 -3 -6 8 -14 15 -12 17 -17 6 -28 -10
-10 -17 -10 -35 1 -20 13 -21 13 -8 -2 7 -10 19 -17 26 -17 19 0 38 27 29 42
-5 7 -8 22 -9 33 0 22 -29 33 -40 15z"/>
<path d="M5162 1588 c-17 -17 -15 -63 3 -78 19 -16 45 -6 44 17 -1 17 -2 17
-6 0 -9 -33 -38 -15 -38 23 0 38 29 56 39 23 4 -15 5 -15 3 2 -3 23 -27 31
-45 13z"/>
<path d="M6199 1583 c-13 -16 -12 -17 3 -5 22 18 44 6 27 -14 -8 -10 -8 -14 0
-14 6 0 11 -9 11 -20 0 -23 -20 -26 -39 -7 -10 10 -11 8 -5 -6 4 -11 15 -17
28 -15 18 3 21 10 21 48 0 50 -21 65 -46 33z"/>
<path d="M6290 1585 c-8 -9 -9 -15 -2 -15 6 0 13 -17 15 -37 3 -31 4 -29 5 15
2 57 1 60 -18 37z"/>
<path d="M7376 1585 c-11 -8 -14 -15 -8 -15 7 0 12 -15 12 -35 0 -19 5 -35 10
-35 6 0 10 23 10 50 0 28 -1 50 -2 50 -2 0 -12 -7 -22 -15z"/>
<path d="M4080 1521 c0 -8 -8 -11 -20 -8 -11 3 -18 1 -14 -4 3 -5 11 -9 19 -9
16 0 30 18 21 27 -3 4 -6 1 -6 -6z"/>
<path d="M8903 1253 c-4 -10 2 -23 15 -34 28 -22 29 -43 2 -36 -11 3 -20 1
-20 -4 0 -5 11 -9 25 -9 39 0 44 29 10 56 l-29 23 24 10 c25 10 25 10 2 10
-12 1 -25 -6 -29 -16z"/>
<path d="M9560 1260 c0 -5 5 -10 10 -10 6 0 10 5 10 10 0 6 -4 10 -10 10 -5 0
-10 -4 -10 -10z"/>
<path d="M9652 1220 c0 -51 0 -53 9 -22 12 39 31 37 41 -4 6 -27 6 -27 5 6 -2
28 -7 36 -24 38 -12 2 -24 11 -26 20 -3 9 -5 -8 -5 -38z"/>
<path d="M9770 1232 c0 -41 14 -62 42 -62 22 0 38 29 38 69 0 47 -18 37 -22
-11 -2 -30 -8 -43 -18 -43 -10 0 -16 13 -18 43 -4 52 -22 56 -22 4z"/>
<path d="M9368 1248 c-6 -19 6 -71 17 -75 8 -2 11 30 6 80 -1 12 -19 8 -23 -5z"/>
<path d="M9603 1249 c-17 -17 0 -74 22 -76 11 -2 14 0 8 3 -15 6 -18 51 -4 56
5 2 3 8 -4 15 -8 7 -16 8 -22 2z"/>
<path d="M8304 1219 c3 -13 9 -37 13 -52 7 -36 24 -30 37 14 l10 34 10 -37 c5
-21 13 -38 18 -38 4 0 8 1 8 3 0 1 7 23 15 50 8 26 10 47 6 47 -5 0 -13 -17
-18 -37 l-10 -38 -10 35 c-5 19 -13 35 -18 35 -4 0 -14 -16 -21 -35 l-12 -35
-7 33 c-4 18 -12 35 -18 39 -6 4 -8 -2 -3 -18z"/>
<path d="M8440 1190 l0 -50 33 1 c23 1 26 3 10 6 -27 5 -31 39 -5 46 16 4 16
5 0 6 -10 0 -18 7 -18 15 0 8 8 17 18 19 10 3 6 5 -10 6 -27 1 -28 -1 -28 -49z"/>
<path d="M8520 1190 c0 -47 2 -50 25 -50 30 0 59 39 48 66 -9 24 -22 34 -50
34 -21 0 -23 -5 -23 -50z m54 18 c13 -21 -2 -51 -28 -56 -13 -3 -16 5 -16 38
0 33 3 41 16 38 9 -2 22 -11 28 -20z"/>
<path d="M8970 1218 c0 -34 12 -46 43 -46 24 0 27 4 27 34 0 41 -17 46 -22 7
-4 -34 -22 -33 -26 2 -4 31 -22 33 -22 3z"/>
<path d="M9061 1188 c1 -29 3 -45 6 -35 2 9 13 17 23 17 26 0 46 28 34 48 -6
9 -16 18 -23 20 -10 3 -10 0 0 -17 11 -16 11 -23 1 -33 -10 -10 -15 -10 -21 1
-5 8 -7 20 -4 27 2 6 0 15 -6 19 -7 4 -11 -12 -10 -47z"/>
<path d="M9140 1189 c0 -27 5 -49 10 -49 6 0 10 8 10 18 0 13 7 18 23 18 18
-1 22 4 22 29 0 27 -3 30 -32 32 -33 1 -33 1 -33 -48z m57 25 c1 -5 -2 -16 -7
-24 -12 -20 -35 2 -26 25 6 17 27 16 33 -1z"/>
<path d="M9231 1222 c-12 -23 4 -52 29 -52 26 0 45 36 29 56 -16 19 -46 18
-58 -4z m46 -8 c8 -21 -13 -42 -28 -27 -13 13 -5 43 11 43 6 0 13 -7 17 -16z"/>
<path d="M9310 1205 c0 -19 5 -35 10 -35 6 0 10 13 10 29 0 16 6 32 13 34 6 3
2 6 -10 6 -20 1 -23 -4 -23 -34z"/>
<path d="M9454 1214 c11 -43 24 -51 35 -23 l10 24 7 -22 c9 -32 20 -29 33 8
13 39 13 39 2 39 -5 0 -12 -10 -14 -22 l-4 -23 -8 23 c-10 29 -19 28 -32 -5
-10 -25 -11 -26 -12 -6 -1 12 -6 25 -12 29 -9 5 -10 -1 -5 -22z"/>
<path d="M9560 1205 c0 -19 5 -35 10 -35 6 0 10 16 10 35 0 19 -4 35 -10 35
-5 0 -10 -16 -10 -35z"/>
<path d="M9871 1203 l1 -38 9 33 c12 39 31 37 41 -4 6 -27 6 -27 5 6 -2 30 -6
35 -29 38 -26 3 -28 1 -27 -35z"/>
<path d="M9951 1222 c-12 -23 4 -52 29 -52 26 0 45 36 29 56 -16 19 -46 18
-58 -4z m46 -8 c8 -21 -13 -42 -28 -27 -13 13 -5 43 11 43 6 0 13 -7 17 -16z"/>
<path d="M15410 1110 c0 -5 5 -10 10 -10 6 0 10 5 10 10 0 6 -4 10 -10 10 -5
0 -10 -4 -10 -10z"/>
<path d="M8978 1073 c6 -2 18 -2 25 0 6 3 1 5 -13 5 -14 0 -19 -2 -12 -5z"/>
<path d="M8936 1054 c-23 -23 -20 -30 4 -9 11 10 20 20 20 22 0 7 -9 2 -24
-13z"/>
<path d="M9035 1050 c21 -24 26 -25 19 -6 -3 8 -13 17 -22 21 -13 5 -13 2 3
-15z"/>
<path d="M8409 1033 c-10 -11 -10 -14 -1 -9 9 5 12 -4 12 -33 0 -23 5 -41 10
-41 6 0 10 23 10 50 0 52 -8 61 -31 33z"/>
<path d="M8473 1043 c-7 -2 -13 -9 -13 -14 0 -6 4 -8 9 -4 6 3 12 -14 14 -37
3 -41 4 -41 5 10 1 28 1 52 0 51 -2 0 -9 -3 -15 -6z"/>
<path d="M9144 1036 c-10 -26 4 -49 26 -43 11 3 20 2 20 -1 0 -15 -16 -30 -35
-35 -15 -4 -14 -5 5 -4 47 4 53 86 6 95 -9 2 -19 -4 -22 -12z m41 -16 c0 -8
-8 -16 -17 -18 -13 -2 -18 3 -18 18 0 15 5 20 18 18 9 -2 17 -10 17 -18z"/>
<path d="M9251 1031 c-6 -11 -11 -28 -10 -38 0 -10 5 -3 10 15 9 31 32 43 42
22 3 -6 4 -5 3 2 -4 21 -34 21 -45 -1z"/>
<path d="M9336 1041 c-3 -5 3 -7 14 -4 18 5 20 0 20 -37 0 -34 -3 -41 -17 -38
-10 2 -21 16 -24 33 -6 29 -7 29 -8 4 -1 -31 22 -54 44 -45 23 8 17 90 -7 94
-9 2 -19 -1 -22 -7z"/>
<path d="M9466 1041 c-4 -6 -3 -11 2 -11 5 0 12 -9 15 -20 4 -16 0 -20 -19
-20 -13 0 -24 -4 -24 -8 0 -5 14 -7 30 -4 26 4 30 8 24 26 -11 38 -21 50 -28
37z"/>
<path d="M9531 998 c2 -52 2 -53 8 -13 6 36 7 38 15 17 4 -13 10 -21 13 -19 5
6 -25 67 -32 67 -3 0 -4 -24 -4 -52z"/>
<path d="M9606 1034 c-4 -9 -4 -19 -1 -22 3 -3 6 1 7 9 0 8 4 -6 8 -31 l7 -45
1 53 c2 51 -9 69 -22 36z"/>
<path d="M9879 1033 c-8 -10 -9 -14 -2 -10 8 5 13 -6 16 -35 3 -41 4 -41 5 10
1 28 0 52 -2 52 -2 0 -10 -8 -17 -17z"/>
<path d="M9990 1039 c23 -10 24 -11 7 -24 -15 -11 -16 -13 -2 -19 22 -8 18
-25 -7 -36 l-23 -9 23 0 c27 -1 39 23 23 43 -8 9 -8 16 -2 20 17 11 0 36 -23
35 -19 0 -19 -1 4 -10z"/>
<path d="M10044 1025 c-8 -32 3 -75 19 -75 21 0 37 22 37 50 0 49 -45 69 -56
25z m41 -26 c0 -24 -5 -34 -15 -34 -16 0 -25 37 -16 62 10 26 31 8 31 -28z"/>
<path d="M10186 1041 c-4 -6 -3 -11 2 -11 5 0 12 -9 15 -20 4 -16 0 -20 -19
-20 -13 0 -24 -4 -24 -8 0 -5 14 -7 30 -4 26 4 30 8 24 26 -11 38 -21 50 -28
37z"/>
<path d="M10251 998 c2 -52 2 -53 8 -13 6 36 7 38 15 17 4 -13 10 -21 13 -19
5 6 -25 67 -32 67 -3 0 -4 -24 -4 -52z"/>
<path d="M10326 1034 c-4 -9 -4 -19 -1 -22 3 -3 6 1 7 9 0 8 4 -6 8 -31 l7
-45 1 53 c2 51 -9 69 -22 36z"/>
<path d="M8991 1018 c-1 -23 3 -28 22 -27 15 1 17 3 5 6 -9 2 -19 14 -21 26
-4 18 -5 17 -6 -5z"/>
<path d="M9795 1030 c-3 -6 1 -7 9 -4 18 7 21 14 7 14 -6 0 -13 -4 -16 -10z"/>
<path d="M8912 1000 c0 -14 2 -19 5 -12 2 6 2 18 0 25 -3 6 -5 1 -5 -13z"/>
<path d="M9062 1000 c0 -14 2 -19 5 -12 2 6 2 18 0 25 -3 6 -5 1 -5 -13z"/>
<path d="M9582 980 c-7 -11 -8 -20 -3 -20 9 0 24 30 18 36 -1 2 -8 -6 -15 -16z"/>
<path d="M10302 980 c-7 -11 -8 -20 -3 -20 9 0 24 30 18 36 -1 2 -8 -6 -15
-16z"/>
<path d="M9698 983 c6 -2 18 -2 25 0 6 3 1 5 -13 5 -14 0 -19 -2 -12 -5z"/>
<path d="M9290 971 c0 -8 -8 -11 -20 -8 -11 3 -18 1 -14 -4 3 -5 11 -9 19 -9
16 0 30 18 21 27 -3 4 -6 1 -6 -6z"/>
<path d="M8926 956 c3 -8 13 -17 22 -21 13 -5 13 -2 -3 15 -21 24 -26 25 -19
6z"/>
<path d="M9035 950 c-16 -17 -16 -20 -3 -15 9 4 19 13 22 21 7 19 2 18 -19 -6z"/>
<path d="M8978 923 c6 -2 18 -2 25 0 6 3 1 5 -13 5 -14 0 -19 -2 -12 -5z"/>
</g>
</svg>
